<?xml version="1.0" standalone="no"?>
<!DOCTYPE svg PUBLIC "-//W3C//DTD SVG 1.1//EN" "http://www.w3.org/Graphics/SVG/1.1/DTD/svg11.dtd" >
<svg>
<metadata>
Created by FontForge 20090622 at Mon Apr  8 13:27:32 2019
 By deploy user
Copyright 2017 The Barlow Project Authors (https://github.com/jpt/barlow)
</metadata>
<defs>
<font id="Barlow-BoldItalic" horiz-adv-x="530" >
  <font-face 
    font-family="Barlow"
    font-weight="700"
    font-style="italic"
    font-stretch="normal"
    units-per-em="1000"
    panose-1="0 0 8 0 0 0 0 0 0 0"
    ascent="800"
    descent="-200"
    x-height="514"
    cap-height="700"
    bbox="-565.25 -225 1139 1100"
    underline-thickness="50"
    underline-position="-50"
    slope="-7"
    unicode-range="U+000D-U+FB02"
  />
<missing-glyph horiz-adv-x="460" 
d="M-15 0h451q2 0 3.5 1.5t1.5 3.5l85 690q0 5 -5 5h-450q-5 0 -5 -5l-85 -690q0 -5 4 -5zM184 262l3 20q4 36 24.5 58t56.5 45q33 22 47.5 37.5t14.5 40.5q0 20 -14 32t-39 12q-30 0 -49.5 -15t-22.5 -39l-1 -8q-1 -12 -13 -12l-73 3q-5 0 -8 4t-2 9v4q8 65 58.5 105.5
t123.5 40.5q65 0 103 -32.5t38 -87.5q0 -13 -1 -19q-6 -45 -29 -71t-62 -52q-27 -18 -40 -30.5t-15 -31.5l-2 -13q0 -5 -4 -8.5t-9 -3.5h-74q-11 0 -11 12zM172 106q-13 16 -11 40q4 25 21 40.5t41 15.5q22 0 35 -12.5t13 -34.5q0 -28 -18 -46.5t-44 -18.5q-24 0 -37 16z
" />
    <glyph glyph-name="fi" unicode="fi" horiz-adv-x="622" 
d="M386.5 511.5q3.5 -3.5 2.5 -8.5l-12 -95q-1 -5 -4.5 -8.5t-8.5 -3.5h-94q-4 0 -6 -5l-46 -379q-1 -5 -4.5 -8.5t-8.5 -3.5h-114q-5 0 -8 3.5t-2 8.5l47 379q0 5 -5 5h-57q-5 0 -8 3.5t-2 8.5l12 95q0 5 4 8.5t9 3.5h57q5 0 5 5l3 22q8 62 30.5 96.5t65.5 49t116 12.5h36
q11 0 11 -12l-10 -81q-1 -5 -4.5 -8.5t-8.5 -3.5h-32q-35 -1 -49.5 -14.5t-18.5 -49.5l-2 -11q0 -5 4 -5h94q5 0 8.5 -3.5zM501 591q-19 19 -19 49q0 39 25.5 64.5t61.5 25.5q31 0 49.5 -18t18.5 -49q0 -38 -25.5 -64.5t-61.5 -26.5q-30 0 -49 19zM411 12l61 491
q1 5 4.5 8.5t8.5 3.5h113q5 0 8 -3.5t2 -8.5l-60 -491q-1 -5 -4.5 -8.5t-8.5 -3.5h-113q-11 0 -11 12z" />
    <glyph glyph-name="fl" unicode="fl" horiz-adv-x="612" 
d="M386.5 511.5q3.5 -3.5 2.5 -8.5l-12 -95q-1 -5 -4.5 -8.5t-8.5 -3.5h-94q-4 0 -6 -5l-46 -379q-1 -5 -4.5 -8.5t-8.5 -3.5h-114q-5 0 -8 3.5t-2 8.5l47 379q0 5 -5 5h-57q-5 0 -8 3.5t-2 8.5l12 95q0 5 4 8.5t9 3.5h57q5 0 5 5l3 22q8 62 30.5 96.5t65.5 49t116 12.5h36
q11 0 11 -12l-10 -81q-1 -5 -4.5 -8.5t-8.5 -3.5h-32q-35 -1 -49.5 -14.5t-18.5 -49.5l-2 -11q0 -5 4 -5h94q5 0 8.5 -3.5zM410 3.5q-3 3.5 -2 8.5l83 676q0 5 4 8.5t9 3.5h113q5 0 8 -3.5t2 -8.5l-83 -676q-1 -5 -4.5 -8.5t-8.5 -3.5h-113q-5 0 -8 3.5z" />
    <glyph glyph-name="I_J.liga" unicode="IJ" horiz-adv-x="821" 
d="M43 3.5q-3 3.5 -2 8.5l83 676q1 5 4.5 8.5t8.5 3.5h114q5 0 8 -3.5t2 -8.5l-83 -676q-1 -5 -4.5 -8.5t-8.5 -3.5h-114q-5 0 -8 3.5zM337.5 44.5q-58.5 52.5 -58.5 141.5q0 10 2 34l8 63q1 5 4.5 8.5t8.5 3.5h113q11 0 11 -12l-8 -63q-1 -6 -1 -18q0 -41 25 -65t69 -24
q48 0 82 29.5t40 77.5l58 468q0 5 4 8.5t9 3.5h112q5 0 8 -3.5t2 -8.5l-57 -468q-8 -68 -45.5 -119.5t-96.5 -80t-130 -28.5q-101 0 -159.5 52.5z" />
    <glyph glyph-name="f_f_i.liga" unicode="ffi" horiz-adv-x="943" 
d="M822 590.5q-18 18.5 -18 48.5q0 40 24.5 65.5t61.5 25.5q31 0 49.5 -18t18.5 -49q0 -38 -25.5 -64.5t-62.5 -26.5q-30 0 -48 18.5zM603 519q0 -5 4 -5h97q5 0 8 -3.5t2 -8.5l-10 -89q-1 -5 -5 -8.5t-9 -3.5h-97q-5 0 -5 -5l-47 -384q-1 -5 -4.5 -8.5t-8.5 -3.5h-114
q-5 0 -8 3.5t-2 8.5l47 384q2 5 -4 5h-180q-2 0 -3.5 -1.5t-1.5 -3.5l-47 -384q-1 -5 -4.5 -8.5t-8.5 -3.5h-114q-5 0 -8 3.5t-2 8.5l47 384q2 5 -4 5h-54q-5 0 -8 3.5t-2 8.5l10 89q1 5 5 8.5t9 3.5h54q5 0 5 5l4 32q11 83 59.5 118t152.5 31h36q11 0 11 -12l-9 -72
q-1 -5 -4.5 -8.5t-8.5 -3.5h-37q-32 -1 -46 -16.5t-18 -48.5l-3 -20q0 -5 4 -5h180q5 0 5 5l4 32q11 83 59.5 118t152.5 31h37q11 0 11 -12l-9 -72q-1 -5 -4.5 -8.5t-8.5 -3.5h-37q-32 -1 -46.5 -17t-18.5 -48zM734 3.5q-3 3.5 -2 8.5l60 491q1 5 4.5 8.5t8.5 3.5h114
q5 0 8 -3.5t2 -8.5l-60 -491q-1 -5 -4.5 -8.5t-8.5 -3.5h-114q-5 0 -8 3.5z" />
    <glyph glyph-name="f_f_l.liga" unicode="ffl" horiz-adv-x="931" 
d="M603 519q0 -5 4 -5h97q5 0 8 -3.5t2 -8.5l-10 -89q-1 -5 -5 -8.5t-9 -3.5h-97q-5 0 -5 -5l-47 -384q-1 -5 -4.5 -8.5t-8.5 -3.5h-114q-5 0 -8 3.5t-2 8.5l47 384q2 5 -4 5h-180q-2 0 -3.5 -1.5t-1.5 -3.5l-47 -384q-1 -5 -4.5 -8.5t-8.5 -3.5h-114q-5 0 -8 3.5t-2 8.5
l47 384q2 5 -4 5h-54q-5 0 -8 3.5t-2 8.5l10 89q1 5 5 8.5t9 3.5h54q5 0 5 5l4 32q11 83 59.5 118t152.5 31h36q11 0 11 -12l-9 -72q-1 -5 -4.5 -8.5t-8.5 -3.5h-37q-32 -1 -46 -16.5t-18 -48.5l-3 -20q0 -5 4 -5h180q5 0 5 5l4 32q11 83 59.5 118t152.5 31h37q11 0 11 -12
l-9 -72q-1 -5 -4.5 -8.5t-8.5 -3.5h-37q-32 -1 -46.5 -17t-18.5 -48zM813.5 696.5q3.5 3.5 8.5 3.5h114q5 0 8 -3.5t2 -8.5l-83 -676q-1 -5 -4.5 -8.5t-8.5 -3.5h-114q-5 0 -8 3.5t-2 8.5l83 676q1 5 4.5 8.5z" />
    <glyph glyph-name="g_j.liga" unicode="gj" horiz-adv-x="776" 
d="M655 591q-19 19 -19 48q0 40 25 65.5t62 25.5q31 0 49.5 -18t18.5 -49q0 -38 -25.5 -64.5t-61.5 -26.5q-30 0 -49 19zM392 474.5q2 0.5 2 3.5l3 24q1 5 4.5 8.5t8.5 3.5h114q5 0 8 -3.5t2 -8.5l-56 -456q-17 -131 -97 -187t-194 -56q-34 0 -76 5q-10 2 -8 13l17 103
q1 13 14 11q35 -6 64 -6q63 0 99.5 28t43.5 90q1 3 -1 3.5t-4 -1.5q-43 -41 -113 -41q-63 0 -112 31.5t-63 101.5q-4 21 -4 51q0 26 4 68q11 80 33 127q28 61 81 98t117 37q76 0 109 -46q2 -2 4 -1.5zM626 502q1 5 4.5 8.5t8.5 3.5h114q5 0 8 -3.5t2 -8.5l-62 -503
q-10 -80 -35.5 -124t-74 -62.5t-130.5 -16.5q-12 0 -10 12l11 95q1 11 14 11q40 -2 61.5 18t26.5 66zM368 261q4 29 4 49q0 18 -3 31q-5 27 -23.5 43.5t-48.5 16.5q-29 0 -51.5 -16.5t-35.5 -43.5q-17 -29 -24 -81q-3 -25 -3 -44q0 -21 5 -36q5 -27 25 -43.5t50 -16.5
q31 0 53.5 16.5t33.5 42.5q11 29 18 82z" />
    <glyph glyph-name="i_j.liga" unicode="ij" horiz-adv-x="492" 
d="M125.5 591q-18.5 19 -18.5 49q0 39 25 64.5t61 25.5q31 0 49.5 -18t18.5 -49q0 -38 -25 -64.5t-62 -26.5q-30 0 -48.5 19zM367 591q-19 19 -19 48q0 40 25 65.5t62 25.5q31 0 49 -18t18 -48q0 -38 -25.5 -65t-60.5 -27q-30 0 -49 19zM44 3.5q-3 3.5 -2 8.5l60 490
q1 5 4.5 8.5t8.5 3.5h114q5 0 8 -3.5t2 -8.5l-60 -490q-1 -5 -4.5 -8.5t-8.5 -3.5h-114q-5 0 -8 3.5zM144 -200.5q-3 3.5 -2 8.5l12 95q2 13 14 11q57 -2 82 17t31 67l62 504q1 5 4.5 8.5t8.5 3.5h114q5 0 8 -3.5t2 -8.5l-62 -502q-10 -81 -37 -125.5t-80.5 -62.5
t-148.5 -16q-5 0 -8 3.5z" />
    <glyph glyph-name="hyphen_hyphen.liga" unicode="&#x2d;&#x2d;" horiz-adv-x="639" 
d="M41 235.5q-3 3.5 -2 8.5l11 96q1 5 5 8.5t9 3.5h559q5 0 8 -3.5t2 -8.5l-11 -96q-1 -5 -4.5 -8.5t-8.5 -3.5h-560q-5 0 -8 3.5z" />
    <glyph glyph-name=".notdef" horiz-adv-x="460" 
d="M-15 0h451q2 0 3.5 1.5t1.5 3.5l85 690q0 5 -5 5h-450q-5 0 -5 -5l-85 -690q0 -5 4 -5zM184 262l3 20q4 36 24.5 58t56.5 45q33 22 47.5 37.5t14.5 40.5q0 20 -14 32t-39 12q-30 0 -49.5 -15t-22.5 -39l-1 -8q-1 -12 -13 -12l-73 3q-5 0 -8 4t-2 9v4q8 65 58.5 105.5
t123.5 40.5q65 0 103 -32.5t38 -87.5q0 -13 -1 -19q-6 -45 -29 -71t-62 -52q-27 -18 -40 -30.5t-15 -31.5l-2 -13q0 -5 -4 -8.5t-9 -3.5h-74q-11 0 -11 12zM172 106q-13 16 -11 40q4 25 21 40.5t41 15.5q22 0 35 -12.5t13 -34.5q0 -28 -18 -46.5t-44 -18.5q-24 0 -37 16z
" />
    <glyph glyph-name="NULL" horiz-adv-x="0" 
 />
    <glyph glyph-name="NULL" horiz-adv-x="0" 
 />
    <glyph glyph-name="nonmarkingreturn" unicode="&#xd;" horiz-adv-x="194" 
 />
    <glyph glyph-name="space" unicode=" " horiz-adv-x="194" 
 />
    <glyph glyph-name="A" unicode="A" horiz-adv-x="651" 
d="M460 10l-17 98q0 1 -1 2.5t-3 1.5h-239q-3 0 -5 -4l-41 -98q-3 -10 -13 -10h-124q-6 0 -8.5 4t0.5 10l293 676q5 10 14 10h152q9 0 12 -10l126 -676v-3q0 -5 -3 -8t-8 -3h-124q-9 0 -11 10zM247 221h171q5 0 5 6l-51 297q-1 4 -3 3.5t-3 -3.5l-122 -297q-1 -6 3 -6z" />
    <glyph glyph-name="Aacute" unicode="&#xc1;" horiz-adv-x="651" 
d="M460 10l-17 98q0 1 -1 2.5t-3 1.5h-239q-3 0 -5 -4l-41 -98q-3 -10 -13 -10h-124q-6 0 -8.5 4t0.5 10l293 676q5 10 14 10h152q9 0 12 -10l126 -676v-3q0 -5 -3 -8t-8 -3h-124q-9 0 -11 10zM247 221h171q5 0 5 6l-51 297q-1 4 -3 3.5t-3 -3.5l-122 -297q-1 -6 3 -6z
M335 768q0 4 3 8l64 101q4 9 15 9h98q9 0 9 -7q0 -3 -3 -8l-81 -101q-6 -8 -15 -8h-81q-9 0 -9 6z" />
    <glyph glyph-name="Abreve" unicode="&#x102;" horiz-adv-x="651" 
d="M460 10l-17 98q0 1 -1 2.5t-3 1.5h-239q-3 0 -5 -4l-41 -98q-3 -10 -13 -10h-124q-6 0 -8.5 4t0.5 10l293 676q5 10 14 10h152q9 0 12 -10l126 -676v-3q0 -5 -3 -8t-8 -3h-124q-9 0 -11 10zM247 221h171q5 0 5 6l-51 297q-1 4 -3 3.5t-3 -3.5l-122 -297q-1 -6 3 -6z
M293.5 776q-38.5 33 -36.5 86q0 12 12 12h65q9 0 11 -11q2 -21 18 -34t41 -13t44.5 13t26.5 34q3 11 13 11h65q5 0 7.5 -3t1.5 -7q-11 -53 -57.5 -87t-109.5 -34t-101.5 33z" />
    <glyph glyph-name="uni1EAE" unicode="&#x1eae;" horiz-adv-x="651" 
d="M460 10l-17 98q0 1 -1 2.5t-3 1.5h-239q-3 0 -5 -4l-41 -98q-3 -10 -13 -10h-124q-6 0 -8.5 4t0.5 10l293 676q5 10 14 10h152q9 0 12 -10l126 -676v-3q0 -5 -3 -8t-8 -3h-124q-9 0 -11 10zM247 221h171q5 0 5 6l-51 297q-1 4 -3 3.5t-3 -3.5l-122 -297q-1 -6 3 -6z
M296.5 782.5q-38.5 31.5 -38.5 80.5q0 14 12 14l58 -1q9 0 11 -11q1 -21 19.5 -34t46.5 -13t50 13t29 35q3 11 13 11h56q6 0 9 -2.5t1 -7.5q-10 -50 -57 -83t-110 -33q-61 0 -99.5 31.5zM359 922q0 4 3 8l64 101q4 9 15 9h98q9 0 9 -7q0 -3 -3 -8l-81 -101q-6 -8 -15 -8h-81
q-9 0 -9 6z" />
    <glyph glyph-name="uni1EB6" unicode="&#x1eb6;" horiz-adv-x="651" 
d="M460 10l-17 98q0 1 -1 2.5t-3 1.5h-239q-3 0 -5 -4l-41 -98q-3 -10 -13 -10h-124q-6 0 -8.5 4t0.5 10l293 676q5 10 14 10h152q9 0 12 -10l126 -676v-3q0 -5 -3 -8t-8 -3h-124q-9 0 -11 10zM247 221h171q5 0 5 6l-51 297q-1 4 -3 3.5t-3 -3.5l-122 -297q-1 -6 3 -6z
M233 -198.5q-18 17.5 -18 45.5q0 39 23.5 63t59.5 24q29 0 46.5 -17.5t17.5 -45.5q0 -37 -24 -62t-59 -25q-28 0 -46 17.5zM296.5 782.5q-38.5 31.5 -38.5 80.5q0 14 12 14l58 -1q9 0 11 -11q1 -21 19.5 -34t46.5 -13t50 13t29 35q3 11 13 11h56q6 0 9 -2.5t1 -7.5
q-10 -50 -57 -83t-110 -33q-61 0 -99.5 31.5z" />
    <glyph glyph-name="uni1EB0" unicode="&#x1eb0;" horiz-adv-x="651" 
d="M460 10l-17 98q0 1 -1 2.5t-3 1.5h-239q-3 0 -5 -4l-41 -98q-3 -10 -13 -10h-124q-6 0 -8.5 4t0.5 10l293 676q5 10 14 10h152q9 0 12 -10l126 -676v-3q0 -5 -3 -8t-8 -3h-124q-9 0 -11 10zM247 221h171q5 0 5 6l-51 297q-1 4 -3 3.5t-3 -3.5l-122 -297q-1 -6 3 -6z
M296.5 782.5q-38.5 31.5 -38.5 80.5q0 14 12 14l58 -1q9 0 11 -11q1 -21 19.5 -34t46.5 -13t50 13t29 35q3 11 13 11h56q6 0 9 -2.5t1 -7.5q-10 -50 -57 -83t-110 -33q-61 0 -99.5 31.5zM469 925q0 -4 -3 -6.5t-7 -2.5h-82q-9 0 -12 8l-57 101q-2 4 -2 6q0 4 3.5 6.5
t8.5 2.5h98q10 0 13 -9l39 -101q1 -2 1 -5z" />
    <glyph glyph-name="uni1EB2" unicode="&#x1eb2;" horiz-adv-x="651" 
d="M460 10l-17 98q0 1 -1 2.5t-3 1.5h-239q-3 0 -5 -4l-41 -98q-3 -10 -13 -10h-124q-6 0 -8.5 4t0.5 10l293 676q5 10 14 10h152q9 0 12 -10l126 -676v-3q0 -5 -3 -8t-8 -3h-124q-9 0 -11 10zM247 221h171q5 0 5 6l-51 297q-1 4 -3 3.5t-3 -3.5l-122 -297q-1 -6 3 -6z
M296.5 782.5q-38.5 31.5 -38.5 80.5q0 14 12 14l58 -1q9 0 11 -11q1 -21 19.5 -34t46.5 -13t50 13t29 35q3 11 13 11h56q6 0 9 -2.5t1 -7.5q-10 -50 -57 -83t-110 -33q-61 0 -99.5 31.5zM395 918q14 27 38 49q12 13 17 20.5t6 20.5q1 10 -6 17t-18 7q-13 0 -22.5 -6
t-24.5 -24q-4 -5 -9 -6t-9 3l-30 25q-4 3 -4 8t4 9q24 32 48 45.5t59 13.5q40 0 63 -20.5t23 -57.5q0 -29 -11.5 -47.5t-34.5 -39.5q-22 -20 -30 -32q-7 -10 -16 -8l-36 8q-13 3 -7 15z" />
    <glyph glyph-name="uni1EB4" unicode="&#x1eb4;" horiz-adv-x="651" 
d="M460 10l-17 98q0 1 -1 2.5t-3 1.5h-239q-3 0 -5 -4l-41 -98q-3 -10 -13 -10h-124q-6 0 -8.5 4t0.5 10l293 676q5 10 14 10h152q9 0 12 -10l126 -676v-3q0 -5 -3 -8t-8 -3h-124q-9 0 -11 10zM247 221h171q5 0 5 6l-51 297q-1 4 -3 3.5t-3 -3.5l-122 -297q-1 -6 3 -6z
M442.5 903q-11.5 4 -26.5 12q-14 8 -23 11t-18 3q-26 0 -46 -17q-11 -10 -17 -1l-28 36q-4 4 -4 8q0 5 4 9q17 24 42 38.5t53 14.5q16 0 27.5 -4t21 -9l13.5 -7q13 -8 21.5 -11.5t18.5 -3.5q24 0 43 19q7 5 10 5q4 0 7 -4l25 -37q5 -8 1 -14q-14 -23 -39.5 -37.5
t-56.5 -14.5q-17 0 -28.5 4zM296.5 782.5q-38.5 31.5 -38.5 80.5q0 14 12 14l58 -1q9 0 11 -11q1 -21 19.5 -34t46.5 -13t50 13t29 35q3 11 13 11h56q6 0 8.5 -2.5t1.5 -7.5q-10 -50 -57 -83t-110 -33q-61 0 -99.5 31.5z" />
    <glyph glyph-name="uni01CD" unicode="&#x1cd;" horiz-adv-x="651" 
d="M460 10l-17 98q0 1 -1 2.5t-3 1.5h-239q-3 0 -5 -4l-41 -98q-3 -10 -13 -10h-124q-6 0 -8.5 4t0.5 10l293 676q5 10 14 10h152q9 0 12 -10l126 -676v-3q0 -5 -3 -8t-8 -3h-124q-9 0 -11 10zM247 221h171q5 0 5 6l-51 297q-1 4 -3 3.5t-3 -3.5l-122 -297q-1 -6 3 -6z
M266 876q0 4 3 6.5t8 2.5h88q9 0 12 -8l32 -61q2 -7 5 0l47 61q5 8 14 8h88q9 0 9 -7q0 -3 -3 -8l-87 -106q-6 -7 -15 -7h-129q-9 0 -12 8l-58 105q-2 4 -2 6z" />
    <glyph glyph-name="Acircumflex" unicode="&#xc2;" horiz-adv-x="651" 
d="M460 10l-17 98q0 1 -1 2.5t-3 1.5h-239q-3 0 -5 -4l-41 -98q-3 -10 -13 -10h-124q-6 0 -8.5 4t0.5 10l293 676q5 10 14 10h152q9 0 12 -10l126 -676v-3q0 -5 -3 -8t-8 -3h-124q-9 0 -11 10zM247 221h171q5 0 5 6l-51 297q-1 4 -3 3.5t-3 -3.5l-122 -297q-1 -6 3 -6z
M246 765q0 4 3 8l84 105q5 8 14 8h129q9 0 13 -8l61 -105q2 -4 2 -6q0 -4 -3.5 -6.5t-8.5 -2.5h-87q-10 0 -13 8l-31 61q-3 6 -6 0l-46 -61q-6 -8 -15 -8h-87q-9 0 -9 7z" />
    <glyph glyph-name="uni1EA4" unicode="&#x1ea4;" horiz-adv-x="651" 
d="M460 10l-17 98q0 1 -1 2.5t-3 1.5h-239q-3 0 -5 -4l-41 -98q-3 -10 -13 -10h-124q-6 0 -8.5 4t0.5 10l293 676q5 10 14 10h152q9 0 12 -10l126 -676v-3q0 -5 -3 -8t-8 -3h-124q-9 0 -11 10zM247 221h171q5 0 5 6l-51 297q-1 4 -3 3.5t-3 -3.5l-122 -297q-1 -6 3 -6z
M246 765q0 4 3 8l84 105q5 8 14 8h129q9 0 13 -8l61 -105q2 -4 2 -6q0 -4 -3.5 -6.5t-8.5 -2.5h-87q-10 0 -13 8l-31 61q-3 6 -6 0l-46 -61q-6 -8 -15 -8h-87q-9 0 -9 7zM553 843q0 4 3 8l64 101q4 9 15 9h98q9 0 9 -7q0 -3 -3 -8l-81 -101q-6 -8 -15 -8h-81q-9 0 -9 6z" />
    <glyph glyph-name="uni1EAC" unicode="&#x1eac;" horiz-adv-x="651" 
d="M460 10l-17 98q0 1 -1 2.5t-3 1.5h-239q-3 0 -5 -4l-41 -98q-3 -10 -13 -10h-124q-6 0 -8.5 4t0.5 10l293 676q5 10 14 10h152q9 0 12 -10l126 -676v-3q0 -5 -3 -8t-8 -3h-124q-9 0 -11 10zM247 221h171q5 0 5 6l-51 297q-1 4 -3 3.5t-3 -3.5l-122 -297q-1 -6 3 -6z
M233 -198.5q-18 17.5 -18 45.5q0 39 23.5 63t59.5 24q29 0 46.5 -17.5t17.5 -45.5q0 -37 -24 -62t-59 -25q-28 0 -46 17.5zM246 765q0 4 3 8l84 105q5 8 14 8h129q9 0 13 -8l61 -105q2 -4 2 -6q0 -4 -3.5 -6.5t-8.5 -2.5h-87q-10 0 -13 8l-31 61q-3 6 -6 0l-46 -61
q-6 -8 -15 -8h-87q-9 0 -9 7z" />
    <glyph glyph-name="uni1EA6" unicode="&#x1ea6;" horiz-adv-x="651" 
d="M460 10l-17 98q0 1 -1 2.5t-3 1.5h-239q-3 0 -5 -4l-41 -98q-3 -10 -13 -10h-124q-6 0 -8.5 4t0.5 10l293 676q5 10 14 10h152q9 0 12 -10l126 -676v-3q0 -5 -3 -8t-8 -3h-124q-9 0 -11 10zM247 221h171q5 0 5 6l-51 297q-1 4 -3 3.5t-3 -3.5l-122 -297q-1 -6 3 -6z
M246 765q0 4 3 8l84 105q5 8 14 8h129q9 0 13 -8l61 -105q2 -4 2 -6q0 -4 -3.5 -6.5t-8.5 -2.5h-87q-10 0 -13 8l-31 61q-3 6 -6 0l-46 -61q-6 -8 -15 -8h-87q-9 0 -9 7zM643 889q0 -4 -3 -6.5t-7 -2.5h-82q-9 0 -12 8l-57 101q-2 4 -2 6q0 4 3.5 6.5t8.5 2.5h98q10 0 13 -9
l39 -101q1 -2 1 -5z" />
    <glyph glyph-name="uni1EA8" unicode="&#x1ea8;" horiz-adv-x="651" 
d="M460 10l-17 98q0 1 -1 2.5t-3 1.5h-239q-3 0 -5 -4l-41 -98q-3 -10 -13 -10h-124q-6 0 -8.5 4t0.5 10l293 676q5 10 14 10h152q9 0 12 -10l126 -676v-3q0 -5 -3 -8t-8 -3h-124q-9 0 -11 10zM247 221h171q5 0 5 6l-51 297q-1 4 -3 3.5t-3 -3.5l-122 -297q-1 -6 3 -6z
M246 765q0 4 3 8l84 105q5 8 14 8h129q9 0 13 -8l61 -105q2 -4 2 -6q0 -4 -3.5 -6.5t-8.5 -2.5h-87q-10 0 -13 8l-31 61q-3 6 -6 0l-46 -61q-6 -8 -15 -8h-87q-9 0 -9 7zM539 883q14 27 38 49q12 13 17 20.5t6 20.5q1 10 -6 17t-18 7q-13 0 -22.5 -6t-24.5 -24q-4 -5 -9 -6
t-9 3l-30 25q-4 3 -4 8t4 9q24 32 48 45.5t59 13.5q40 0 63 -20.5t23 -57.5q0 -29 -11.5 -47.5t-34.5 -39.5q-22 -20 -30 -32q-7 -10 -16 -8l-36 8q-13 3 -7 15z" />
    <glyph glyph-name="uni1EAA" unicode="&#x1eaa;" horiz-adv-x="651" 
d="M460 10l-17 98q0 1 -1 2.5t-3 1.5h-239q-3 0 -5 -4l-41 -98q-3 -10 -13 -10h-124q-6 0 -8.5 4t0.5 10l293 676q5 10 14 10h152q9 0 12 -10l126 -676v-3q0 -5 -3 -8t-8 -3h-124q-9 0 -11 10zM247 221h171q5 0 5 6l-51 297q-1 4 -3 3.5t-3 -3.5l-122 -297q-1 -6 3 -6z
M246 765q0 4 3 8l84 105q5 8 14 8h129q9 0 13 -8l61 -105q2 -4 2 -6q0 -4 -3.5 -6.5t-8.5 -2.5h-87q-10 0 -13 8l-31 61q-3 6 -6 0l-46 -61q-6 -8 -15 -8h-87q-9 0 -9 7zM445.5 922.5q-13.5 4.5 -29.5 13.5q-19 10 -28 13.5t-19 3.5q-31 0 -55 -22q-5 -5 -9 -5t-7 4l-34 44
q-4 6 -4 9q0 4 3 8q20 28 49 45t62 17q18 0 31.5 -5t24.5 -10.5t14 -7.5q17 -10 26 -14t20 -4q29 0 50 24q4 5 9 5q4 0 7 -4l31 -45q5 -8 1 -14q-16 -27 -45 -43.5t-64 -16.5q-20 0 -33.5 4.5z" />
    <glyph glyph-name="Adieresis" unicode="&#xc4;" horiz-adv-x="651" 
d="M460 10l-17 98q0 1 -1 2.5t-3 1.5h-239q-3 0 -5 -4l-41 -98q-3 -10 -13 -10h-124q-6 0 -8.5 4t0.5 10l293 676q5 10 14 10h152q9 0 12 -10l126 -676v-3q0 -5 -3 -8t-8 -3h-124q-9 0 -11 10zM247 221h171q5 0 5 6l-51 297q-1 4 -3 3.5t-3 -3.5l-122 -297q-1 -6 3 -6z
M446 783.5q-19 19.5 -19 49.5q0 38 25.5 63.5t62.5 25.5q31 0 49.5 -18.5t18.5 -49.5q0 -38 -26 -64t-62 -26q-30 0 -49 19.5zM253 783.5q-19 19.5 -19 49.5q0 38 25.5 63.5t62.5 25.5q31 0 49.5 -18.5t18.5 -49.5q0 -38 -26 -64t-62 -26q-30 0 -49 19.5z" />
    <glyph glyph-name="uni1EA0" unicode="&#x1ea0;" horiz-adv-x="651" 
d="M460 10l-17 98q0 1 -1 2.5t-3 1.5h-239q-3 0 -5 -4l-41 -98q-3 -10 -13 -10h-124q-6 0 -8.5 4t0.5 10l293 676q5 10 14 10h152q9 0 12 -10l126 -676v-3q0 -5 -3 -8t-8 -3h-124q-9 0 -11 10zM247 221h171q5 0 5 6l-51 297q-1 4 -3 3.5t-3 -3.5l-122 -297q-1 -6 3 -6z
M233 -198.5q-18 17.5 -18 45.5q0 39 23.5 63t59.5 24q29 0 46.5 -17.5t17.5 -45.5q0 -37 -24 -62t-59 -25q-28 0 -46 17.5z" />
    <glyph glyph-name="Agrave" unicode="&#xc0;" horiz-adv-x="651" 
d="M460 10l-17 98q0 1 -1 2.5t-3 1.5h-239q-3 0 -5 -4l-41 -98q-3 -10 -13 -10h-124q-6 0 -8.5 4t0.5 10l293 676q5 10 14 10h152q9 0 12 -10l126 -676v-3q0 -5 -3 -8t-8 -3h-124q-9 0 -11 10zM247 221h171q5 0 5 6l-51 297q-1 4 -3 3.5t-3 -3.5l-122 -297q-1 -6 3 -6z
M450 771q0 -4 -3 -6.5t-7 -2.5h-82q-9 0 -12 8l-57 101q-2 4 -2 6q0 4 3.5 6.5t8.5 2.5h98q10 0 13 -9l39 -101q1 -2 1 -5z" />
    <glyph glyph-name="uni1EA2" unicode="&#x1ea2;" horiz-adv-x="651" 
d="M460 10l-17 98q0 1 -1 2.5t-3 1.5h-239q-3 0 -5 -4l-41 -98q-3 -10 -13 -10h-124q-6 0 -8.5 4t0.5 10l293 676q5 10 14 10h152q9 0 12 -10l126 -676v-3q0 -5 -3 -8t-8 -3h-124q-9 0 -11 10zM247 221h171q5 0 5 6l-51 297q-1 4 -3 3.5t-3 -3.5l-122 -297q-1 -6 3 -6z
M376 762q14 27 38 49q12 13 17 20.5t6 20.5q1 10 -6 17t-18 7q-13 0 -22.5 -6t-24.5 -24q-4 -5 -9 -6t-9 3l-30 25q-4 3 -4 8t4 9q24 32 48 45.5t59 13.5q40 0 63 -20.5t23 -57.5q0 -29 -11.5 -47.5t-34.5 -39.5q-22 -20 -30 -32q-7 -10 -16 -8l-36 8q-13 3 -7 15z" />
    <glyph glyph-name="Amacron" unicode="&#x100;" horiz-adv-x="651" 
d="M460 10l-17 98q0 1 -1 2.5t-3 1.5h-239q-3 0 -5 -4l-41 -98q-3 -10 -13 -10h-124q-6 0 -8.5 4t0.5 10l293 676q5 10 14 10h152q9 0 12 -10l126 -676v-3q0 -5 -3 -8t-8 -3h-124q-9 0 -11 10zM247 221h171q5 0 5 6l-51 297q-1 4 -3 3.5t-3 -3.5l-122 -297q-1 -6 3 -6z
M259 767.5q-3 3.5 -2 8.5l9 71q1 5 4.5 8.5t8.5 3.5h262q5 0 8 -3.5t2 -8.5l-9 -71q-1 -5 -4.5 -8.5t-8.5 -3.5h-262q-5 0 -8 3.5z" />
    <glyph glyph-name="Aogonek" unicode="&#x104;" horiz-adv-x="651" 
d="M460 10l-17 98q0 1 -1 2.5t-3 1.5h-239q-3 0 -5 -4l-41 -98q-3 -10 -13 -10h-124q-6 0 -8.5 4t0.5 10l293 676q5 10 14 10h152q9 0 12 -10l126 -676v-3q0 -5 -3 -8t-8 -3h-124q-9 0 -11 10zM247 221h171q5 0 5 6l-51 297q-1 4 -3 3.5t-3 -3.5l-122 -297q-1 -6 3 -6z
M585 -182q-31 -11 -62 -11q-32 0 -55 15t-28 49l-1 12q0 60 68 112q8 5 15 5h63q8 0 8 -5q0 -4 -6 -10q-54 -38 -54 -71q0 -13 8.5 -20t21.5 -7q9 0 18 3q2 1 6 1q7 0 7 -9l1 -50q0 -11 -10 -14z" />
    <glyph glyph-name="Aring" unicode="&#xc5;" horiz-adv-x="651" 
d="M460 10l-17 98q0 1 -1 2.5t-3 1.5h-239q-3 0 -5 -4l-41 -98q-3 -10 -13 -10h-124q-6 0 -8.5 4t0.5 10l293 676q5 10 14 10h152q9 0 12 -10l126 -676v-3q0 -5 -3 -8t-8 -3h-124q-9 0 -11 10zM247 221h171q5 0 5 6l-51 297q-1 4 -3 3.5t-3 -3.5l-122 -297q-1 -6 3 -6z
M319 779.5q-30 30.5 -30 77.5q0 38 19 70t50.5 51t68.5 19q46 0 76 -30t30 -77q0 -38 -18.5 -70.5t-50.5 -51.5t-68 -19q-47 0 -77 30.5zM444 840q17 17 17 40q0 19 -12.5 31.5t-30.5 12.5q-22 0 -39 -16.5t-17 -40.5q0 -19 12.5 -31.5t31.5 -12.5q21 0 38 17z" />
    <glyph glyph-name="Atilde" unicode="&#xc3;" horiz-adv-x="651" 
d="M460 10l-17 98q0 1 -1 2.5t-3 1.5h-239q-3 0 -5 -4l-41 -98q-3 -10 -13 -10h-124q-6 0 -8.5 4t0.5 10l293 676q5 10 14 10h152q9 0 12 -10l126 -676v-3q0 -5 -3 -8t-8 -3h-124q-9 0 -11 10zM247 221h171q5 0 5 6l-51 297q-1 4 -3 3.5t-3 -3.5l-122 -297q-1 -6 3 -6z
M426.5 763.5q-13.5 4.5 -29.5 13.5q-19 10 -28 13.5t-19 3.5q-31 0 -55 -22q-5 -5 -9 -5t-7 4l-34 44q-4 6 -4 9q0 4 3 8q20 28 49 45t62 17q18 0 31.5 -5t24.5 -10.5t14 -7.5q17 -10 26 -14t20 -4q29 0 50 24q4 5 9 5q4 0 7 -4l31 -45q5 -8 1 -14q-16 -27 -45 -43.5
t-64 -16.5q-20 0 -33.5 4.5z" />
    <glyph glyph-name="AE" unicode="&#xc6;" horiz-adv-x="931" 
d="M943 582.5q-4 -3.5 -9 -3.5h-308q-4 0 -6 -5l-19 -155q0 -5 5 -5h199q5 0 8.5 -3.5t2.5 -8.5l-12 -97q-1 -5 -4.5 -8.5t-8.5 -3.5h-200q-4 0 -6 -5l-20 -162q0 -5 5 -5h308q5 0 8 -3.5t2 -8.5l-12 -97q0 -5 -4 -8.5t-9 -3.5h-438q-5 0 -8 3.5t-2 8.5l11 95q2 5 -4 5h-197
q-4 0 -6 -4l-60 -99q-4 -9 -14 -9h-126q-6 0 -8.5 3.5t1.5 10.5l416 677q6 9 15 9h506q5 0 8 -3.5t2 -8.5l-11 -97q-1 -5 -5 -8.5zM290 222.5q1 -1.5 4 -1.5h142q2 0 3.5 1.5t1.5 3.5l37 301q1 4 -1.5 4t-4.5 -3l-181 -301q-2 -3 -1 -4.5z" />
    <glyph glyph-name="B" unicode="B" horiz-adv-x="601" 
d="M486 359q75 -41 75 -132q0 -9 -2 -31q-12 -97 -82.5 -146.5t-173.5 -49.5h-252q-5 0 -8 3.5t-2 8.5l83 676q1 5 4.5 8.5t8.5 3.5h244q208 0 208 -157q0 -23 -2 -35q-11 -99 -100 -143q-6 -3 -1 -6zM248.5 577.5q-1.5 -1.5 -1.5 -3.5l-19 -156q-2 -5 4 -5h114
q45 0 73 21.5t33 60.5l1 12q0 34 -22.5 53t-64.5 19h-114q-2 0 -3.5 -1.5zM395.5 149.5q28.5 27.5 28.5 75.5q0 35 -22.5 54t-63.5 19h-120q-5 0 -5 -5l-21 -166q0 -5 4 -5h122q49 0 77.5 27.5z" />
    <glyph glyph-name="C" unicode="C" horiz-adv-x="590" 
d="M113 48q-60 56 -60 150q0 24 2 37l28 231q9 72 47 127t99 85t136 30q104 0 164.5 -54t60.5 -144q0 -11 -2 -33q-2 -10 -13 -11l-114 -7h-2q-10 0 -8 11q1 6 1 17q0 46 -27.5 73t-74.5 27q-52 0 -87.5 -32.5t-41.5 -84.5l-30 -241q-1 -6 -1 -17q0 -45 27 -72t75 -27
q52 0 87 32t42 84q2 11 13 11l113 -5q5 0 8 -2.5t2 -7.5q-8 -69 -46 -122t-98.5 -82t-135.5 -29q-104 0 -164 56z" />
    <glyph glyph-name="Cacute" unicode="&#x106;" horiz-adv-x="590" 
d="M113 48q-60 56 -60 150q0 24 2 37l28 231q9 72 47 127t99 85t136 30q104 0 164.5 -54t60.5 -144q0 -11 -2 -33q-2 -10 -13 -11l-114 -7h-2q-10 0 -8 11q1 6 1 17q0 46 -27.5 73t-74.5 27q-52 0 -87.5 -32.5t-41.5 -84.5l-30 -241q-1 -6 -1 -17q0 -45 27 -72t75 -27
q52 0 87 32t42 84q2 11 13 11l113 -5q5 0 8 -2.5t2 -7.5q-8 -69 -46 -122t-98.5 -82t-135.5 -29q-104 0 -164 56zM309 768q0 4 3 8l64 101q4 9 15 9h98q9 0 9 -7q0 -3 -3 -8l-81 -101q-6 -8 -15 -8h-81q-9 0 -9 6z" />
    <glyph glyph-name="Ccaron" unicode="&#x10c;" horiz-adv-x="590" 
d="M113 48q-60 56 -60 150q0 24 2 37l28 231q9 72 47 127t99 85t136 30q104 0 164.5 -54t60.5 -144q0 -11 -2 -33q-2 -10 -13 -11l-114 -7h-2q-10 0 -8 11q1 6 1 17q0 46 -27.5 73t-74.5 27q-52 0 -87.5 -32.5t-41.5 -84.5l-30 -241q-1 -6 -1 -17q0 -45 27 -72t75 -27
q52 0 87 32t42 84q2 11 13 11l113 -5q5 0 8 -2.5t2 -7.5q-8 -69 -46 -122t-98.5 -82t-135.5 -29q-104 0 -164 56zM239 877q0 4 3 6.5t8 2.5h88q9 0 12 -8l32 -61q2 -7 5 0l47 61q5 8 14 8h88q9 0 9 -7q0 -3 -3 -8l-87 -106q-6 -7 -15 -7h-129q-9 0 -12 8l-58 105q-2 4 -2 6z
" />
    <glyph glyph-name="Ccedilla" unicode="&#xc7;" horiz-adv-x="590" 
d="M575 466l-114 -7h-2q-10 0 -8 11q1 6 1 17q0 46 -27.5 73t-74.5 27q-52 0 -87.5 -32.5t-41.5 -84.5l-30 -241q-1 -6 -1 -17q0 -45 27 -72t75 -27q52 0 87 32t42 84q2 11 13 11l113 -5q5 0 8 -2.5t2 -7.5q-12 -96 -78.5 -158.5t-165.5 -72.5q-7 -2 -3 -7q30 -33 30 -73
q0 -19 -7 -36q-13 -34 -40 -49t-60 -15q-30 0 -58 11q-9 3 -7 14l13 50q3 13 16 8q9 -3 18 -3q15 0 26 9t11 27q0 32 -44 68q0 1 -5 3q-71 18 -110.5 69.5t-39.5 127.5q0 24 2 37l28 231q9 72 47 127t99 85t136 30q104 0 164.5 -54t60.5 -144q0 -11 -2 -33v-5q-2 -5 -13 -6z
" />
    <glyph glyph-name="Ccircumflex" unicode="&#x108;" horiz-adv-x="590" 
d="M113 48q-60 56 -60 150q0 24 2 37l28 231q9 72 47 127t99 85t136 30q104 0 164.5 -54t60.5 -144q0 -11 -2 -33q-2 -10 -13 -11l-114 -7h-2q-10 0 -8 11q1 6 1 17q0 46 -27.5 73t-74.5 27q-52 0 -87.5 -32.5t-41.5 -84.5l-30 -241q-1 -6 -1 -17q0 -45 27 -72t75 -27
q52 0 87 32t42 84q2 11 13 11l113 -5q5 0 8 -2.5t2 -7.5q-8 -69 -46 -122t-98.5 -82t-135.5 -29q-104 0 -164 56zM220 765q0 4 3 8l84 105q5 8 14 8h129q9 0 13 -8l61 -105q2 -4 2 -6q0 -4 -3.5 -6.5t-8.5 -2.5h-87q-10 0 -13 8l-31 61q-3 6 -6 0l-46 -61q-6 -8 -15 -8h-87
q-9 0 -9 7z" />
    <glyph glyph-name="Cdotaccent" unicode="&#x10a;" horiz-adv-x="590" 
d="M113 48q-60 56 -60 150q0 24 2 37l28 231q9 72 47 127t99 85t136 30q104 0 164.5 -54t60.5 -144q0 -11 -2 -33q-2 -10 -13 -11l-114 -7h-2q-10 0 -8 11q1 6 1 17q0 46 -27.5 73t-74.5 27q-52 0 -87.5 -32.5t-41.5 -84.5l-30 -241q-1 -6 -1 -17q0 -45 27 -72t75 -27
q52 0 87 32t42 84q2 11 13 11l113 -5q5 0 8 -2.5t2 -7.5q-8 -69 -46 -122t-98.5 -82t-135.5 -29q-104 0 -164 56zM321 777.5q-19 19.5 -19 49.5q0 38 25.5 63.5t62.5 25.5q31 0 49.5 -18.5t18.5 -49.5q0 -38 -26 -64t-62 -26q-30 0 -49 19.5z" />
    <glyph glyph-name="D" unicode="D" horiz-adv-x="599" 
d="M43 3.5q-3 3.5 -2 8.5l83 676q1 5 4.5 8.5t8.5 3.5h243q100 0 159 -49.5t59 -132.5q0 -10 -2 -30l-34 -276q-7 -63 -43 -111t-94.5 -74.5t-130.5 -26.5h-243q-5 0 -8 3.5zM196 121h118q45 0 76 31t38 83l29 230q1 7 1 19q0 44 -23.5 69.5t-65.5 25.5h-117q-2 0 -3.5 -1.5
t-1.5 -3.5l-55 -448q0 -5 4 -5z" />
    <glyph glyph-name="Eth" unicode="&#xd0;" horiz-adv-x="649" 
d="M590 650q59 -50 59 -134q0 -8 -2 -28l-34 -276q-8 -63 -44 -111t-94.5 -74.5t-131.5 -26.5h-242q-5 0 -8 3.5t-2 8.5l36 296q0 5 -4 5h-33q-5 0 -8 3.5t-2 8.5l9 72q0 5 4 8.5t9 3.5h33q5 0 5 5l34 274q1 5 4.5 8.5t8.5 3.5h242q102 0 161 -50zM507 465q1 7 1 21
q0 43 -23.5 68t-65.5 25h-117q-4 0 -6 -5l-19 -160q-2 -5 4 -5h78q5 0 8 -3.5t2 -8.5l-9 -72q-1 -5 -4.5 -8.5t-8.5 -3.5h-78q-5 0 -5 -5l-23 -182q0 -5 5 -5h118q44 0 76 31t39 83z" />
    <glyph glyph-name="Dcaron" unicode="&#x10e;" horiz-adv-x="599" 
d="M43 3.5q-3 3.5 -2 8.5l83 676q1 5 4.5 8.5t8.5 3.5h243q100 0 159 -49.5t59 -132.5q0 -10 -2 -30l-34 -276q-7 -63 -43 -111t-94.5 -74.5t-130.5 -26.5h-243q-5 0 -8 3.5zM196 121h118q45 0 76 31t38 83l29 230q1 7 1 19q0 44 -23.5 69.5t-65.5 25.5h-117q-2 0 -3.5 -1.5
t-1.5 -3.5l-55 -448q0 -5 4 -5zM233 876q0 4 3 6.5t8 2.5h88q9 0 12 -8l32 -61q2 -7 5 0l47 61q5 8 14 8h88q9 0 9 -7q0 -3 -3 -8l-87 -106q-6 -7 -15 -7h-129q-9 0 -12 8l-58 105q-2 4 -2 6z" />
    <glyph glyph-name="Dcroat" unicode="&#x110;" horiz-adv-x="649" 
d="M590 650q59 -50 59 -134q0 -8 -2 -28l-34 -276q-8 -63 -44 -111t-94.5 -74.5t-131.5 -26.5h-242q-5 0 -8 3.5t-2 8.5l36 296q0 5 -4 5h-33q-5 0 -8 3.5t-2 8.5l9 72q0 5 4 8.5t9 3.5h33q5 0 5 5l34 274q1 5 4.5 8.5t8.5 3.5h242q102 0 161 -50zM507 465q1 7 1 21
q0 43 -23.5 68t-65.5 25h-117q-4 0 -6 -5l-19 -160q-2 -5 4 -5h78q5 0 8 -3.5t2 -8.5l-9 -72q-1 -5 -4.5 -8.5t-8.5 -3.5h-78q-5 0 -5 -5l-23 -182q0 -5 5 -5h118q44 0 76 31t39 83z" />
    <glyph glyph-name="E" unicode="E" horiz-adv-x="567" 
d="M579.5 582.5q-3.5 -3.5 -8.5 -3.5h-319q-2 0 -3.5 -1.5t-1.5 -3.5l-19 -155q0 -5 4 -5h209q5 0 8 -3.5t2 -8.5l-12 -97q-1 -5 -4.5 -8.5t-8.5 -3.5h-209q-5 0 -5 -5l-20 -162q0 -5 4 -5h318q11 0 11 -12l-12 -97q-1 -5 -4.5 -8.5t-8.5 -3.5h-449q-5 0 -8 3.5t-2 8.5
l83 676q1 5 4.5 8.5t8.5 3.5h448q5 0 8.5 -3.5t2.5 -8.5l-12 -97q-1 -5 -4.5 -8.5z" />
    <glyph glyph-name="Eacute" unicode="&#xc9;" horiz-adv-x="567" 
d="M579.5 582.5q-3.5 -3.5 -8.5 -3.5h-319q-2 0 -3.5 -1.5t-1.5 -3.5l-19 -155q0 -5 4 -5h209q5 0 8 -3.5t2 -8.5l-12 -97q-1 -5 -4.5 -8.5t-8.5 -3.5h-209q-5 0 -5 -5l-20 -162q0 -5 4 -5h318q11 0 11 -12l-12 -97q-1 -5 -4.5 -8.5t-8.5 -3.5h-449q-5 0 -8 3.5t-2 8.5
l83 676q1 5 4.5 8.5t8.5 3.5h448q5 0 8.5 -3.5t2.5 -8.5l-12 -97q-1 -5 -4.5 -8.5zM303 768q0 4 3 8l64 101q4 9 15 9h98q9 0 9 -7q0 -3 -3 -8l-81 -101q-6 -8 -15 -8h-81q-9 0 -9 6z" />
    <glyph glyph-name="Ecaron" unicode="&#x11a;" horiz-adv-x="567" 
d="M579.5 582.5q-3.5 -3.5 -8.5 -3.5h-319q-2 0 -3.5 -1.5t-1.5 -3.5l-19 -155q0 -5 4 -5h209q5 0 8 -3.5t2 -8.5l-12 -97q-1 -5 -4.5 -8.5t-8.5 -3.5h-209q-5 0 -5 -5l-20 -162q0 -5 4 -5h318q11 0 11 -12l-12 -97q-1 -5 -4.5 -8.5t-8.5 -3.5h-449q-5 0 -8 3.5t-2 8.5
l83 676q1 5 4.5 8.5t8.5 3.5h448q5 0 8.5 -3.5t2.5 -8.5l-12 -97q-1 -5 -4.5 -8.5zM234 877q0 4 3 6.5t8 2.5h88q9 0 12 -8l32 -61q2 -7 5 0l47 61q5 8 14 8h88q9 0 9 -7q0 -3 -3 -8l-87 -106q-6 -7 -15 -7h-129q-9 0 -12 8l-58 105q-2 4 -2 6z" />
    <glyph glyph-name="uni0228" unicode="&#x228;" horiz-adv-x="567" 
d="M579.5 582.5q-3.5 -3.5 -8.5 -3.5h-319q-2 0 -3.5 -1.5t-1.5 -3.5l-19 -155q0 -5 4 -5h209q5 0 8 -3.5t2 -8.5l-12 -97q-1 -5 -4.5 -8.5t-8.5 -3.5h-209q-5 0 -5 -5l-20 -162q0 -5 4 -5h318q11 0 11 -12l-12 -97q-1 -5 -4.5 -8.5t-8.5 -3.5h-159q-2 0 -3.5 -2t0.5 -4
q29 -35 29 -71q0 -18 -8 -37q-13 -34 -40 -49t-59 -15q-30 0 -58 11q-10 3 -7 15l13 49q3 12 15 9q9 -3 19 -3q25 0 34 22q3 7 3 14q0 27 -35 59q-4 2 -5 2h-188q-5 0 -8 3.5t-2 8.5l83 676q1 5 4.5 8.5t8.5 3.5h448q5 0 8.5 -3.5t2.5 -8.5l-12 -97q-1 -5 -4.5 -8.5z" />
    <glyph glyph-name="Ecircumflex" unicode="&#xca;" horiz-adv-x="567" 
d="M579.5 582.5q-3.5 -3.5 -8.5 -3.5h-319q-2 0 -3.5 -1.5t-1.5 -3.5l-19 -155q0 -5 4 -5h209q5 0 8 -3.5t2 -8.5l-12 -97q-1 -5 -4.5 -8.5t-8.5 -3.5h-209q-5 0 -5 -5l-20 -162q0 -5 4 -5h318q11 0 11 -12l-12 -97q-1 -5 -4.5 -8.5t-8.5 -3.5h-449q-5 0 -8 3.5t-2 8.5
l83 676q1 5 4.5 8.5t8.5 3.5h448q5 0 8.5 -3.5t2.5 -8.5l-12 -97q-1 -5 -4.5 -8.5zM215 765q0 4 3 8l84 105q5 8 14 8h129q9 0 13 -8l61 -105q2 -4 2 -6q0 -4 -3.5 -6.5t-8.5 -2.5h-87q-10 0 -13 8l-31 61q-3 6 -6 0l-46 -61q-6 -8 -15 -8h-87q-9 0 -9 7z" />
    <glyph glyph-name="uni1EBE" unicode="&#x1ebe;" horiz-adv-x="567" 
d="M579.5 582.5q-3.5 -3.5 -8.5 -3.5h-319q-2 0 -3.5 -1.5t-1.5 -3.5l-19 -155q0 -5 4 -5h209q5 0 8 -3.5t2 -8.5l-12 -97q-1 -5 -4.5 -8.5t-8.5 -3.5h-209q-5 0 -5 -5l-20 -162q0 -5 4 -5h318q11 0 11 -12l-12 -97q-1 -5 -4.5 -8.5t-8.5 -3.5h-449q-5 0 -8 3.5t-2 8.5
l83 676q1 5 4.5 8.5t8.5 3.5h448q5 0 8.5 -3.5t2.5 -8.5l-12 -97q-1 -5 -4.5 -8.5zM215 765q0 4 3 8l84 105q5 8 14 8h129q9 0 13 -8l61 -105q2 -4 2 -6q0 -4 -3.5 -6.5t-8.5 -2.5h-87q-10 0 -13 8l-31 61q-3 6 -6 0l-46 -61q-6 -8 -15 -8h-87q-9 0 -9 7zM522 843q0 4 3 8
l64 101q4 9 15 9h98q9 0 9 -7q0 -3 -3 -8l-81 -101q-6 -8 -15 -8h-81q-9 0 -9 6z" />
    <glyph glyph-name="uni1EC6" unicode="&#x1ec6;" horiz-adv-x="567" 
d="M579.5 582.5q-3.5 -3.5 -8.5 -3.5h-319q-2 0 -3.5 -1.5t-1.5 -3.5l-19 -155q0 -5 4 -5h209q5 0 8 -3.5t2 -8.5l-12 -97q-1 -5 -4.5 -8.5t-8.5 -3.5h-209q-5 0 -5 -5l-20 -162q0 -5 4 -5h318q11 0 11 -12l-12 -97q-1 -5 -4.5 -8.5t-8.5 -3.5h-449q-5 0 -8 3.5t-2 8.5
l83 676q1 5 4.5 8.5t8.5 3.5h448q5 0 8.5 -3.5t2.5 -8.5l-12 -97q-1 -5 -4.5 -8.5zM207 -198.5q-18 17.5 -18 45.5q0 39 23.5 63t59.5 24q29 0 46.5 -17.5t17.5 -45.5q0 -37 -24 -62t-59 -25q-28 0 -46 17.5zM215 765q0 4 3 8l84 105q5 8 14 8h129q9 0 13 -8l61 -105
q2 -4 2 -6q0 -4 -3.5 -6.5t-8.5 -2.5h-87q-10 0 -13 8l-31 61q-3 6 -6 0l-46 -61q-6 -8 -15 -8h-87q-9 0 -9 7z" />
    <glyph glyph-name="uni1EC0" unicode="&#x1ec0;" horiz-adv-x="567" 
d="M579.5 582.5q-3.5 -3.5 -8.5 -3.5h-319q-2 0 -3.5 -1.5t-1.5 -3.5l-19 -155q0 -5 4 -5h209q5 0 8 -3.5t2 -8.5l-12 -97q-1 -5 -4.5 -8.5t-8.5 -3.5h-209q-5 0 -5 -5l-20 -162q0 -5 4 -5h318q11 0 11 -12l-12 -97q-1 -5 -4.5 -8.5t-8.5 -3.5h-449q-5 0 -8 3.5t-2 8.5
l83 676q1 5 4.5 8.5t8.5 3.5h448q5 0 8.5 -3.5t2.5 -8.5l-12 -97q-1 -5 -4.5 -8.5zM215 765q0 4 3 8l84 105q5 8 14 8h129q9 0 13 -8l61 -105q2 -4 2 -6q0 -4 -3.5 -6.5t-8.5 -2.5h-87q-10 0 -13 8l-31 61q-3 6 -6 0l-46 -61q-6 -8 -15 -8h-87q-9 0 -9 7zM612 889
q0 -4 -3 -6.5t-7 -2.5h-82q-9 0 -12 8l-57 101q-2 4 -2 6q0 4 3.5 6.5t8.5 2.5h98q10 0 13 -9l39 -101q1 -2 1 -5z" />
    <glyph glyph-name="uni1EC2" unicode="&#x1ec2;" horiz-adv-x="567" 
d="M579.5 582.5q-3.5 -3.5 -8.5 -3.5h-319q-2 0 -3.5 -1.5t-1.5 -3.5l-19 -155q0 -5 4 -5h209q5 0 8 -3.5t2 -8.5l-12 -97q-1 -5 -4.5 -8.5t-8.5 -3.5h-209q-5 0 -5 -5l-20 -162q0 -5 4 -5h318q11 0 11 -12l-12 -97q-1 -5 -4.5 -8.5t-8.5 -3.5h-449q-5 0 -8 3.5t-2 8.5
l83 676q1 5 4.5 8.5t8.5 3.5h448q5 0 8.5 -3.5t2.5 -8.5l-12 -97q-1 -5 -4.5 -8.5zM215 765q0 4 3 8l84 105q5 8 14 8h129q9 0 13 -8l61 -105q2 -4 2 -6q0 -4 -3.5 -6.5t-8.5 -2.5h-87q-10 0 -13 8l-31 61q-3 6 -6 0l-46 -61q-6 -8 -15 -8h-87q-9 0 -9 7zM508 883
q14 27 38 49q12 13 17 20.5t6 20.5q1 10 -6 17t-18 7q-13 0 -22.5 -6t-24.5 -24q-4 -5 -9 -6t-9 3l-30 25q-4 3 -4 8t4 9q24 32 48 45.5t59 13.5q40 0 63 -20.5t23 -57.5q0 -29 -11.5 -47.5t-34.5 -39.5q-22 -20 -30 -32q-7 -10 -16 -8l-36 8q-13 3 -7 15z" />
    <glyph glyph-name="uni1EC4" unicode="&#x1ec4;" horiz-adv-x="567" 
d="M579.5 582.5q-3.5 -3.5 -8.5 -3.5h-319q-2 0 -3.5 -1.5t-1.5 -3.5l-19 -155q0 -5 4 -5h209q5 0 8 -3.5t2 -8.5l-12 -97q-1 -5 -4.5 -8.5t-8.5 -3.5h-209q-5 0 -5 -5l-20 -162q0 -5 4 -5h318q11 0 11 -12l-12 -97q-1 -5 -4.5 -8.5t-8.5 -3.5h-449q-5 0 -8 3.5t-2 8.5
l83 676q1 5 4.5 8.5t8.5 3.5h448q5 0 8.5 -3.5t2.5 -8.5l-12 -97q-1 -5 -4.5 -8.5zM215 765q0 4 3 8l84 105q5 8 14 8h129q9 0 13 -8l61 -105q2 -4 2 -6q0 -4 -3.5 -6.5t-8.5 -2.5h-87q-10 0 -13 8l-31 61q-3 6 -6 0l-46 -61q-6 -8 -15 -8h-87q-9 0 -9 7zM414.5 922.5
q-13.5 4.5 -29.5 13.5q-19 10 -28 13.5t-19 3.5q-31 0 -55 -22q-5 -5 -9 -5t-7 4l-34 44q-4 6 -4 9q0 4 3 8q20 28 49 45t62 17q18 0 31.5 -5t24.5 -10.5t14 -7.5q17 -10 26 -14t20 -4q29 0 50 24q4 5 9 5q4 0 7 -4l31 -45q5 -8 1 -14q-16 -27 -45 -43.5t-64 -16.5
q-20 0 -33.5 4.5z" />
    <glyph glyph-name="Edieresis" unicode="&#xcb;" horiz-adv-x="567" 
d="M579.5 582.5q-3.5 -3.5 -8.5 -3.5h-319q-2 0 -3.5 -1.5t-1.5 -3.5l-19 -155q0 -5 4 -5h209q5 0 8 -3.5t2 -8.5l-12 -97q-1 -5 -4.5 -8.5t-8.5 -3.5h-209q-5 0 -5 -5l-20 -162q0 -5 4 -5h318q11 0 11 -12l-12 -97q-1 -5 -4.5 -8.5t-8.5 -3.5h-449q-5 0 -8 3.5t-2 8.5
l83 676q1 5 4.5 8.5t8.5 3.5h448q5 0 8.5 -3.5t2.5 -8.5l-12 -97q-1 -5 -4.5 -8.5zM414 783.5q-19 19.5 -19 49.5q0 38 25.5 63.5t62.5 25.5q31 0 49.5 -18.5t18.5 -49.5q0 -38 -26 -64t-62 -26q-30 0 -49 19.5zM221 783.5q-19 19.5 -19 49.5q0 38 25.5 63.5t62.5 25.5
q31 0 49.5 -18.5t18.5 -49.5q0 -38 -26 -64t-62 -26q-30 0 -49 19.5z" />
    <glyph glyph-name="Edotaccent" unicode="&#x116;" horiz-adv-x="567" 
d="M579.5 582.5q-3.5 -3.5 -8.5 -3.5h-319q-2 0 -3.5 -1.5t-1.5 -3.5l-19 -155q0 -5 4 -5h209q5 0 8 -3.5t2 -8.5l-12 -97q-1 -5 -4.5 -8.5t-8.5 -3.5h-209q-5 0 -5 -5l-20 -162q0 -5 4 -5h318q11 0 11 -12l-12 -97q-1 -5 -4.5 -8.5t-8.5 -3.5h-449q-5 0 -8 3.5t-2 8.5
l83 676q1 5 4.5 8.5t8.5 3.5h448q5 0 8.5 -3.5t2.5 -8.5l-12 -97q-1 -5 -4.5 -8.5zM316 777.5q-19 19.5 -19 49.5q0 38 25.5 63.5t62.5 25.5q31 0 49.5 -18.5t18.5 -49.5q0 -38 -26 -64t-62 -26q-30 0 -49 19.5z" />
    <glyph glyph-name="uni1EB8" unicode="&#x1eb8;" horiz-adv-x="567" 
d="M579.5 582.5q-3.5 -3.5 -8.5 -3.5h-319q-2 0 -3.5 -1.5t-1.5 -3.5l-19 -155q0 -5 4 -5h209q5 0 8 -3.5t2 -8.5l-12 -97q-1 -5 -4.5 -8.5t-8.5 -3.5h-209q-5 0 -5 -5l-20 -162q0 -5 4 -5h318q11 0 11 -12l-12 -97q-1 -5 -4.5 -8.5t-8.5 -3.5h-449q-5 0 -8 3.5t-2 8.5
l83 676q1 5 4.5 8.5t8.5 3.5h448q5 0 8.5 -3.5t2.5 -8.5l-12 -97q-1 -5 -4.5 -8.5zM207 -198.5q-18 17.5 -18 45.5q0 39 23.5 63t59.5 24q29 0 46.5 -17.5t17.5 -45.5q0 -37 -24 -62t-59 -25q-28 0 -46 17.5z" />
    <glyph glyph-name="Egrave" unicode="&#xc8;" horiz-adv-x="567" 
d="M579.5 582.5q-3.5 -3.5 -8.5 -3.5h-319q-2 0 -3.5 -1.5t-1.5 -3.5l-19 -155q0 -5 4 -5h209q5 0 8 -3.5t2 -8.5l-12 -97q-1 -5 -4.5 -8.5t-8.5 -3.5h-209q-5 0 -5 -5l-20 -162q0 -5 4 -5h318q11 0 11 -12l-12 -97q-1 -5 -4.5 -8.5t-8.5 -3.5h-449q-5 0 -8 3.5t-2 8.5
l83 676q1 5 4.5 8.5t8.5 3.5h448q5 0 8.5 -3.5t2.5 -8.5l-12 -97q-1 -5 -4.5 -8.5zM419 771q0 -4 -3 -6.5t-7 -2.5h-82q-9 0 -12 8l-57 101q-2 4 -2 6q0 4 3.5 6.5t8.5 2.5h98q10 0 13 -9l39 -101q1 -2 1 -5z" />
    <glyph glyph-name="uni1EBA" unicode="&#x1eba;" horiz-adv-x="567" 
d="M579.5 582.5q-3.5 -3.5 -8.5 -3.5h-319q-2 0 -3.5 -1.5t-1.5 -3.5l-19 -155q0 -5 4 -5h209q5 0 8 -3.5t2 -8.5l-12 -97q-1 -5 -4.5 -8.5t-8.5 -3.5h-209q-5 0 -5 -5l-20 -162q0 -5 4 -5h318q11 0 11 -12l-12 -97q-1 -5 -4.5 -8.5t-8.5 -3.5h-449q-5 0 -8 3.5t-2 8.5
l83 676q1 5 4.5 8.5t8.5 3.5h448q5 0 8.5 -3.5t2.5 -8.5l-12 -97q-1 -5 -4.5 -8.5zM345 762q14 27 38 49q12 13 17 20.5t6 20.5q1 10 -6 17t-18 7q-13 0 -22.5 -6t-24.5 -24q-4 -5 -9 -6t-9 3l-30 25q-4 3 -4 8t4 9q24 32 48 45.5t59 13.5q40 0 63 -20.5t23 -57.5
q0 -29 -11.5 -47.5t-34.5 -39.5q-22 -20 -30 -32q-7 -10 -16 -8l-36 8q-13 3 -7 15z" />
    <glyph glyph-name="Emacron" unicode="&#x112;" horiz-adv-x="567" 
d="M579.5 582.5q-3.5 -3.5 -8.5 -3.5h-319q-2 0 -3.5 -1.5t-1.5 -3.5l-19 -155q0 -5 4 -5h209q5 0 8 -3.5t2 -8.5l-12 -97q-1 -5 -4.5 -8.5t-8.5 -3.5h-209q-5 0 -5 -5l-20 -162q0 -5 4 -5h318q11 0 11 -12l-12 -97q-1 -5 -4.5 -8.5t-8.5 -3.5h-449q-5 0 -8 3.5t-2 8.5
l83 676q1 5 4.5 8.5t8.5 3.5h448q5 0 8.5 -3.5t2.5 -8.5l-12 -97q-1 -5 -4.5 -8.5zM228 767.5q-3 3.5 -2 8.5l9 71q1 5 4.5 8.5t8.5 3.5h262q5 0 8 -3.5t2 -8.5l-9 -71q-1 -5 -4.5 -8.5t-8.5 -3.5h-262q-5 0 -8 3.5z" />
    <glyph glyph-name="Eogonek" unicode="&#x118;" horiz-adv-x="567" 
d="M579.5 582.5q-3.5 -3.5 -8.5 -3.5h-319q-2 0 -3.5 -1.5t-1.5 -3.5l-19 -155q0 -5 4 -5h209q5 0 8 -3.5t2 -8.5l-12 -97q-1 -5 -4.5 -8.5t-8.5 -3.5h-209q-5 0 -5 -5l-20 -162q0 -5 4 -5h318q11 0 11 -12l-12 -97q-1 -5 -4.5 -8.5t-8.5 -3.5h-176q-2 0 -6 -2
q-24 -17 -38 -35.5t-14 -34.5q0 -13 8.5 -20t21.5 -7q9 0 18 3q2 1 6 1q8 0 8 -9v-50q0 -11 -10 -14q-29 -11 -61 -11q-36 0 -60.5 18t-24.5 59q0 49 50 96q4 2 3 4t-4 2h-170q-5 0 -8 3.5t-2 8.5l83 676q1 5 4.5 8.5t8.5 3.5h448q5 0 8.5 -3.5t2.5 -8.5l-12 -97
q-1 -5 -4.5 -8.5z" />
    <glyph glyph-name="uni1EBC" unicode="&#x1ebc;" horiz-adv-x="567" 
d="M579.5 582.5q-3.5 -3.5 -8.5 -3.5h-319q-2 0 -3.5 -1.5t-1.5 -3.5l-19 -155q0 -5 4 -5h209q5 0 8 -3.5t2 -8.5l-12 -97q-1 -5 -4.5 -8.5t-8.5 -3.5h-209q-5 0 -5 -5l-20 -162q0 -5 4 -5h318q11 0 11 -12l-12 -97q-1 -5 -4.5 -8.5t-8.5 -3.5h-449q-5 0 -8 3.5t-2 8.5
l83 676q1 5 4.5 8.5t8.5 3.5h448q5 0 8.5 -3.5t2.5 -8.5l-12 -97q-1 -5 -4.5 -8.5zM394.5 763.5q-13.5 4.5 -29.5 13.5q-19 10 -28 13.5t-19 3.5q-31 0 -55 -22q-5 -5 -9 -5t-7 4l-34 44q-4 6 -4 9q0 4 3 8q20 28 49 45t62 17q18 0 31.5 -5t24.5 -10.5t14 -7.5
q17 -10 26 -14t20 -4q29 0 50 24q4 5 9 5q4 0 7 -4l31 -45q5 -8 1 -14q-16 -27 -45 -43.5t-64 -16.5q-20 0 -33.5 4.5z" />
    <glyph glyph-name="F" unicode="F" horiz-adv-x="543" 
d="M578.5 582.5q-3.5 -3.5 -8.5 -3.5h-318q-2 0 -3.5 -1.5t-1.5 -3.5l-19 -155q0 -5 4 -5h209q5 0 8 -3.5t2 -8.5l-12 -97q-1 -5 -4.5 -8.5t-8.5 -3.5h-209q-5 0 -5 -5l-34 -276q-1 -5 -4.5 -8.5t-8.5 -3.5h-114q-5 0 -8 3.5t-2 8.5l83 676q1 5 4.5 8.5t8.5 3.5h448
q5 0 8 -3.5t2 -8.5l-12 -97q-1 -5 -4.5 -8.5z" />
    <glyph glyph-name="G" unicode="G" horiz-adv-x="594" 
d="M113.5 49q-60.5 57 -60.5 152q0 24 2 37l28 224q9 73 47 129t99 86.5t136 30.5q68 0 119 -25.5t78.5 -70.5t27.5 -102q0 -10 -2 -28l-1 -7q-1 -5 -4.5 -8.5t-8.5 -3.5h-114q-5 0 -8 3.5t-2 8.5l1 3q1 5 1 14q0 42 -27 68.5t-75 26.5q-52 0 -87.5 -33.5t-42.5 -87.5
l-28 -232q-1 -6 -1 -18q0 -46 29.5 -74.5t76.5 -28.5q51 0 84 27.5t39 76.5l6 45q0 5 -4 5h-109q-5 0 -8 3.5t-2 8.5l11 92q1 5 4.5 8.5t8.5 3.5h237q5 0 8 -3.5t2 -8.5l-16 -132q-14 -115 -90.5 -181t-190.5 -66q-103 0 -163.5 57z" />
    <glyph glyph-name="Gbreve" unicode="&#x11e;" horiz-adv-x="593" 
d="M113.5 49q-60.5 57 -60.5 152q0 24 2 37l28 224q9 73 47 129t99 86.5t136 30.5q68 0 119 -25.5t78.5 -70.5t27.5 -102q0 -10 -2 -28l-1 -7q-1 -5 -4.5 -8.5t-8.5 -3.5h-114q-5 0 -8 3.5t-2 8.5l1 3q1 5 1 14q0 42 -27 68.5t-75 26.5q-52 0 -87.5 -33.5t-42.5 -87.5
l-28 -232q-1 -6 -1 -18q0 -46 29.5 -74.5t76.5 -28.5q51 0 84 27.5t39 76.5l6 45q0 5 -4 5h-109q-5 0 -8 3.5t-2 8.5l11 92q1 5 4.5 8.5t8.5 3.5h237q5 0 8 -3.5t2 -8.5l-16 -132q-14 -115 -90.5 -181t-190.5 -66q-103 0 -163.5 57zM267.5 782q-38.5 33 -36.5 86q0 12 12 12
h65q9 0 11 -11q2 -21 18 -34t41 -13t44.5 13t26.5 34q3 11 13 11h65q5 0 7.5 -3t1.5 -7q-11 -53 -57.5 -87t-109.5 -34t-101.5 33z" />
    <glyph glyph-name="Gcircumflex" unicode="&#x11c;" horiz-adv-x="593" 
d="M113.5 49q-60.5 57 -60.5 152q0 24 2 37l28 224q9 73 47 129t99 86.5t136 30.5q68 0 119 -25.5t78.5 -70.5t27.5 -102q0 -10 -2 -28l-1 -7q-1 -5 -4.5 -8.5t-8.5 -3.5h-114q-5 0 -8 3.5t-2 8.5l1 3q1 5 1 14q0 42 -27 68.5t-75 26.5q-52 0 -87.5 -33.5t-42.5 -87.5
l-28 -232q-1 -6 -1 -18q0 -46 29.5 -74.5t76.5 -28.5q51 0 84 27.5t39 76.5l6 45q0 5 -4 5h-109q-5 0 -8 3.5t-2 8.5l11 92q1 5 4.5 8.5t8.5 3.5h237q5 0 8 -3.5t2 -8.5l-16 -132q-14 -115 -90.5 -181t-190.5 -66q-103 0 -163.5 57zM220 770q0 4 3 8l84 105q5 8 14 8h129
q9 0 13 -8l61 -105q2 -4 2 -6q0 -4 -3.5 -6.5t-8.5 -2.5h-87q-10 0 -13 8l-31 61q-3 6 -6 0l-46 -61q-6 -8 -15 -8h-87q-9 0 -9 7z" />
    <glyph glyph-name="Gdotaccent" unicode="&#x120;" horiz-adv-x="593" 
d="M113.5 49q-60.5 57 -60.5 152q0 24 2 37l28 224q9 73 47 129t99 86.5t136 30.5q68 0 119 -25.5t78.5 -70.5t27.5 -102q0 -10 -2 -28l-1 -7q-1 -5 -4.5 -8.5t-8.5 -3.5h-114q-5 0 -8 3.5t-2 8.5l1 3q1 5 1 14q0 42 -27 68.5t-75 26.5q-52 0 -87.5 -33.5t-42.5 -87.5
l-28 -232q-1 -6 -1 -18q0 -46 29.5 -74.5t76.5 -28.5q51 0 84 27.5t39 76.5l6 45q0 5 -4 5h-109q-5 0 -8 3.5t-2 8.5l11 92q1 5 4.5 8.5t8.5 3.5h237q5 0 8 -3.5t2 -8.5l-16 -132q-14 -115 -90.5 -181t-190.5 -66q-103 0 -163.5 57zM321 782.5q-19 19.5 -19 49.5
q0 38 25.5 63.5t62.5 25.5q31 0 49.5 -18.5t18.5 -49.5q0 -38 -26 -64t-62 -26q-30 0 -49 19.5z" />
    <glyph glyph-name="H" unicode="H" horiz-adv-x="609" 
d="M489.5 696.5q3.5 3.5 8.5 3.5h114q5 0 8 -3.5t2 -8.5l-83 -676q-1 -5 -4.5 -8.5t-8.5 -3.5h-114q-5 0 -8 3.5t-2 8.5l34 276q0 5 -4 5h-215q-5 0 -5 -5l-34 -276q-1 -5 -4.5 -8.5t-8.5 -3.5h-114q-5 0 -8 3.5t-2 8.5l83 676q1 5 4.5 8.5t8.5 3.5h114q5 0 8 -3.5t2 -8.5
l-33 -269q0 -5 4 -5h215q5 0 5 5l33 269q1 5 4.5 8.5z" />
    <glyph glyph-name="Hbar" unicode="&#x126;" horiz-adv-x="609" 
d="M664 598.5q3 -3.5 2 -8.5l-9 -71q0 -5 -4 -8.5t-9 -3.5h-40q-2 0 -3.5 -1.5t-1.5 -3.5l-60 -490q-1 -5 -4.5 -8.5t-8.5 -3.5h-114q-5 0 -8 3.5t-2 8.5l34 276q0 5 -4 5h-215q-5 0 -5 -5l-34 -276q-1 -5 -4.5 -8.5t-8.5 -3.5h-114q-5 0 -8 3.5t-2 8.5l60 490q2 5 -4 5h-40
q-5 0 -8 3.5t-2 8.5l9 71q1 5 4.5 8.5t8.5 3.5h40q5 0 5 5l10 81q1 5 4.5 8.5t8.5 3.5h114q5 0 8 -3.5t2 -8.5l-10 -81q0 -5 4 -5h215q5 0 5 5l10 81q1 5 4.5 8.5t8.5 3.5h114q5 0 8 -3.5t2 -8.5l-10 -81q0 -5 4 -5h40q5 0 8 -3.5zM452 419l10 83q2 5 -4 5h-214q-4 0 -6 -5
l-10 -83q0 -5 4 -5h215q5 0 5 5z" />
    <glyph glyph-name="Hcircumflex" unicode="&#x124;" horiz-adv-x="609" 
d="M489.5 696.5q3.5 3.5 8.5 3.5h114q5 0 8 -3.5t2 -8.5l-83 -676q-1 -5 -4.5 -8.5t-8.5 -3.5h-114q-5 0 -8 3.5t-2 8.5l34 276q0 5 -4 5h-215q-5 0 -5 -5l-34 -276q-1 -5 -4.5 -8.5t-8.5 -3.5h-114q-5 0 -8 3.5t-2 8.5l83 676q1 5 4.5 8.5t8.5 3.5h114q5 0 8 -3.5t2 -8.5
l-33 -269q0 -5 4 -5h215q5 0 5 5l33 269q1 5 4.5 8.5zM232 766q0 4 3 8l84 105q5 8 14 8h129q9 0 13 -8l61 -105q2 -4 2 -6q0 -4 -3.5 -6.5t-8.5 -2.5h-87q-10 0 -13 8l-31 61q-3 6 -6 0l-46 -61q-6 -8 -15 -8h-87q-9 0 -9 7z" />
    <glyph glyph-name="I" unicode="I" horiz-adv-x="255" 
d="M43 3.5q-3 3.5 -2 8.5l83 676q1 5 4.5 8.5t8.5 3.5h114q5 0 8 -3.5t2 -8.5l-83 -676q-1 -5 -4.5 -8.5t-8.5 -3.5h-114q-5 0 -8 3.5z" />
    <glyph glyph-name="Iacute" unicode="&#xcd;" horiz-adv-x="255" 
d="M43 3.5q-3 3.5 -2 8.5l83 676q1 5 4.5 8.5t8.5 3.5h114q5 0 8 -3.5t2 -8.5l-83 -676q-1 -5 -4.5 -8.5t-8.5 -3.5h-114q-5 0 -8 3.5zM139 768q0 4 3 8l64 101q4 9 15 9h98q9 0 9 -7q0 -3 -3 -8l-81 -101q-6 -8 -15 -8h-81q-9 0 -9 6z" />
    <glyph glyph-name="Icircumflex" unicode="&#xce;" horiz-adv-x="255" 
d="M43 3.5q-3 3.5 -2 8.5l83 676q1 5 4.5 8.5t8.5 3.5h114q5 0 8 -3.5t2 -8.5l-83 -676q-1 -5 -4.5 -8.5t-8.5 -3.5h-114q-5 0 -8 3.5zM50 765q0 4 3 8l84 105q5 8 14 8h129q9 0 13 -8l61 -105q2 -4 2 -6q0 -4 -3.5 -6.5t-8.5 -2.5h-87q-10 0 -13 8l-31 61q-3 6 -6 0
l-46 -61q-6 -8 -15 -8h-87q-9 0 -9 7z" />
    <glyph glyph-name="Idieresis" unicode="&#xcf;" horiz-adv-x="255" 
d="M43 3.5q-3 3.5 -2 8.5l83 676q1 5 4.5 8.5t8.5 3.5h114q5 0 8 -3.5t2 -8.5l-83 -676q-1 -5 -4.5 -8.5t-8.5 -3.5h-114q-5 0 -8 3.5zM249 783.5q-19 19.5 -19 49.5q0 38 25.5 63.5t62.5 25.5q31 0 49.5 -18.5t18.5 -49.5q0 -38 -26 -64t-62 -26q-30 0 -49 19.5zM56 783.5
q-19 19.5 -19 49.5q0 38 25.5 63.5t62.5 25.5q31 0 49.5 -18.5t18.5 -49.5q0 -38 -26 -64t-62 -26q-30 0 -49 19.5z" />
    <glyph glyph-name="Idotaccent" unicode="&#x130;" horiz-adv-x="255" 
d="M43 3.5q-3 3.5 -2 8.5l83 676q1 5 4.5 8.5t8.5 3.5h114q5 0 8 -3.5t2 -8.5l-83 -676q-1 -5 -4.5 -8.5t-8.5 -3.5h-114q-5 0 -8 3.5zM152 777.5q-19 19.5 -19 49.5q0 38 25.5 63.5t62.5 25.5q31 0 49.5 -18.5t18.5 -49.5q0 -38 -26 -64t-62 -26q-30 0 -49 19.5z" />
    <glyph glyph-name="uni1ECA" unicode="&#x1eca;" horiz-adv-x="255" 
d="M43 3.5q-3 3.5 -2 8.5l83 676q1 5 4.5 8.5t8.5 3.5h114q5 0 8 -3.5t2 -8.5l-83 -676q-1 -5 -4.5 -8.5t-8.5 -3.5h-114q-5 0 -8 3.5zM35 -198.5q-18 17.5 -18 45.5q0 39 23.5 63t59.5 24q29 0 46.5 -17.5t17.5 -45.5q0 -37 -24 -62t-59 -25q-28 0 -46 17.5z" />
    <glyph glyph-name="Igrave" unicode="&#xcc;" horiz-adv-x="255" 
d="M43 3.5q-3 3.5 -2 8.5l83 676q1 5 4.5 8.5t8.5 3.5h114q5 0 8 -3.5t2 -8.5l-83 -676q-1 -5 -4.5 -8.5t-8.5 -3.5h-114q-5 0 -8 3.5zM254 771q0 -4 -3 -6.5t-7 -2.5h-82q-9 0 -12 8l-57 101q-2 4 -2 6q0 4 3.5 6.5t8.5 2.5h98q10 0 13 -9l39 -101q1 -2 1 -5z" />
    <glyph glyph-name="uni1EC8" unicode="&#x1ec8;" horiz-adv-x="255" 
d="M43 3.5q-3 3.5 -2 8.5l83 676q1 5 4.5 8.5t8.5 3.5h114q5 0 8 -3.5t2 -8.5l-83 -676q-1 -5 -4.5 -8.5t-8.5 -3.5h-114q-5 0 -8 3.5zM180 762q14 27 38 49q12 13 17 20.5t6 20.5q1 10 -6 17t-18 7q-13 0 -22.5 -6t-24.5 -24q-4 -5 -9 -6t-9 3l-30 25q-4 3 -4 8t4 9
q24 32 48 45.5t59 13.5q40 0 63 -20.5t23 -57.5q0 -29 -11.5 -47.5t-34.5 -39.5q-22 -20 -30 -32q-7 -10 -16 -8l-36 8q-13 3 -7 15z" />
    <glyph glyph-name="Imacron" unicode="&#x12a;" horiz-adv-x="255" 
d="M43 3.5q-3 3.5 -2 8.5l83 676q1 5 4.5 8.5t8.5 3.5h114q5 0 8 -3.5t2 -8.5l-83 -676q-1 -5 -4.5 -8.5t-8.5 -3.5h-114q-5 0 -8 3.5zM63 767.5q-3 3.5 -2 8.5l9 71q1 5 4.5 8.5t8.5 3.5h262q5 0 8 -3.5t2 -8.5l-9 -71q-1 -5 -4.5 -8.5t-8.5 -3.5h-262q-5 0 -8 3.5z" />
    <glyph glyph-name="Iogonek" unicode="&#x12e;" horiz-adv-x="247" 
d="M39 3.5q-3 3.5 -2 8.5l83 676q1 5 4.5 8.5t8.5 3.5h114q5 0 8 -3.5t2 -8.5l-83 -676q-1 -5 -4.5 -8.5t-8.5 -3.5h-114q-5 0 -8 3.5zM148 -182q-31 -11 -62 -11q-32 0 -55 15t-28 49l-1 12q0 60 68 112q7 5 15 5h63q8 0 8 -5q0 -4 -6 -10q-54 -38 -54 -71q0 -13 8.5 -20
t21.5 -7q9 0 18 3q2 1 6 1q7 0 7 -9l1 -50q0 -11 -10 -14z" />
    <glyph glyph-name="Itilde" unicode="&#x128;" horiz-adv-x="255" 
d="M43 3.5q-3 3.5 -2 8.5l83 676q1 5 4.5 8.5t8.5 3.5h114q5 0 8 -3.5t2 -8.5l-83 -676q-1 -5 -4.5 -8.5t-8.5 -3.5h-114q-5 0 -8 3.5zM230.5 763.5q-13.5 4.5 -29.5 13.5q-19 10 -28 13.5t-19 3.5q-31 0 -55 -22q-5 -5 -9 -5t-7 4l-34 44q-4 6 -4 9q0 4 3 8q20 28 49 45
t62 17q18 0 31.5 -5t24.5 -10.5t14 -7.5q17 -10 26 -14t20 -4q29 0 50 24q4 5 9 5q4 0 7 -4l31 -45q5 -8 1 -14q-16 -27 -45 -43.5t-64 -16.5q-20 0 -33.5 4.5z" />
    <glyph glyph-name="J" unicode="J" horiz-adv-x="566" 
d="M82.5 44.5q-58.5 52.5 -58.5 141.5q0 10 2 34l8 63q1 5 4.5 8.5t8.5 3.5h113q11 0 11 -12l-8 -63q-1 -6 -1 -18q0 -41 25 -65t69 -24q48 0 82 29.5t40 77.5l58 468q0 5 4 8.5t9 3.5h112q5 0 8 -3.5t2 -8.5l-57 -468q-8 -68 -45.5 -119.5t-96.5 -80t-130 -28.5
q-101 0 -159.5 52.5z" />
    <glyph glyph-name="Jcircumflex" unicode="&#x134;" horiz-adv-x="566" 
d="M82.5 44.5q-58.5 52.5 -58.5 141.5q0 10 2 34l8 63q1 5 4.5 8.5t8.5 3.5h113q11 0 11 -12l-8 -63q-1 -6 -1 -18q0 -41 25 -65t69 -24q48 0 82 29.5t40 77.5l58 468q0 5 4 8.5t9 3.5h112q5 0 8 -3.5t2 -8.5l-57 -468q-8 -68 -45.5 -119.5t-96.5 -80t-130 -28.5
q-101 0 -159.5 52.5zM362 766q0 4 3 8l84 105q5 8 14 8h129q9 0 13 -8l61 -105q2 -4 2 -6q0 -4 -3.5 -6.5t-8.5 -2.5h-87q-10 0 -13 8l-31 61q-3 6 -6 0l-46 -61q-6 -8 -15 -8h-87q-9 0 -9 7z" />
    <glyph glyph-name="K" unicode="K" horiz-adv-x="607" 
d="M43 3.5q-3 3.5 -2 8.5l83 676q1 5 4.5 8.5t8.5 3.5h114q5 0 8 -3.5t2 -8.5l-34 -280q-1 -3 1 -3.5t4 1.5l260 287q6 7 15 7h128q10 0 10 -7q0 -4 -4 -8l-251 -285q-4 -4 -2 -7l182 -379q1 -2 1 -6q0 -8 -10 -8h-128q-10 0 -13 8l-137 288q-1 2 -3 2t-4 -2l-71 -79l-3 -6
l-24 -199q-1 -5 -4.5 -8.5t-8.5 -3.5h-114q-5 0 -8 3.5z" />
    <glyph glyph-name="L" unicode="L" horiz-adv-x="555" 
d="M43 3.5q-3 3.5 -2 8.5l83 676q1 5 4.5 8.5t8.5 3.5h114q5 0 8 -3.5t2 -8.5l-69 -562q0 -5 4 -5h317q11 0 11 -12l-12 -97q-1 -5 -4.5 -8.5t-8.5 -3.5h-448q-5 0 -8 3.5z" />
    <glyph glyph-name="Lacute" unicode="&#x139;" horiz-adv-x="555" 
d="M43 3.5q-3 3.5 -2 8.5l83 676q1 5 4.5 8.5t8.5 3.5h114q5 0 8 -3.5t2 -8.5l-69 -562q0 -5 4 -5h317q11 0 11 -12l-12 -97q-1 -5 -4.5 -8.5t-8.5 -3.5h-448q-5 0 -8 3.5zM138 768q0 4 3 8l64 101q4 9 15 9h98q9 0 9 -7q0 -3 -3 -8l-81 -101q-6 -8 -15 -8h-81q-9 0 -9 6z
" />
    <glyph glyph-name="Lcaron" unicode="&#x13d;" horiz-adv-x="555" 
d="M43 3.5q-3 3.5 -2 8.5l83 676q1 5 4.5 8.5t8.5 3.5h114q5 0 8 -3.5t2 -8.5l-69 -562q0 -5 4 -5h317q11 0 11 -12l-12 -97q-1 -5 -4.5 -8.5t-8.5 -3.5h-448q-5 0 -8 3.5zM310 582q0 4 3 8l64 101q4 9 15 9h98q9 0 9 -7q0 -3 -3 -8l-81 -101q-6 -8 -15 -8h-81q-9 0 -9 6z
" />
    <glyph glyph-name="uni013B" unicode="&#x13b;" horiz-adv-x="555" 
d="M43 3.5q-3 3.5 -2 8.5l83 676q1 5 4.5 8.5t8.5 3.5h114q5 0 8 -3.5t2 -8.5l-69 -562q0 -5 4 -5h317q11 0 11 -12l-12 -97q-1 -5 -4.5 -8.5t-8.5 -3.5h-448q-5 0 -8 3.5zM126 -168q0 4 3 8l64 101q4 9 15 9h98q9 0 9 -7q0 -3 -3 -8l-81 -101q-6 -8 -15 -8h-81q-9 0 -9 6z
" />
    <glyph glyph-name="Lslash" unicode="&#x141;" horiz-adv-x="627" 
d="M269 121h317q5 0 8 -3.5t2 -8.5l-12 -97q0 -5 -4 -8.5t-9 -3.5h-447q-5 0 -8 3.5t-2 8.5l22 181q1 3 -1 4t-4 -1l-81 -62q-6 -4 -8 -4q-5 0 -8 5l-44 63q-2 2 -2 7q0 6 5 10l158 123q4 2 4 6l42 344q1 5 4.5 8.5t8.5 3.5h114q5 0 8 -3.5t2 -8.5l-27 -222q-1 -3 1 -4t4 1
l196 152q6 4 9 4q4 0 7 -5l44 -63q3 -4 3 -8t-6 -9l-273 -213q-4 -2 -4 -6l-23 -189q-2 -5 4 -5z" />
    <glyph glyph-name="M" unicode="M" horiz-adv-x="693" 
d="M576 700h113q5 0 8 -3.5t2 -8.5l-83 -676q0 -5 -4 -8.5t-9 -3.5h-113q-5 0 -8 3.5t-2 8.5l54 441q0 4 -2 4t-4 -3l-123 -166q-6 -8 -15 -8h-57q-9 0 -12 8l-83 166q-1 3 -3 2.5t-3 -4.5l-54 -440q-1 -5 -4.5 -8.5t-8.5 -3.5h-114q-5 0 -8 3.5t-2 8.5l83 676q1 5 4.5 8.5
t8.5 3.5h114q9 0 12 -8l117 -233q3 -6 6 0l175 233q6 8 15 8z" />
    <glyph glyph-name="N" unicode="N" horiz-adv-x="646" 
d="M518.5 696.5q3.5 3.5 8.5 3.5h114q5 0 8 -3.5t2 -8.5l-83 -676q-1 -5 -4.5 -8.5t-8.5 -3.5h-110q-9 0 -12 8l-199 428q-1 3 -3 2.5t-3 -4.5l-50 -422q-1 -5 -4.5 -8.5t-8.5 -3.5h-114q-5 0 -8 3.5t-2 8.5l83 676q1 5 4.5 8.5t8.5 3.5h110q9 0 13 -8l198 -426q1 -3 3 -2.5
t3 4.5l50 420q1 5 4.5 8.5z" />
    <glyph glyph-name="Nacute" unicode="&#x143;" horiz-adv-x="645" 
d="M518.5 696.5q3.5 3.5 8.5 3.5h114q5 0 8 -3.5t2 -8.5l-83 -676q-1 -5 -4.5 -8.5t-8.5 -3.5h-110q-9 0 -12 8l-199 428q-1 3 -3 2.5t-3 -4.5l-50 -422q-1 -5 -4.5 -8.5t-8.5 -3.5h-114q-5 0 -8 3.5t-2 8.5l83 676q1 5 4.5 8.5t8.5 3.5h110q9 0 13 -8l198 -426q1 -3 3 -2.5
t3 4.5l50 420q1 5 4.5 8.5zM327 768q0 4 3 8l64 101q4 9 15 9h98q9 0 9 -7q0 -3 -3 -8l-81 -101q-6 -8 -15 -8h-81q-9 0 -9 6z" />
    <glyph glyph-name="Ncaron" unicode="&#x147;" horiz-adv-x="645" 
d="M518.5 696.5q3.5 3.5 8.5 3.5h114q5 0 8 -3.5t2 -8.5l-83 -676q-1 -5 -4.5 -8.5t-8.5 -3.5h-110q-9 0 -12 8l-199 428q-1 3 -3 2.5t-3 -4.5l-50 -422q-1 -5 -4.5 -8.5t-8.5 -3.5h-114q-5 0 -8 3.5t-2 8.5l83 676q1 5 4.5 8.5t8.5 3.5h110q9 0 13 -8l198 -426q1 -3 3 -2.5
t3 4.5l50 420q1 5 4.5 8.5zM257 877q0 4 3 6.5t8 2.5h88q9 0 12 -8l32 -61q2 -7 5 0l47 61q5 8 14 8h88q9 0 9 -7q0 -3 -3 -8l-87 -106q-6 -7 -15 -7h-129q-9 0 -12 8l-58 105q-2 4 -2 6z" />
    <glyph glyph-name="Eng" unicode="&#x14a;" horiz-adv-x="645" 
d="M518.5 696.5q3.5 3.5 8.5 3.5h114q5 0 8 -3.5t2 -8.5l-85 -688q-11 -73 -37.5 -112.5t-78 -56t-140.5 -14.5q-12 0 -10 12l12 94q2 13 13 11q53 -2 75.5 15t30.5 60l-1 6l-196 421q-1 3 -3 2.5t-3 -4.5l-50 -422q-1 -5 -4.5 -8.5t-8.5 -3.5h-114q-5 0 -8 3.5t-2 8.5
l83 676q1 5 4.5 8.5t8.5 3.5h110q9 0 13 -8l197 -425q1 -3 3 -2.5t3 4.5l51 419q1 5 4.5 8.5z" />
    <glyph glyph-name="Ntilde" unicode="&#xd1;" horiz-adv-x="645" 
d="M518.5 696.5q3.5 3.5 8.5 3.5h114q5 0 8 -3.5t2 -8.5l-83 -676q-1 -5 -4.5 -8.5t-8.5 -3.5h-110q-9 0 -12 8l-199 428q-1 3 -3 2.5t-3 -4.5l-50 -422q-1 -5 -4.5 -8.5t-8.5 -3.5h-114q-5 0 -8 3.5t-2 8.5l83 676q1 5 4.5 8.5t8.5 3.5h110q9 0 13 -8l198 -426q1 -3 3 -2.5
t3 4.5l50 420q1 5 4.5 8.5zM418.5 763.5q-13.5 4.5 -29.5 13.5q-19 10 -28 13.5t-19 3.5q-31 0 -55 -22q-5 -5 -9 -5t-7 4l-34 44q-4 6 -4 9q0 4 3 8q20 28 49 45t62 17q18 0 31.5 -5t24.5 -10.5t14 -7.5q17 -10 26 -14t20 -4q29 0 50 24q4 5 9 5q4 0 7 -4l31 -45
q5 -8 1 -14q-16 -27 -45 -43.5t-64 -16.5q-20 0 -33.5 4.5z" />
    <glyph glyph-name="O" unicode="O" horiz-adv-x="603" 
d="M114.5 47.5q-61.5 58.5 -61.5 156.5q0 18 3 39l26 214q9 74 48 131t100.5 88.5t137.5 31.5q105 0 166.5 -58t61.5 -154q0 -19 -3 -39l-26 -214q-9 -75 -48 -132.5t-101 -89.5t-138 -32q-104 0 -165.5 58.5zM385.5 145q36.5 35 44.5 93l27 220q1 7 1 21q0 50 -28 79
t-77 29q-53 0 -90 -35.5t-44 -93.5l-27 -220q-1 -7 -1 -21q0 -49 28 -78t76 -29q54 0 90.5 35z" />
    <glyph glyph-name="Oacute" unicode="&#xd3;" horiz-adv-x="603" 
d="M114.5 47.5q-61.5 58.5 -61.5 156.5q0 18 3 39l26 214q9 74 48 131t100.5 88.5t137.5 31.5q105 0 166.5 -58t61.5 -154q0 -19 -3 -39l-26 -214q-9 -75 -48 -132.5t-101 -89.5t-138 -32q-104 0 -165.5 58.5zM385.5 145q36.5 35 44.5 93l27 220q1 7 1 21q0 50 -28 79
t-77 29q-53 0 -90 -35.5t-44 -93.5l-27 -220q-1 -7 -1 -21q0 -49 28 -78t76 -29q54 0 90.5 35zM312 768q0 4 3 8l64 101q4 9 15 9h98q9 0 9 -7q0 -3 -3 -8l-81 -101q-6 -8 -15 -8h-81q-9 0 -9 6z" />
    <glyph glyph-name="Ocircumflex" unicode="&#xd4;" horiz-adv-x="603" 
d="M114.5 47.5q-61.5 58.5 -61.5 156.5q0 18 3 39l26 214q9 74 48 131t100.5 88.5t137.5 31.5q105 0 166.5 -58t61.5 -154q0 -19 -3 -39l-26 -214q-9 -75 -48 -132.5t-101 -89.5t-138 -32q-104 0 -165.5 58.5zM385.5 145q36.5 35 44.5 93l27 220q1 7 1 21q0 50 -28 79
t-77 29q-53 0 -90 -35.5t-44 -93.5l-27 -220q-1 -7 -1 -21q0 -49 28 -78t76 -29q54 0 90.5 35zM223 765q0 4 3 8l84 105q5 8 14 8h129q9 0 13 -8l61 -105q2 -4 2 -6q0 -4 -3.5 -6.5t-8.5 -2.5h-87q-10 0 -13 8l-31 61q-3 6 -6 0l-46 -61q-6 -8 -15 -8h-87q-9 0 -9 7z" />
    <glyph glyph-name="uni1ED0" unicode="&#x1ed0;" horiz-adv-x="603" 
d="M114.5 47.5q-61.5 58.5 -61.5 156.5q0 18 3 39l26 214q9 74 48 131t100.5 88.5t137.5 31.5q105 0 166.5 -58t61.5 -154q0 -19 -3 -39l-26 -214q-9 -75 -48 -132.5t-101 -89.5t-138 -32q-104 0 -165.5 58.5zM385.5 145q36.5 35 44.5 93l27 220q1 7 1 21q0 50 -28 79
t-77 29q-53 0 -90 -35.5t-44 -93.5l-27 -220q-1 -7 -1 -21q0 -49 28 -78t76 -29q54 0 90.5 35zM223 765q0 4 3 8l84 105q5 8 14 8h129q9 0 13 -8l61 -105q2 -4 2 -6q0 -4 -3.5 -6.5t-8.5 -2.5h-87q-10 0 -13 8l-31 61q-3 6 -6 0l-46 -61q-6 -8 -15 -8h-87q-9 0 -9 7z
M530 843q0 4 3 8l64 101q4 9 15 9h98q9 0 9 -7q0 -3 -3 -8l-81 -101q-6 -8 -15 -8h-81q-9 0 -9 6z" />
    <glyph glyph-name="uni1ED8" unicode="&#x1ed8;" horiz-adv-x="603" 
d="M114.5 47.5q-61.5 58.5 -61.5 156.5q0 18 3 39l26 214q9 74 48 131t100.5 88.5t137.5 31.5q105 0 166.5 -58t61.5 -154q0 -19 -3 -39l-26 -214q-9 -75 -48 -132.5t-101 -89.5t-138 -32q-104 0 -165.5 58.5zM385.5 145q36.5 35 44.5 93l27 220q1 7 1 21q0 50 -28 79
t-77 29q-53 0 -90 -35.5t-44 -93.5l-27 -220q-1 -7 -1 -21q0 -49 28 -78t76 -29q54 0 90.5 35zM209 -198.5q-18 17.5 -18 45.5q0 39 23.5 63t59.5 24q29 0 46.5 -17.5t17.5 -45.5q0 -37 -24 -62t-59 -25q-28 0 -46 17.5zM223 765q0 4 3 8l84 105q5 8 14 8h129q9 0 13 -8
l61 -105q2 -4 2 -6q0 -4 -3.5 -6.5t-8.5 -2.5h-87q-10 0 -13 8l-31 61q-3 6 -6 0l-46 -61q-6 -8 -15 -8h-87q-9 0 -9 7z" />
    <glyph glyph-name="uni1ED2" unicode="&#x1ed2;" horiz-adv-x="603" 
d="M114.5 47.5q-61.5 58.5 -61.5 156.5q0 18 3 39l26 214q9 74 48 131t100.5 88.5t137.5 31.5q105 0 166.5 -58t61.5 -154q0 -19 -3 -39l-26 -214q-9 -75 -48 -132.5t-101 -89.5t-138 -32q-104 0 -165.5 58.5zM385.5 145q36.5 35 44.5 93l27 220q1 7 1 21q0 50 -28 79
t-77 29q-53 0 -90 -35.5t-44 -93.5l-27 -220q-1 -7 -1 -21q0 -49 28 -78t76 -29q54 0 90.5 35zM223 765q0 4 3 8l84 105q5 8 14 8h129q9 0 13 -8l61 -105q2 -4 2 -6q0 -4 -3.5 -6.5t-8.5 -2.5h-87q-10 0 -13 8l-31 61q-3 6 -6 0l-46 -61q-6 -8 -15 -8h-87q-9 0 -9 7z
M620 889q0 -4 -3 -6.5t-7 -2.5h-82q-9 0 -12 8l-57 101q-2 4 -2 6q0 4 3.5 6.5t8.5 2.5h98q10 0 13 -9l39 -101q1 -2 1 -5z" />
    <glyph glyph-name="uni1ED4" unicode="&#x1ed4;" horiz-adv-x="603" 
d="M114.5 47.5q-61.5 58.5 -61.5 156.5q0 18 3 39l26 214q9 74 48 131t100.5 88.5t137.5 31.5q105 0 166.5 -58t61.5 -154q0 -19 -3 -39l-26 -214q-9 -75 -48 -132.5t-101 -89.5t-138 -32q-104 0 -165.5 58.5zM385.5 145q36.5 35 44.5 93l27 220q1 7 1 21q0 50 -28 79
t-77 29q-53 0 -90 -35.5t-44 -93.5l-27 -220q-1 -7 -1 -21q0 -49 28 -78t76 -29q54 0 90.5 35zM223 765q0 4 3 8l84 105q5 8 14 8h129q9 0 13 -8l61 -105q2 -4 2 -6q0 -4 -3.5 -6.5t-8.5 -2.5h-87q-10 0 -13 8l-31 61q-3 6 -6 0l-46 -61q-6 -8 -15 -8h-87q-9 0 -9 7z
M516 883q14 27 38 49q12 13 17 20.5t6 20.5q1 10 -6 17t-18 7q-13 0 -22.5 -6t-24.5 -24q-4 -5 -9 -6t-9 3l-30 25q-4 3 -4 8t4 9q24 32 48 45.5t59 13.5q40 0 63 -20.5t23 -57.5q0 -29 -11.5 -47.5t-34.5 -39.5q-22 -20 -30 -32q-7 -10 -16 -8l-36 8q-13 3 -7 15z" />
    <glyph glyph-name="uni1ED6" unicode="&#x1ed6;" horiz-adv-x="603" 
d="M114.5 47.5q-61.5 58.5 -61.5 156.5q0 18 3 39l26 214q9 74 48 131t100.5 88.5t137.5 31.5q105 0 166.5 -58t61.5 -154q0 -19 -3 -39l-26 -214q-9 -75 -48 -132.5t-101 -89.5t-138 -32q-104 0 -165.5 58.5zM385.5 145q36.5 35 44.5 93l27 220q1 7 1 21q0 50 -28 79
t-77 29q-53 0 -90 -35.5t-44 -93.5l-27 -220q-1 -7 -1 -21q0 -49 28 -78t76 -29q54 0 90.5 35zM223 765q0 4 3 8l84 105q5 8 14 8h129q9 0 13 -8l61 -105q2 -4 2 -6q0 -4 -3.5 -6.5t-8.5 -2.5h-87q-10 0 -13 8l-31 61q-3 6 -6 0l-46 -61q-6 -8 -15 -8h-87q-9 0 -9 7z
M422.5 922.5q-13.5 4.5 -29.5 13.5q-19 10 -28 13.5t-19 3.5q-31 0 -55 -22q-5 -5 -9 -5t-7 4l-34 44q-4 6 -4 9q0 4 3 8q20 28 49 45t62 17q18 0 31.5 -5t24.5 -10.5t14 -7.5q17 -10 26 -14t20 -4q29 0 50 24q4 5 9 5q4 0 7 -4l31 -45q5 -8 1 -14q-16 -27 -45 -43.5
t-64 -16.5q-20 0 -33.5 4.5z" />
    <glyph glyph-name="Odieresis" unicode="&#xd6;" horiz-adv-x="603" 
d="M114.5 47.5q-61.5 58.5 -61.5 156.5q0 18 3 39l26 214q9 74 48 131t100.5 88.5t137.5 31.5q105 0 166.5 -58t61.5 -154q0 -19 -3 -39l-26 -214q-9 -75 -48 -132.5t-101 -89.5t-138 -32q-104 0 -165.5 58.5zM385.5 145q36.5 35 44.5 93l27 220q1 7 1 21q0 50 -28 79
t-77 29q-53 0 -90 -35.5t-44 -93.5l-27 -220q-1 -7 -1 -21q0 -49 28 -78t76 -29q54 0 90.5 35zM422 783.5q-19 19.5 -19 49.5q0 38 25.5 63.5t62.5 25.5q31 0 49.5 -18.5t18.5 -49.5q0 -38 -26 -64t-62 -26q-30 0 -49 19.5zM229 783.5q-19 19.5 -19 49.5q0 38 25.5 63.5
t62.5 25.5q31 0 49.5 -18.5t18.5 -49.5q0 -38 -26 -64t-62 -26q-30 0 -49 19.5z" />
    <glyph glyph-name="uni1ECC" unicode="&#x1ecc;" horiz-adv-x="603" 
d="M114.5 47.5q-61.5 58.5 -61.5 156.5q0 18 3 39l26 214q9 74 48 131t100.5 88.5t137.5 31.5q105 0 166.5 -58t61.5 -154q0 -19 -3 -39l-26 -214q-9 -75 -48 -132.5t-101 -89.5t-138 -32q-104 0 -165.5 58.5zM385.5 145q36.5 35 44.5 93l27 220q1 7 1 21q0 50 -28 79
t-77 29q-53 0 -90 -35.5t-44 -93.5l-27 -220q-1 -7 -1 -21q0 -49 28 -78t76 -29q54 0 90.5 35zM209 -198.5q-18 17.5 -18 45.5q0 39 23.5 63t59.5 24q29 0 46.5 -17.5t17.5 -45.5q0 -37 -24 -62t-59 -25q-28 0 -46 17.5z" />
    <glyph glyph-name="Ograve" unicode="&#xd2;" horiz-adv-x="603" 
d="M114.5 47.5q-61.5 58.5 -61.5 156.5q0 18 3 39l26 214q9 74 48 131t100.5 88.5t137.5 31.5q105 0 166.5 -58t61.5 -154q0 -19 -3 -39l-26 -214q-9 -75 -48 -132.5t-101 -89.5t-138 -32q-104 0 -165.5 58.5zM385.5 145q36.5 35 44.5 93l27 220q1 7 1 21q0 50 -28 79
t-77 29q-53 0 -90 -35.5t-44 -93.5l-27 -220q-1 -7 -1 -21q0 -49 28 -78t76 -29q54 0 90.5 35zM427 771q0 -4 -3 -6.5t-7 -2.5h-82q-9 0 -12 8l-57 101q-2 4 -2 6q0 4 3.5 6.5t8.5 2.5h98q10 0 13 -9l39 -101q1 -2 1 -5z" />
    <glyph glyph-name="uni1ECE" unicode="&#x1ece;" horiz-adv-x="603" 
d="M114.5 47.5q-61.5 58.5 -61.5 156.5q0 18 3 39l26 214q9 74 48 131t100.5 88.5t137.5 31.5q105 0 166.5 -58t61.5 -154q0 -19 -3 -39l-26 -214q-9 -75 -48 -132.5t-101 -89.5t-138 -32q-104 0 -165.5 58.5zM385.5 145q36.5 35 44.5 93l27 220q1 7 1 21q0 50 -28 79
t-77 29q-53 0 -90 -35.5t-44 -93.5l-27 -220q-1 -7 -1 -21q0 -49 28 -78t76 -29q54 0 90.5 35zM353 762q14 27 38 49q12 13 17 20.5t6 20.5q1 10 -6 17t-18 7q-13 0 -22.5 -6t-24.5 -24q-4 -5 -9 -6t-9 3l-30 25q-4 3 -4 8t4 9q24 32 48 45.5t59 13.5q40 0 63 -20.5
t23 -57.5q0 -29 -11.5 -47.5t-34.5 -39.5q-22 -20 -30 -32q-7 -10 -16 -8l-36 8q-13 3 -7 15z" />
    <glyph glyph-name="Ohorn" unicode="&#x1a0;" horiz-adv-x="603" 
d="M545.5 640.5q-0.5 -1.5 1.5 -3.5q49 -55 49 -140q0 -19 -3 -40l-26 -214q-9 -75 -48 -132.5t-101 -89.5t-138 -32q-104 0 -165.5 58.5t-61.5 156.5q0 18 3 39l26 214q9 74 48 131t100.5 88.5t137.5 31.5q61 0 107 -20q6 -1 6 0q2 11 13 13q64 7 78 74q2 12 14 12h60
q5 0 7.5 -4.5t1.5 -12.5q-10 -48 -38 -80t-68 -47q-3 -1 -3.5 -2.5zM457 458q1 7 1 21q0 50 -28 79t-77 29q-53 0 -90 -35.5t-44 -93.5l-27 -220q-1 -7 -1 -21q0 -49 28 -78t76 -29q54 0 90.5 35t44.5 93z" />
    <glyph glyph-name="uni1EDA" unicode="&#x1eda;" horiz-adv-x="603" 
d="M545.5 640.5q-0.5 -1.5 1.5 -3.5q49 -55 49 -140q0 -19 -3 -40l-26 -214q-9 -75 -48 -132.5t-101 -89.5t-138 -32q-104 0 -165.5 58.5t-61.5 156.5q0 18 3 39l26 214q9 74 48 131t100.5 88.5t137.5 31.5q61 0 107 -20q6 -1 6 0q2 11 13 13q64 7 78 74q2 12 14 12h60
q5 0 7.5 -4.5t1.5 -12.5q-10 -48 -38 -80t-68 -47q-3 -1 -3.5 -2.5zM457 458q1 7 1 21q0 50 -28 79t-77 29q-53 0 -90 -35.5t-44 -93.5l-27 -220q-1 -7 -1 -21q0 -49 28 -78t76 -29q54 0 90.5 35t44.5 93zM312 768q0 4 3 8l64 101q4 9 15 9h98q9 0 9 -7q0 -3 -3 -8l-81 -101
q-6 -8 -15 -8h-81q-9 0 -9 6z" />
    <glyph glyph-name="uni1EE2" unicode="&#x1ee2;" horiz-adv-x="603" 
d="M545.5 640.5q-0.5 -1.5 1.5 -3.5q49 -55 49 -140q0 -19 -3 -40l-26 -214q-9 -75 -48 -132.5t-101 -89.5t-138 -32q-104 0 -165.5 58.5t-61.5 156.5q0 18 3 39l26 214q9 74 48 131t100.5 88.5t137.5 31.5q61 0 107 -20q6 -1 6 0q2 11 13 13q64 7 78 74q2 12 14 12h60
q5 0 7.5 -4.5t1.5 -12.5q-10 -48 -38 -80t-68 -47q-3 -1 -3.5 -2.5zM457 458q1 7 1 21q0 50 -28 79t-77 29q-53 0 -90 -35.5t-44 -93.5l-27 -220q-1 -7 -1 -21q0 -49 28 -78t76 -29q54 0 90.5 35t44.5 93zM209 -198.5q-18 17.5 -18 45.5q0 39 23.5 63t59.5 24
q29 0 46.5 -17.5t17.5 -45.5q0 -37 -24 -62t-59 -25q-28 0 -46 17.5z" />
    <glyph glyph-name="uni1EDC" unicode="&#x1edc;" horiz-adv-x="603" 
d="M545.5 640.5q-0.5 -1.5 1.5 -3.5q49 -55 49 -140q0 -19 -3 -40l-26 -214q-9 -75 -48 -132.5t-101 -89.5t-138 -32q-104 0 -165.5 58.5t-61.5 156.5q0 18 3 39l26 214q9 74 48 131t100.5 88.5t137.5 31.5q61 0 107 -20q6 -1 6 0q2 11 13 13q64 7 78 74q2 12 14 12h60
q5 0 7.5 -4.5t1.5 -12.5q-10 -48 -38 -80t-68 -47q-3 -1 -3.5 -2.5zM457 458q1 7 1 21q0 50 -28 79t-77 29q-53 0 -90 -35.5t-44 -93.5l-27 -220q-1 -7 -1 -21q0 -49 28 -78t76 -29q54 0 90.5 35t44.5 93zM427 771q0 -4 -3 -6.5t-7 -2.5h-82q-9 0 -12 8l-57 101q-2 4 -2 6
q0 4 3.5 6.5t8.5 2.5h98q10 0 13 -9l39 -101q1 -2 1 -5z" />
    <glyph glyph-name="uni1EDE" unicode="&#x1ede;" horiz-adv-x="603" 
d="M545.5 640.5q-0.5 -1.5 1.5 -3.5q49 -55 49 -140q0 -19 -3 -40l-26 -214q-9 -75 -48 -132.5t-101 -89.5t-138 -32q-104 0 -165.5 58.5t-61.5 156.5q0 18 3 39l26 214q9 74 48 131t100.5 88.5t137.5 31.5q61 0 107 -20q6 -1 6 0q2 11 13 13q64 7 78 74q2 12 14 12h60
q5 0 7.5 -4.5t1.5 -12.5q-10 -48 -38 -80t-68 -47q-3 -1 -3.5 -2.5zM457 458q1 7 1 21q0 50 -28 79t-77 29q-53 0 -90 -35.5t-44 -93.5l-27 -220q-1 -7 -1 -21q0 -49 28 -78t76 -29q54 0 90.5 35t44.5 93zM353 762q14 27 38 49q12 13 17 20.5t6 20.5q1 10 -6 17t-18 7
q-13 0 -22.5 -6t-24.5 -24q-4 -5 -9 -6t-9 3l-30 25q-4 3 -4 8t4 9q24 32 48 45.5t59 13.5q40 0 63 -20.5t23 -57.5q0 -29 -11.5 -47.5t-34.5 -39.5q-22 -20 -30 -32q-7 -10 -16 -8l-36 8q-13 3 -7 15z" />
    <glyph glyph-name="uni1EE0" unicode="&#x1ee0;" horiz-adv-x="603" 
d="M545.5 640.5q-0.5 -1.5 1.5 -3.5q49 -55 49 -140q0 -19 -3 -40l-26 -214q-9 -75 -48 -132.5t-101 -89.5t-138 -32q-104 0 -165.5 58.5t-61.5 156.5q0 18 3 39l26 214q9 74 48 131t100.5 88.5t137.5 31.5q61 0 107 -20q6 -1 6 0q2 11 13 13q64 7 78 74q2 12 14 12h60
q5 0 7.5 -4.5t1.5 -12.5q-10 -48 -38 -80t-68 -47q-3 -1 -3.5 -2.5zM457 458q1 7 1 21q0 50 -28 79t-77 29q-53 0 -90 -35.5t-44 -93.5l-27 -220q-1 -7 -1 -21q0 -49 28 -78t76 -29q54 0 90.5 35t44.5 93zM385.5 784.5q-13.5 4.5 -29.5 13.5q-19 10 -28 13.5t-19 3.5
q-31 0 -55 -22q-5 -5 -9 -5t-7 4l-34 44q-4 6 -4 9q0 4 3 8q20 28 49 45t62 17q18 0 31.5 -5t24.5 -10.5t14 -7.5q17 -10 26 -14t20 -4q29 0 50 24q4 5 9 5q4 0 7 -4l31 -45q5 -8 1 -14q-16 -27 -45 -43.5t-64 -16.5q-20 0 -33.5 4.5z" />
    <glyph glyph-name="Ohungarumlaut" unicode="&#x150;" horiz-adv-x="603" 
d="M114.5 47.5q-61.5 58.5 -61.5 156.5q0 18 3 39l26 214q9 74 48 131t100.5 88.5t137.5 31.5q105 0 166.5 -58t61.5 -154q0 -19 -3 -39l-26 -214q-9 -75 -48 -132.5t-101 -89.5t-138 -32q-104 0 -165.5 58.5zM385.5 145q36.5 35 44.5 93l27 220q1 7 1 21q0 50 -28 79
t-77 29q-53 0 -90 -35.5t-44 -93.5l-27 -220q-1 -7 -1 -21q0 -49 28 -78t76 -29q54 0 90.5 35zM238 766q-3 4 1 10l58 101q5 9 15 9h100q7 0 9 -4t-2 -10l-64 -101q-6 -9 -16 -9h-92q-6 0 -9 4zM411 766q-2 4 2 10l64 101q2 4 6.5 6.5t8.5 2.5h94q6 0 7.5 -4t-1.5 -10
l-64 -101q-6 -9 -16 -9h-92q-7 0 -9 4z" />
    <glyph glyph-name="Omacron" unicode="&#x14c;" horiz-adv-x="603" 
d="M114.5 47.5q-61.5 58.5 -61.5 156.5q0 18 3 39l26 214q9 74 48 131t100.5 88.5t137.5 31.5q105 0 166.5 -58t61.5 -154q0 -19 -3 -39l-26 -214q-9 -75 -48 -132.5t-101 -89.5t-138 -32q-104 0 -165.5 58.5zM385.5 145q36.5 35 44.5 93l27 220q1 7 1 21q0 50 -28 79
t-77 29q-53 0 -90 -35.5t-44 -93.5l-27 -220q-1 -7 -1 -21q0 -49 28 -78t76 -29q54 0 90.5 35zM236 767.5q-3 3.5 -2 8.5l9 71q1 5 4.5 8.5t8.5 3.5h262q5 0 8 -3.5t2 -8.5l-9 -71q-1 -5 -4.5 -8.5t-8.5 -3.5h-262q-5 0 -8 3.5z" />
    <glyph glyph-name="Oslash" unicode="&#xd8;" horiz-adv-x="596" 
d="M638 669q0 -5 -4 -10l-58 -75q-1 -2 -1 -7q14 -39 14 -83q0 -11 -2 -37l-27 -214q-9 -75 -48 -132.5t-101 -89.5t-138 -32q-77 0 -131 33q-2 1 -7 -2l-42 -56q-4 -5 -8.5 -6t-8.5 3l-73 63q-4 4 -4 8q0 3 4 9l57 73q1 2 1 7q-14 39 -14 85q0 11 2 37l27 214
q9 74 47.5 131t100 88.5t137.5 31.5q78 0 131 -32q4 -1 7 2l44 58q4 5 8.5 6t8.5 -3l74 -63q4 -3 4 -7zM450 458q1 8 1 22q0 49 -28 78t-76 29q-53 0 -90.5 -35.5t-44.5 -93.5l-27 -220q-1 -7 -1 -21q0 -49 28 -78t76 -29q54 0 91 35t44 93z" />
    <glyph glyph-name="Otilde" unicode="&#xd5;" horiz-adv-x="603" 
d="M114.5 47.5q-61.5 58.5 -61.5 156.5q0 18 3 39l26 214q9 74 48 131t100.5 88.5t137.5 31.5q105 0 166.5 -58t61.5 -154q0 -19 -3 -39l-26 -214q-9 -75 -48 -132.5t-101 -89.5t-138 -32q-104 0 -165.5 58.5zM385.5 145q36.5 35 44.5 93l27 220q1 7 1 21q0 50 -28 79
t-77 29q-53 0 -90 -35.5t-44 -93.5l-27 -220q-1 -7 -1 -21q0 -49 28 -78t76 -29q54 0 90.5 35zM403.5 763.5q-13.5 4.5 -29.5 13.5q-19 10 -28 13.5t-19 3.5q-31 0 -55 -22q-5 -5 -9 -5t-7 4l-34 44q-4 6 -4 9q0 4 3 8q20 28 49 45t62 17q18 0 31.5 -5t24.5 -10.5t14 -7.5
q17 -10 26 -14t20 -4q29 0 50 24q4 5 9 5q4 0 7 -4l31 -45q5 -8 1 -14q-16 -27 -45 -43.5t-64 -16.5q-20 0 -33.5 4.5z" />
    <glyph glyph-name="OE" unicode="&#x152;" horiz-adv-x="902" 
d="M915 582.5q-4 -3.5 -9 -3.5h-303q-4 0 -6 -5l-19 -155q0 -5 4 -5h194q11 0 11 -12l-12 -97q-1 -5 -4.5 -8.5t-8.5 -3.5h-194q-6 0 -6 -5l-20 -162q0 -5 4 -5h304q5 0 8 -3.5t2 -8.5l-12 -97q-1 -5 -4.5 -8.5t-8.5 -3.5h-433q-11 0 -11 12l3 21q0 3 -1.5 4t-3.5 -1
q-34 -23 -72.5 -35t-77.5 -12q-53 0 -95.5 26.5t-66.5 74t-24 108.5q0 26 2 39l28 225q9 71 44.5 127t88.5 87.5t111 31.5q39 0 75 -12t63 -35q2 -1 4 0t3 4l2 23q1 5 5 8.5t9 3.5h433q5 0 8 -3.5t2 -8.5l-12 -97q0 -5 -4 -8.5zM376 144.5q36 34.5 43 88.5l28 231q1 7 1 20
q0 46 -27 74.5t-73 28.5q-50 0 -85.5 -34.5t-42.5 -88.5l-28 -231q-1 -7 -1 -20q0 -46 26.5 -74.5t71.5 -28.5q51 0 87 34.5z" />
    <glyph glyph-name="P" unicode="P" horiz-adv-x="579" 
d="M544.5 651.5q51.5 -49.5 51.5 -133.5q0 -10 -2 -34q-8 -63 -41.5 -111t-86.5 -74.5t-118 -26.5h-138q-4 0 -6 -5l-31 -255q-1 -5 -4.5 -8.5t-8.5 -3.5h-113q-11 0 -11 12l84 677q0 5 4 8.5t9 3.5h273q87 0 138.5 -49.5zM427 416.5q32 31.5 32 79.5q0 38 -24 60.5
t-64 22.5h-123q-4 0 -6 -5l-22 -184q-2 -5 4 -5h123q48 0 80 31.5z" />
    <glyph glyph-name="Thorn" unicode="&#xde;" horiz-adv-x="564" 
d="M513 511q52 -50 52 -132q0 -9 -2 -31q-8 -62 -43 -109.5t-88.5 -73.5t-115.5 -26h-122q-4 0 -6 -5l-15 -122q-1 -5 -4.5 -8.5t-8.5 -3.5h-113q-11 0 -11 12l83 676q1 5 5 8.5t9 3.5h113q5 0 8 -3.5t2 -8.5l-15 -122q0 -5 4 -5h129q87 0 139 -50zM389.5 277.5
q30.5 24.5 36.5 67.5q1 5 1 14q0 38 -24 59.5t-65 21.5h-107q-6 0 -6 -5l-22 -177q0 -5 5 -5h107q44 0 74.5 24.5z" />
    <glyph glyph-name="Q" unicode="Q" horiz-adv-x="576" 
d="M515.5 650.5q59.5 -57.5 59.5 -153.5q0 -19 -3 -40l-27 -224q-11 -89 -65.5 -150.5t-137.5 -81.5q-5 -2 -5 -5l-10 -82q-1 -5 -4.5 -8.5t-8.5 -3.5h-114q-5 0 -8 3.5t-2 8.5l10 81q1 4 -3 5q-70 17 -110 69.5t-40 127.5q0 24 2 36l27 224q9 75 47.5 132t98.5 88t133 31
q101 0 160.5 -57.5zM436 464q1 7 1 21q0 46 -26 74t-71 28q-49 0 -84 -34t-42 -89l-28 -228q-1 -7 -1 -20q0 -47 26 -75t71 -28q50 0 84.5 34t41.5 89z" />
    <glyph glyph-name="R" unicode="R" horiz-adv-x="595" 
d="M400 9l-87 277q-2 4 -6 4h-90q-5 0 -5 -5l-34 -273q-1 -5 -4.5 -8.5t-8.5 -3.5h-114q-5 0 -8 3.5t-2 8.5l83 676q1 5 4.5 8.5t8.5 3.5h278q85 0 134 -48t49 -129q0 -10 -2 -34q-8 -68 -47 -116.5t-100 -68.5q-6 -2 -4 -7l97 -283q1 -2 1 -5q0 -9 -11 -9h-120q-9 0 -12 9z
M248.5 577.5q-1.5 -1.5 -1.5 -3.5l-21 -171q0 -5 4 -5h127q45 0 75 28.5t30 73.5q0 36 -22.5 57.5t-59.5 21.5h-128q-2 0 -3.5 -1.5z" />
    <glyph glyph-name="Racute" unicode="&#x154;" horiz-adv-x="595" 
d="M400 9l-87 277q-2 4 -6 4h-90q-5 0 -5 -5l-34 -273q-1 -5 -4.5 -8.5t-8.5 -3.5h-114q-5 0 -8 3.5t-2 8.5l83 676q1 5 4.5 8.5t8.5 3.5h278q85 0 134 -48t49 -129q0 -10 -2 -34q-8 -68 -47 -116.5t-100 -68.5q-6 -2 -4 -7l97 -283q1 -2 1 -5q0 -9 -11 -9h-120q-9 0 -12 9z
M248.5 577.5q-1.5 -1.5 -1.5 -3.5l-21 -171q0 -5 4 -5h127q45 0 75 28.5t30 73.5q0 36 -22.5 57.5t-59.5 21.5h-128q-2 0 -3.5 -1.5zM289 768q0 4 3 8l64 101q4 9 15 9h98q9 0 9 -7q0 -3 -3 -8l-81 -101q-6 -8 -15 -8h-81q-9 0 -9 6z" />
    <glyph glyph-name="Rcaron" unicode="&#x158;" horiz-adv-x="595" 
d="M400 9l-87 277q-2 4 -6 4h-90q-5 0 -5 -5l-34 -273q-1 -5 -4.5 -8.5t-8.5 -3.5h-114q-5 0 -8 3.5t-2 8.5l83 676q1 5 4.5 8.5t8.5 3.5h278q85 0 134 -48t49 -129q0 -10 -2 -34q-8 -68 -47 -116.5t-100 -68.5q-6 -2 -4 -7l97 -283q1 -2 1 -5q0 -9 -11 -9h-120q-9 0 -12 9z
M248.5 577.5q-1.5 -1.5 -1.5 -3.5l-21 -171q0 -5 4 -5h127q45 0 75 28.5t30 73.5q0 36 -22.5 57.5t-59.5 21.5h-128q-2 0 -3.5 -1.5zM219 877q0 4 3 6.5t8 2.5h88q9 0 12 -8l32 -61q2 -7 5 0l47 61q5 8 14 8h88q9 0 9 -7q0 -3 -3 -8l-87 -106q-6 -7 -15 -7h-129q-9 0 -12 8
l-58 105q-2 4 -2 6z" />
    <glyph glyph-name="S" unicode="S" horiz-adv-x="577" 
d="M100.5 41q-62.5 49 -62.5 133q0 9 2 27l3 22q1 5 4.5 8.5t8.5 3.5h111q5 0 8 -3.5t2 -8.5l-2 -15q-5 -40 27.5 -67.5t93.5 -27.5q56 0 84.5 25t28.5 61q0 22 -14.5 37t-39 26.5t-77.5 32.5q-58 22 -98 43.5t-67 57.5t-27 89q0 7 2 25q11 91 83 144.5t178 53.5
q68 0 120.5 -23.5t81 -66t28.5 -99.5q0 -8 -2 -26l-2 -15q-1 -5 -4.5 -8.5t-8.5 -3.5h-112q-5 0 -8 3.5t-2 8.5l1 8q5 42 -24.5 71.5t-88.5 29.5q-49 0 -78 -22.5t-29 -61.5q0 -22 14 -37t41.5 -28t83.5 -35q62 -25 96.5 -42.5t62.5 -52.5t28 -88q0 -7 -2 -25
q-12 -94 -85.5 -148.5t-187.5 -54.5q-109 0 -171.5 49z" />
    <glyph glyph-name="Sacute" unicode="&#x15a;" horiz-adv-x="577" 
d="M100.5 41q-62.5 49 -62.5 133q0 9 2 27l3 22q1 5 4.5 8.5t8.5 3.5h111q5 0 8 -3.5t2 -8.5l-2 -15q-5 -40 27.5 -67.5t93.5 -27.5q56 0 84.5 25t28.5 61q0 22 -14.5 37t-39 26.5t-77.5 32.5q-58 22 -98 43.5t-67 57.5t-27 89q0 7 2 25q11 91 83 144.5t178 53.5
q68 0 120.5 -23.5t81 -66t28.5 -99.5q0 -8 -2 -26l-2 -15q-1 -5 -4.5 -8.5t-8.5 -3.5h-112q-5 0 -8 3.5t-2 8.5l1 8q5 42 -24.5 71.5t-88.5 29.5q-49 0 -78 -22.5t-29 -61.5q0 -22 14 -37t41.5 -28t83.5 -35q62 -25 96.5 -42.5t62.5 -52.5t28 -88q0 -7 -2 -25
q-12 -94 -85.5 -148.5t-187.5 -54.5q-109 0 -171.5 49zM297 768q0 4 3 8l64 101q4 9 15 9h98q9 0 9 -7q0 -3 -3 -8l-81 -101q-6 -8 -15 -8h-81q-9 0 -9 6z" />
    <glyph glyph-name="Scaron" unicode="&#x160;" horiz-adv-x="577" 
d="M100.5 41q-62.5 49 -62.5 133q0 9 2 27l3 22q1 5 4.5 8.5t8.5 3.5h111q5 0 8 -3.5t2 -8.5l-2 -15q-5 -40 27.5 -67.5t93.5 -27.5q56 0 84.5 25t28.5 61q0 22 -14.5 37t-39 26.5t-77.5 32.5q-58 22 -98 43.5t-67 57.5t-27 89q0 7 2 25q11 91 83 144.5t178 53.5
q68 0 120.5 -23.5t81 -66t28.5 -99.5q0 -8 -2 -26l-2 -15q-1 -5 -4.5 -8.5t-8.5 -3.5h-112q-5 0 -8 3.5t-2 8.5l1 8q5 42 -24.5 71.5t-88.5 29.5q-49 0 -78 -22.5t-29 -61.5q0 -22 14 -37t41.5 -28t83.5 -35q62 -25 96.5 -42.5t62.5 -52.5t28 -88q0 -7 -2 -25
q-12 -94 -85.5 -148.5t-187.5 -54.5q-109 0 -171.5 49zM228 877q0 4 3 6.5t8 2.5h88q9 0 12 -8l32 -61q2 -7 5 0l47 61q5 8 14 8h88q9 0 9 -7q0 -3 -3 -8l-87 -106q-6 -7 -15 -7h-129q-9 0 -12 8l-58 105q-2 4 -2 6z" />
    <glyph glyph-name="Scedilla" unicode="&#x15e;" horiz-adv-x="577" 
d="M476.5 60q-58.5 -52 -150.5 -64q-6 -2 -3 -6q33 -38 33 -77q0 -14 -7 -35q-13 -34 -40 -49t-60 -15q-30 0 -58 11q-10 3 -7 14l13 50q3 13 15 8q9 -3 17 -3q16 0 27.5 10t11.5 27q0 27 -37 61q-4 2 -6 2q-88 11 -137.5 58t-49.5 121q0 8 2 28l3 22q1 5 4.5 8.5t8.5 3.5
h111q5 0 8 -3.5t2 -8.5l-2 -15q-5 -40 27.5 -67.5t93.5 -27.5q56 0 84.5 25t28.5 61q0 22 -14.5 37t-39 26.5t-77.5 32.5q-58 22 -98 43.5t-67 57.5t-27 89q0 7 2 25q11 91 83 144.5t178 53.5q68 0 120.5 -23.5t81 -66t28.5 -99.5q0 -8 -2 -26l-2 -15q-1 -5 -4.5 -8.5
t-8.5 -3.5h-112q-5 0 -8 3.5t-2 8.5l1 8q5 42 -24.5 71.5t-88.5 29.5q-49 0 -78 -22.5t-29 -61.5q0 -22 14 -37t41.5 -28t83.5 -35q62 -25 96.5 -42.5t62.5 -52.5t28 -88q0 -7 -2 -25q-10 -83 -68.5 -135z" />
    <glyph glyph-name="Scircumflex" unicode="&#x15c;" horiz-adv-x="577" 
d="M100.5 41q-62.5 49 -62.5 133q0 9 2 27l3 22q1 5 4.5 8.5t8.5 3.5h111q5 0 8 -3.5t2 -8.5l-2 -15q-5 -40 27.5 -67.5t93.5 -27.5q56 0 84.5 25t28.5 61q0 22 -14.5 37t-39 26.5t-77.5 32.5q-58 22 -98 43.5t-67 57.5t-27 89q0 7 2 25q11 91 83 144.5t178 53.5
q68 0 120.5 -23.5t81 -66t28.5 -99.5q0 -8 -2 -26l-2 -15q-1 -5 -4.5 -8.5t-8.5 -3.5h-112q-5 0 -8 3.5t-2 8.5l1 8q5 42 -24.5 71.5t-88.5 29.5q-49 0 -78 -22.5t-29 -61.5q0 -22 14 -37t41.5 -28t83.5 -35q62 -25 96.5 -42.5t62.5 -52.5t28 -88q0 -7 -2 -25
q-12 -94 -85.5 -148.5t-187.5 -54.5q-109 0 -171.5 49zM208 765q0 4 3 8l84 105q5 8 14 8h129q9 0 13 -8l61 -105q2 -4 2 -6q0 -4 -3.5 -6.5t-8.5 -2.5h-87q-10 0 -13 8l-31 61q-3 6 -6 0l-46 -61q-6 -8 -15 -8h-87q-9 0 -9 7z" />
    <glyph glyph-name="uni018F" unicode="&#x18f;" horiz-adv-x="638" 
d="M619 405q0 -36 -6 -81q-11 -89 -33 -142q-37 -88 -111.5 -140.5t-169.5 -52.5q-120 0 -181.5 70.5t-61.5 189.5q0 47 12 121q2 12 13 12h398q2 0 3.5 1.5t1.5 3.5q1 39 -6 64q-10 45 -44 70.5t-92 25.5q-95 -1 -152 -82q-9 -12 -17 -3l-65 67q-4 6 -4 8t4 8
q44 59 110 90.5t149 31.5q98 0 160.5 -47.5t82.5 -133.5q9 -37 9 -81zM398.5 137q35.5 26 53.5 72q8 16 15 48q0 5 -4 5h-265q-5 0 -5 -5v-14q0 -22 1 -30q6 -47 37 -74.5t82 -27.5q50 0 85.5 26z" />
    <glyph glyph-name="T" unicode="T" horiz-adv-x="567" 
d="M602 696.5q3 -3.5 2 -8.5l-12 -98q0 -5 -4 -8.5t-9 -3.5h-173q-4 0 -6 -5l-69 -561q-1 -5 -4.5 -8.5t-8.5 -3.5h-113q-5 0 -8 3.5t-2 8.5l68 561q2 5 -4 5h-169q-5 0 -8 3.5t-2 8.5l12 98q1 5 4.5 8.5t8.5 3.5h489q5 0 8 -3.5z" />
    <glyph glyph-name="Tbar" unicode="&#x166;" horiz-adv-x="567" 
d="M588 581.5q-4 -3.5 -9 -3.5h-173q-4 0 -6 -5l-19 -159q-2 -5 4 -5h92q5 0 8 -3.5t2 -8.5l-7 -61q-1 -5 -4.5 -8.5t-8.5 -3.5h-93q-2 0 -3.5 -1.5t-1.5 -3.5l-38 -307q-1 -5 -4.5 -8.5t-8.5 -3.5h-113q-5 0 -8 3.5t-2 8.5l37 307q2 5 -4 5h-82q-5 0 -8 3.5t-2 8.5l8 61
q1 5 4.5 8.5t8.5 3.5h81q4 0 6 5l19 159q2 5 -4 5h-169q-5 0 -8 3.5t-2 8.5l12 98q1 5 4.5 8.5t8.5 3.5h489q5 0 8 -3.5t2 -8.5l-12 -98q0 -5 -4 -8.5z" />
    <glyph glyph-name="Tcaron" unicode="&#x164;" horiz-adv-x="567" 
d="M602 696.5q3 -3.5 2 -8.5l-12 -98q0 -5 -4 -8.5t-9 -3.5h-173q-4 0 -6 -5l-69 -561q-1 -5 -4.5 -8.5t-8.5 -3.5h-113q-5 0 -8 3.5t-2 8.5l68 561q2 5 -4 5h-169q-5 0 -8 3.5t-2 8.5l12 98q1 5 4.5 8.5t8.5 3.5h489q5 0 8 -3.5zM222 876q0 4 3 6.5t8 2.5h88q9 0 12 -8
l32 -61q2 -7 5 0l47 61q5 8 14 8h88q9 0 9 -7q0 -3 -3 -8l-87 -106q-6 -7 -15 -7h-129q-9 0 -12 8l-58 105q-2 4 -2 6z" />
    <glyph glyph-name="U" unicode="U" horiz-adv-x="611" 
d="M121.5 48q-60.5 56 -60.5 150q0 10 2 34l56 456q1 5 5 8.5t9 3.5h113q5 0 8 -3.5t2 -8.5l-56 -457q-1 -7 -1 -19q0 -45 27 -72t74 -27q51 0 86.5 32.5t42.5 85.5l56 457q1 5 4.5 8.5t8.5 3.5h114q5 0 8 -3.5t2 -8.5l-56 -456q-9 -71 -47 -125.5t-98.5 -84.5t-135.5 -30
q-103 0 -163.5 56z" />
    <glyph glyph-name="Uacute" unicode="&#xda;" horiz-adv-x="611" 
d="M121.5 48q-60.5 56 -60.5 150q0 10 2 34l56 456q1 5 5 8.5t9 3.5h113q5 0 8 -3.5t2 -8.5l-56 -457q-1 -7 -1 -19q0 -45 27 -72t74 -27q51 0 86.5 32.5t42.5 85.5l56 457q1 5 4.5 8.5t8.5 3.5h114q5 0 8 -3.5t2 -8.5l-56 -456q-9 -71 -47 -125.5t-98.5 -84.5t-135.5 -30
q-103 0 -163.5 56zM317 768q0 4 3 8l64 101q4 9 15 9h98q9 0 9 -7q0 -3 -3 -8l-81 -101q-6 -8 -15 -8h-81q-9 0 -9 6z" />
    <glyph glyph-name="Ubreve" unicode="&#x16c;" horiz-adv-x="611" 
d="M121.5 48q-60.5 56 -60.5 150q0 10 2 34l56 456q1 5 5 8.5t9 3.5h113q5 0 8 -3.5t2 -8.5l-56 -457q-1 -7 -1 -19q0 -45 27 -72t74 -27q51 0 86.5 32.5t42.5 85.5l56 457q1 5 4.5 8.5t8.5 3.5h114q5 0 8 -3.5t2 -8.5l-56 -456q-9 -71 -47 -125.5t-98.5 -84.5t-135.5 -30
q-103 0 -163.5 56zM278.5 782.5q-38.5 31.5 -38.5 80.5q0 14 12 14l58 -1q9 0 11 -11q1 -21 19.5 -34t46.5 -13t50 13t29 35q3 11 13 11h56q6 0 9 -2.5t1 -7.5q-10 -50 -57 -83t-110 -33q-61 0 -99.5 31.5z" />
    <glyph glyph-name="Ucircumflex" unicode="&#xdb;" horiz-adv-x="611" 
d="M121.5 48q-60.5 56 -60.5 150q0 10 2 34l56 456q1 5 5 8.5t9 3.5h113q5 0 8 -3.5t2 -8.5l-56 -457q-1 -7 -1 -19q0 -45 27 -72t74 -27q51 0 86.5 32.5t42.5 85.5l56 457q1 5 4.5 8.5t8.5 3.5h114q5 0 8 -3.5t2 -8.5l-56 -456q-9 -71 -47 -125.5t-98.5 -84.5t-135.5 -30
q-103 0 -163.5 56zM228 765q0 4 3 8l84 105q5 8 14 8h129q9 0 13 -8l61 -105q2 -4 2 -6q0 -4 -3.5 -6.5t-8.5 -2.5h-87q-10 0 -13 8l-31 61q-3 6 -6 0l-46 -61q-6 -8 -15 -8h-87q-9 0 -9 7z" />
    <glyph glyph-name="Udieresis" unicode="&#xdc;" horiz-adv-x="611" 
d="M121.5 48q-60.5 56 -60.5 150q0 10 2 34l56 456q1 5 5 8.5t9 3.5h113q5 0 8 -3.5t2 -8.5l-56 -457q-1 -7 -1 -19q0 -45 27 -72t74 -27q51 0 86.5 32.5t42.5 85.5l56 457q1 5 4.5 8.5t8.5 3.5h114q5 0 8 -3.5t2 -8.5l-56 -456q-9 -71 -47 -125.5t-98.5 -84.5t-135.5 -30
q-103 0 -163.5 56zM427 783.5q-19 19.5 -19 49.5q0 38 25.5 63.5t62.5 25.5q31 0 49.5 -18.5t18.5 -49.5q0 -38 -26 -64t-62 -26q-30 0 -49 19.5zM234 783.5q-19 19.5 -19 49.5q0 38 25.5 63.5t62.5 25.5q31 0 49.5 -18.5t18.5 -49.5q0 -38 -26 -64t-62 -26q-30 0 -49 19.5z
" />
    <glyph glyph-name="uni1EE4" unicode="&#x1ee4;" horiz-adv-x="611" 
d="M121.5 48q-60.5 56 -60.5 150q0 10 2 34l56 456q1 5 5 8.5t9 3.5h113q5 0 8 -3.5t2 -8.5l-56 -457q-1 -7 -1 -19q0 -45 27 -72t74 -27q51 0 86.5 32.5t42.5 85.5l56 457q1 5 4.5 8.5t8.5 3.5h114q5 0 8 -3.5t2 -8.5l-56 -456q-9 -71 -47 -125.5t-98.5 -84.5t-135.5 -30
q-103 0 -163.5 56zM214 -198.5q-18 17.5 -18 45.5q0 39 23.5 63t59.5 24q29 0 46.5 -17.5t17.5 -45.5q0 -37 -24 -62t-59 -25q-28 0 -46 17.5z" />
    <glyph glyph-name="Ugrave" unicode="&#xd9;" horiz-adv-x="611" 
d="M121.5 48q-60.5 56 -60.5 150q0 10 2 34l56 456q1 5 5 8.5t9 3.5h113q5 0 8 -3.5t2 -8.5l-56 -457q-1 -7 -1 -19q0 -45 27 -72t74 -27q51 0 86.5 32.5t42.5 85.5l56 457q1 5 4.5 8.5t8.5 3.5h114q5 0 8 -3.5t2 -8.5l-56 -456q-9 -71 -47 -125.5t-98.5 -84.5t-135.5 -30
q-103 0 -163.5 56zM432 771q0 -4 -3 -6.5t-7 -2.5h-82q-9 0 -12 8l-57 101q-2 4 -2 6q0 4 3.5 6.5t8.5 2.5h98q10 0 13 -9l39 -101q1 -2 1 -5z" />
    <glyph glyph-name="uni1EE6" unicode="&#x1ee6;" horiz-adv-x="611" 
d="M121.5 48q-60.5 56 -60.5 150q0 10 2 34l56 456q1 5 5 8.5t9 3.5h113q5 0 8 -3.5t2 -8.5l-56 -457q-1 -7 -1 -19q0 -45 27 -72t74 -27q51 0 86.5 32.5t42.5 85.5l56 457q1 5 4.5 8.5t8.5 3.5h114q5 0 8 -3.5t2 -8.5l-56 -456q-9 -71 -47 -125.5t-98.5 -84.5t-135.5 -30
q-103 0 -163.5 56zM358 762q14 27 38 49q12 13 17 20.5t6 20.5q1 10 -6 17t-18 7q-13 0 -22.5 -6t-24.5 -24q-4 -5 -9 -6t-9 3l-30 25q-4 3 -4 8t4 9q24 32 48 45.5t59 13.5q40 0 63 -20.5t23 -57.5q0 -29 -11.5 -47.5t-34.5 -39.5q-22 -20 -30 -32q-7 -10 -16 -8l-36 8
q-13 3 -7 15z" />
    <glyph glyph-name="Uhorn" unicode="&#x1af;" horiz-adv-x="611" 
d="M749 775q-11 -58 -46.5 -92.5t-83.5 -46.5q-4 -1 -4 -5l-49 -399q-9 -71 -47 -125.5t-98.5 -84.5t-135.5 -30q-103 0 -163.5 56t-60.5 150q0 10 2 34l56 456q1 5 5 8.5t9 3.5h113q5 0 8 -3.5t2 -8.5l-56 -457q-1 -7 -1 -19q0 -45 27 -72t74 -27q51 0 86.5 32.5t42.5 85.5
l56 457q1 5 4.5 8.5t8.5 3.5h78q28 0 54.5 16t35.5 59q2 12 13 12h60q12 0 10 -12z" />
    <glyph glyph-name="uni1EE8" unicode="&#x1ee8;" horiz-adv-x="611" 
d="M749 775q-11 -58 -46.5 -92.5t-83.5 -46.5q-4 -1 -4 -5l-49 -399q-9 -71 -47 -125.5t-98.5 -84.5t-135.5 -30q-103 0 -163.5 56t-60.5 150q0 10 2 34l56 456q1 5 5 8.5t9 3.5h113q5 0 8 -3.5t2 -8.5l-56 -457q-1 -7 -1 -19q0 -45 27 -72t74 -27q51 0 86.5 32.5t42.5 85.5
l56 457q1 5 4.5 8.5t8.5 3.5h78q28 0 54.5 16t35.5 59q2 12 13 12h60q12 0 10 -12zM317 768q0 4 3 8l64 101q4 9 15 9h98q9 0 9 -7q0 -3 -3 -8l-81 -101q-6 -8 -15 -8h-81q-9 0 -9 6z" />
    <glyph glyph-name="uni1EF0" unicode="&#x1ef0;" horiz-adv-x="611" 
d="M749 775q-11 -58 -46.5 -92.5t-83.5 -46.5q-4 -1 -4 -5l-49 -399q-9 -71 -47 -125.5t-98.5 -84.5t-135.5 -30q-103 0 -163.5 56t-60.5 150q0 10 2 34l56 456q1 5 5 8.5t9 3.5h113q5 0 8 -3.5t2 -8.5l-56 -457q-1 -7 -1 -19q0 -45 27 -72t74 -27q51 0 86.5 32.5t42.5 85.5
l56 457q1 5 4.5 8.5t8.5 3.5h78q28 0 54.5 16t35.5 59q2 12 13 12h60q12 0 10 -12zM214 -198.5q-18 17.5 -18 45.5q0 39 23.5 63t59.5 24q29 0 46.5 -17.5t17.5 -45.5q0 -37 -24 -62t-59 -25q-28 0 -46 17.5z" />
    <glyph glyph-name="uni1EEA" unicode="&#x1eea;" horiz-adv-x="611" 
d="M749 775q-11 -58 -46.5 -92.5t-83.5 -46.5q-4 -1 -4 -5l-49 -399q-9 -71 -47 -125.5t-98.5 -84.5t-135.5 -30q-103 0 -163.5 56t-60.5 150q0 10 2 34l56 456q1 5 5 8.5t9 3.5h113q5 0 8 -3.5t2 -8.5l-56 -457q-1 -7 -1 -19q0 -45 27 -72t74 -27q51 0 86.5 32.5t42.5 85.5
l56 457q1 5 4.5 8.5t8.5 3.5h78q28 0 54.5 16t35.5 59q2 12 13 12h60q12 0 10 -12zM432 771q0 -4 -3 -6.5t-7 -2.5h-82q-9 0 -12 8l-57 101q-2 4 -2 6q0 4 3.5 6.5t8.5 2.5h98q10 0 13 -9l39 -101q1 -2 1 -5z" />
    <glyph glyph-name="uni1EEC" unicode="&#x1eec;" horiz-adv-x="611" 
d="M749 775q-11 -58 -46.5 -92.5t-83.5 -46.5q-4 -1 -4 -5l-49 -399q-9 -71 -47 -125.5t-98.5 -84.5t-135.5 -30q-103 0 -163.5 56t-60.5 150q0 10 2 34l56 456q1 5 5 8.5t9 3.5h113q5 0 8 -3.5t2 -8.5l-56 -457q-1 -7 -1 -19q0 -45 27 -72t74 -27q51 0 86.5 32.5t42.5 85.5
l56 457q1 5 4.5 8.5t8.5 3.5h78q28 0 54.5 16t35.5 59q2 12 13 12h60q12 0 10 -12zM358 762q14 27 38 49q12 13 17 20.5t6 20.5q1 10 -6 17t-18 7q-13 0 -22.5 -6t-24.5 -24q-4 -5 -9 -6t-9 3l-30 25q-4 3 -4 8t4 9q24 32 48 45.5t59 13.5q40 0 63 -20.5t23 -57.5
q0 -29 -11.5 -47.5t-34.5 -39.5q-22 -20 -30 -32q-7 -10 -16 -8l-36 8q-13 3 -7 15z" />
    <glyph glyph-name="uni1EEE" unicode="&#x1eee;" horiz-adv-x="611" 
d="M749 775q-11 -58 -46.5 -92.5t-83.5 -46.5q-4 -1 -4 -5l-49 -399q-9 -71 -47 -125.5t-98.5 -84.5t-135.5 -30q-103 0 -163.5 56t-60.5 150q0 10 2 34l56 456q1 5 5 8.5t9 3.5h113q5 0 8 -3.5t2 -8.5l-56 -457q-1 -7 -1 -19q0 -45 27 -72t74 -27q51 0 86.5 32.5t42.5 85.5
l56 457q1 5 4.5 8.5t8.5 3.5h78q28 0 54.5 16t35.5 59q2 12 13 12h60q12 0 10 -12zM408.5 763.5q-13.5 4.5 -29.5 13.5q-19 10 -28 13.5t-19 3.5q-31 0 -55 -22q-5 -5 -9 -5t-7 4l-34 44q-4 6 -4 9q0 4 3 8q20 28 49 45t62 17q18 0 31.5 -5t24.5 -10.5t14 -7.5
q17 -10 26 -14t20 -4q29 0 50 24q4 5 9 5q4 0 7 -4l31 -45q5 -8 1 -14q-16 -27 -45 -43.5t-64 -16.5q-20 0 -33.5 4.5z" />
    <glyph glyph-name="Uhungarumlaut" unicode="&#x170;" horiz-adv-x="611" 
d="M121.5 48q-60.5 56 -60.5 150q0 10 2 34l56 456q1 5 5 8.5t9 3.5h113q5 0 8 -3.5t2 -8.5l-56 -457q-1 -7 -1 -19q0 -45 27 -72t74 -27q51 0 86.5 32.5t42.5 85.5l56 457q1 5 4.5 8.5t8.5 3.5h114q5 0 8 -3.5t2 -8.5l-56 -456q-9 -71 -47 -125.5t-98.5 -84.5t-135.5 -30
q-103 0 -163.5 56zM243 766q-3 4 1 10l58 101q5 9 15 9h100q7 0 9 -4t-2 -10l-64 -101q-6 -9 -16 -9h-92q-6 0 -9 4zM416 766q-2 4 2 10l64 101q2 4 6.5 6.5t8.5 2.5h94q6 0 7.5 -4t-1.5 -10l-64 -101q-6 -9 -16 -9h-92q-7 0 -9 4z" />
    <glyph glyph-name="Umacron" unicode="&#x16a;" horiz-adv-x="611" 
d="M121.5 48q-60.5 56 -60.5 150q0 10 2 34l56 456q1 5 5 8.5t9 3.5h113q5 0 8 -3.5t2 -8.5l-56 -457q-1 -7 -1 -19q0 -45 27 -72t74 -27q51 0 86.5 32.5t42.5 85.5l56 457q1 5 4.5 8.5t8.5 3.5h114q5 0 8 -3.5t2 -8.5l-56 -456q-9 -71 -47 -125.5t-98.5 -84.5t-135.5 -30
q-103 0 -163.5 56zM241 767.5q-3 3.5 -2 8.5l9 71q1 5 4.5 8.5t8.5 3.5h262q5 0 8 -3.5t2 -8.5l-9 -71q-1 -5 -4.5 -8.5t-8.5 -3.5h-262q-5 0 -8 3.5z" />
    <glyph glyph-name="Uogonek" unicode="&#x172;" horiz-adv-x="611" 
d="M489.5 696.5q3.5 3.5 8.5 3.5h114q5 0 8 -3.5t2 -8.5l-56 -456q-12 -98 -77.5 -162t-165.5 -76q-3 0 -5 -2q-44 -36 -44 -65q0 -12 8 -18.5t21 -6.5q9 0 19 3l5 1q9 0 8 -10l1 -50q0 -11 -10 -14q-29 -11 -61 -11q-36 0 -60.5 18.5t-24.5 59.5q0 48 47 92q4 4 -1 6
q-77 15 -121 68t-44 132q0 11 2 35l56 456q1 5 5 8.5t9 3.5h113q5 0 8 -3.5t2 -8.5l-56 -457q-1 -7 -1 -19q0 -45 27 -72t74 -27q51 0 86.5 32.5t42.5 85.5l56 457q1 5 4.5 8.5z" />
    <glyph glyph-name="Uring" unicode="&#x16e;" horiz-adv-x="611" 
d="M121.5 48q-60.5 56 -60.5 150q0 10 2 34l56 456q1 5 5 8.5t9 3.5h113q5 0 8 -3.5t2 -8.5l-56 -457q-1 -7 -1 -19q0 -45 27 -72t74 -27q51 0 86.5 32.5t42.5 85.5l56 457q1 5 4.5 8.5t8.5 3.5h114q5 0 8 -3.5t2 -8.5l-56 -456q-9 -71 -47 -125.5t-98.5 -84.5t-135.5 -30
q-103 0 -163.5 56zM301 779.5q-30 30.5 -30 77.5q0 38 19 70t50.5 51t68.5 19q46 0 76 -30t30 -77q0 -38 -18.5 -70.5t-50.5 -51.5t-68 -19q-47 0 -77 30.5zM426 840q17 17 17 40q0 19 -12.5 31.5t-30.5 12.5q-22 0 -39 -16.5t-17 -40.5q0 -19 12.5 -31.5t31.5 -12.5
q21 0 38 17z" />
    <glyph glyph-name="Utilde" unicode="&#x168;" horiz-adv-x="611" 
d="M121.5 48q-60.5 56 -60.5 150q0 10 2 34l56 456q1 5 5 8.5t9 3.5h113q5 0 8 -3.5t2 -8.5l-56 -457q-1 -7 -1 -19q0 -45 27 -72t74 -27q51 0 86.5 32.5t42.5 85.5l56 457q1 5 4.5 8.5t8.5 3.5h114q5 0 8 -3.5t2 -8.5l-56 -456q-9 -71 -47 -125.5t-98.5 -84.5t-135.5 -30
q-103 0 -163.5 56zM408.5 763.5q-13.5 4.5 -29.5 13.5q-19 10 -28 13.5t-19 3.5q-31 0 -55 -22q-5 -5 -9 -5t-7 4l-34 44q-4 6 -4 9q0 4 3 8q20 28 49 45t62 17q18 0 31.5 -5t24.5 -10.5t14 -7.5q17 -10 26 -14t20 -4q29 0 50 24q4 5 9 5q4 0 7 -4l31 -45q5 -8 1 -14
q-16 -27 -45 -43.5t-64 -16.5q-20 0 -33.5 4.5z" />
    <glyph glyph-name="V" unicode="V" horiz-adv-x="604" 
d="M209 10l-117 676v2q0 5 3 8.5t8 3.5h123q11 0 12 -10l69 -488q1 -3 3 -3t3 3l187 488q4 10 15 10h119q6 0 8 -4t0 -10l-286 -676q-3 -10 -14 -10h-122q-9 0 -11 10z" />
    <glyph glyph-name="W" unicode="W" horiz-adv-x="851" 
d="M178 10l-89 677v2q0 11 11 11h121q10 0 11 -10l42 -407q1 -4 3 -4t3 4l139 406q5 11 14 11h118q11 0 12 -10l47 -407q0 -3 2.5 -3.5t3.5 3.5l139 406q5 11 14 11h114q13 0 9 -13l-242 -677q-4 -10 -15 -10h-115q-10 0 -11 10l-46 433q-1 4 -2.5 4t-3.5 -4l-145 -432
q-3 -11 -14 -11h-108q-11 0 -12 10z" />
    <glyph glyph-name="Wacute" unicode="&#x1e82;" horiz-adv-x="893" 
d="M178 10l-89 677v2q0 11 11 11h121q10 0 11 -10l42 -407q1 -4 3 -4t3 4l139 406q5 11 14 11h118q11 0 12 -10l47 -407q0 -3 2.5 -3.5t3.5 3.5l139 406q5 11 14 11h114q13 0 9 -13l-242 -677q-4 -10 -15 -10h-115q-10 0 -11 10l-46 433q-1 4 -2.5 4t-3.5 -4l-145 -432
q-3 -11 -14 -11h-108q-11 0 -12 10zM458 768q0 4 3 8l64 101q4 9 15 9h98q9 0 9 -7q0 -3 -3 -8l-81 -101q-6 -8 -15 -8h-81q-9 0 -9 6z" />
    <glyph glyph-name="Wcircumflex" unicode="&#x174;" horiz-adv-x="893" 
d="M178 10l-89 677v2q0 11 11 11h121q10 0 11 -10l42 -407q1 -4 3 -4t3 4l139 406q5 11 14 11h118q11 0 12 -10l47 -407q0 -3 2.5 -3.5t3.5 3.5l139 406q5 11 14 11h114q13 0 9 -13l-242 -677q-4 -10 -15 -10h-115q-10 0 -11 10l-46 433q-1 4 -2.5 4t-3.5 -4l-145 -432
q-3 -11 -14 -11h-108q-11 0 -12 10zM369 765q0 4 3 8l84 105q5 8 14 8h129q9 0 13 -8l61 -105q2 -4 2 -6q0 -4 -3.5 -6.5t-8.5 -2.5h-87q-10 0 -13 8l-31 61q-3 6 -6 0l-46 -61q-6 -8 -15 -8h-87q-9 0 -9 7z" />
    <glyph glyph-name="Wdieresis" unicode="&#x1e84;" horiz-adv-x="893" 
d="M178 10l-89 677v2q0 11 11 11h121q10 0 11 -10l42 -407q1 -4 3 -4t3 4l139 406q5 11 14 11h118q11 0 12 -10l47 -407q0 -3 2.5 -3.5t3.5 3.5l139 406q5 11 14 11h114q13 0 9 -13l-242 -677q-4 -10 -15 -10h-115q-10 0 -11 10l-46 433q-1 4 -2.5 4t-3.5 -4l-145 -432
q-3 -11 -14 -11h-108q-11 0 -12 10zM568 783.5q-19 19.5 -19 49.5q0 38 25.5 63.5t62.5 25.5q31 0 49.5 -18.5t18.5 -49.5q0 -38 -26 -64t-62 -26q-30 0 -49 19.5zM375 783.5q-19 19.5 -19 49.5q0 38 25.5 63.5t62.5 25.5q31 0 49.5 -18.5t18.5 -49.5q0 -38 -26 -64t-62 -26
q-30 0 -49 19.5z" />
    <glyph glyph-name="Wgrave" unicode="&#x1e80;" horiz-adv-x="893" 
d="M178 10l-89 677v2q0 11 11 11h121q10 0 11 -10l42 -407q1 -4 3 -4t3 4l139 406q5 11 14 11h118q11 0 12 -10l47 -407q0 -3 2.5 -3.5t3.5 3.5l139 406q5 11 14 11h114q13 0 9 -13l-242 -677q-4 -10 -15 -10h-115q-10 0 -11 10l-46 433q-1 4 -2.5 4t-3.5 -4l-145 -432
q-3 -11 -14 -11h-108q-11 0 -12 10zM573 771q0 -4 -3 -6.5t-7 -2.5h-82q-9 0 -12 8l-57 101q-2 4 -2 6q0 4 3.5 6.5t8.5 2.5h98q10 0 13 -9l39 -101q1 -2 1 -5z" />
    <glyph glyph-name="X" unicode="X" horiz-adv-x="612" 
d="M11.5 4q-2.5 4 1.5 10l229 333q3 3 1 6l-147 333q-1 2 -1 5q0 9 11 9h124q4 0 8 -2t5 -6l98 -229q2 -3 3 -3t3 3l154 229q6 8 16 8h122q10 0 10 -6q0 -3 -3 -8l-229 -333q-2 -4 -1 -6l147 -333q1 -2 1 -6q0 -8 -11 -8h-122q-11 0 -14 8l-98 228q-1 6 -6 0l-155 -228
q-2 -4 -6.5 -6t-8.5 -2h-123q-6 0 -8.5 4z" />
    <glyph glyph-name="Y" unicode="Y" horiz-adv-x="599" 
d="M215 4.5q-3 3.5 -2 8.5l31 253q0 1 0.5 2.5t-0.5 3.5l-149 414q-1 2 -1 5q0 9 11 9h123q9 0 12 -9l89 -266q2 -7 5 0l154 266q5 9 15 9h124q7 0 9 -3.5t-2 -10.5l-252 -414q-2 -2 -2 -6l-31 -253q-1 -5 -4.5 -8.5t-8.5 -3.5h-113q-5 0 -8 3.5z" />
    <glyph glyph-name="Yacute" unicode="&#xdd;" horiz-adv-x="599" 
d="M215 4.5q-3 3.5 -2 8.5l31 253q0 1 0.5 2.5t-0.5 3.5l-149 414q-1 2 -1 5q0 9 11 9h123q9 0 12 -9l89 -266q2 -7 5 0l154 266q5 9 15 9h124q7 0 9 -3.5t-2 -10.5l-252 -414q-2 -2 -2 -6l-31 -253q-1 -5 -4.5 -8.5t-8.5 -3.5h-113q-5 0 -8 3.5zM310 767q0 4 3 8l64 101
q4 9 15 9h98q9 0 9 -7q0 -3 -3 -8l-81 -101q-6 -8 -15 -8h-81q-9 0 -9 6z" />
    <glyph glyph-name="Ycircumflex" unicode="&#x176;" horiz-adv-x="599" 
d="M215 4.5q-3 3.5 -2 8.5l31 253q0 1 0.5 2.5t-0.5 3.5l-149 414q-1 2 -1 5q0 9 11 9h123q9 0 12 -9l89 -266q2 -7 5 0l154 266q5 9 15 9h124q7 0 9 -3.5t-2 -10.5l-252 -414q-2 -2 -2 -6l-31 -253q-1 -5 -4.5 -8.5t-8.5 -3.5h-113q-5 0 -8 3.5zM222 764q0 4 3 8l84 105
q5 8 14 8h129q9 0 13 -8l61 -105q2 -4 2 -6q0 -4 -3.5 -6.5t-8.5 -2.5h-87q-10 0 -13 8l-31 61q-3 6 -6 0l-46 -61q-6 -8 -15 -8h-87q-9 0 -9 7z" />
    <glyph glyph-name="Ydieresis" unicode="&#x178;" horiz-adv-x="599" 
d="M215 4.5q-3 3.5 -2 8.5l31 253q0 1 0.5 2.5t-0.5 3.5l-149 414q-1 2 -1 5q0 9 11 9h123q9 0 12 -9l89 -266q2 -7 5 0l154 266q5 9 15 9h124q7 0 9 -3.5t-2 -10.5l-252 -414q-2 -2 -2 -6l-31 -253q-1 -5 -4.5 -8.5t-8.5 -3.5h-113q-5 0 -8 3.5zM421 782.5
q-19 19.5 -19 49.5q0 38 25.5 63.5t62.5 25.5q31 0 49.5 -18.5t18.5 -49.5q0 -38 -26 -64t-62 -26q-30 0 -49 19.5zM228 782.5q-19 19.5 -19 49.5q0 38 25.5 63.5t62.5 25.5q31 0 49.5 -18.5t18.5 -49.5q0 -38 -26 -64t-62 -26q-30 0 -49 19.5z" />
    <glyph glyph-name="uni1EF4" unicode="&#x1ef4;" horiz-adv-x="599" 
d="M215 4.5q-3 3.5 -2 8.5l31 253q0 1 0.5 2.5t-0.5 3.5l-149 414q-1 2 -1 5q0 9 11 9h123q9 0 12 -9l89 -266q2 -7 5 0l154 266q5 9 15 9h124q7 0 9 -3.5t-2 -10.5l-252 -414q-2 -2 -2 -6l-31 -253q-1 -5 -4.5 -8.5t-8.5 -3.5h-113q-5 0 -8 3.5zM207 -198.5
q-18 17.5 -18 45.5q0 39 23.5 63t59.5 24q29 0 46.5 -17.5t17.5 -45.5q0 -37 -24 -62t-59 -25q-28 0 -46 17.5z" />
    <glyph glyph-name="Ygrave" unicode="&#x1ef2;" horiz-adv-x="599" 
d="M215 4.5q-3 3.5 -2 8.5l31 253q0 1 0.5 2.5t-0.5 3.5l-149 414q-1 2 -1 5q0 9 11 9h123q9 0 12 -9l89 -266q2 -7 5 0l154 266q5 9 15 9h124q7 0 9 -3.5t-2 -10.5l-252 -414q-2 -2 -2 -6l-31 -253q-1 -5 -4.5 -8.5t-8.5 -3.5h-113q-5 0 -8 3.5zM425 770q0 -4 -3 -6.5
t-7 -2.5h-82q-9 0 -12 8l-57 101q-2 4 -2 6q0 4 3.5 6.5t8.5 2.5h98q10 0 13 -9l39 -101q1 -2 1 -5z" />
    <glyph glyph-name="uni1EF6" unicode="&#x1ef6;" horiz-adv-x="599" 
d="M215 4.5q-3 3.5 -2 8.5l31 253q0 1 0.5 2.5t-0.5 3.5l-149 414q-1 2 -1 5q0 9 11 9h123q9 0 12 -9l89 -266q2 -7 5 0l154 266q5 9 15 9h124q7 0 9 -3.5t-2 -10.5l-252 -414q-2 -2 -2 -6l-31 -253q-1 -5 -4.5 -8.5t-8.5 -3.5h-113q-5 0 -8 3.5zM351 761q14 27 38 49
q12 13 17 20.5t6 20.5q1 10 -6 17t-18 7q-13 0 -22.5 -6t-24.5 -24q-4 -5 -9 -6t-9 3l-30 25q-4 3 -4 8t4 9q24 32 48 45.5t59 13.5q40 0 63 -20.5t23 -57.5q0 -29 -11.5 -47.5t-34.5 -39.5q-22 -20 -30 -32q-7 -10 -16 -8l-36 8q-13 3 -7 15z" />
    <glyph glyph-name="uni1EF8" unicode="&#x1ef8;" horiz-adv-x="599" 
d="M215 4.5q-3 3.5 -2 8.5l31 253q0 1 0.5 2.5t-0.5 3.5l-149 414q-1 2 -1 5q0 9 11 9h123q9 0 12 -9l89 -266q2 -7 5 0l154 266q5 9 15 9h124q7 0 9 -3.5t-2 -10.5l-252 -414q-2 -2 -2 -6l-31 -253q-1 -5 -4.5 -8.5t-8.5 -3.5h-113q-5 0 -8 3.5zM401.5 762.5
q-13.5 4.5 -29.5 13.5q-19 10 -28 13.5t-19 3.5q-31 0 -55 -22q-5 -5 -9 -5t-7 4l-34 44q-4 6 -4 9q0 4 3 8q20 28 49 45t62 17q18 0 31.5 -5t24.5 -10.5t14 -7.5q17 -10 26 -14t20 -4q29 0 50 24q4 5 9 5q4 0 7 -4l31 -45q5 -8 1 -14q-16 -27 -45 -43.5t-64 -16.5
q-20 0 -33.5 4.5z" />
    <glyph glyph-name="Z" unicode="Z" horiz-adv-x="540" 
d="M15 3.5q-3 3.5 -2 8.5l13 108q1 7 7 15l367 438q2 2 1 4t-4 2h-303q-5 0 -8 3.5t-2 8.5l12 97q1 5 4.5 8.5t8.5 3.5h449q11 0 11 -12l-14 -108q0 -7 -6 -15l-368 -438q-1 -2 0 -4t4 -2h302q5 0 8 -3.5t2 -8.5l-11 -97q-1 -5 -5 -8.5t-9 -3.5h-449q-5 0 -8 3.5z" />
    <glyph glyph-name="Zacute" unicode="&#x179;" horiz-adv-x="540" 
d="M15 3.5q-3 3.5 -2 8.5l13 108q1 7 7 15l367 438q2 2 1 4t-4 2h-303q-5 0 -8 3.5t-2 8.5l12 97q1 5 4.5 8.5t8.5 3.5h449q11 0 11 -12l-14 -108q0 -7 -6 -15l-368 -438q-1 -2 0 -4t4 -2h302q5 0 8 -3.5t2 -8.5l-11 -97q-1 -5 -5 -8.5t-9 -3.5h-449q-5 0 -8 3.5zM280 768
q0 4 3 8l64 101q4 9 15 9h98q9 0 9 -7q0 -3 -3 -8l-81 -101q-6 -8 -15 -8h-81q-9 0 -9 6z" />
    <glyph glyph-name="Zcaron" unicode="&#x17d;" horiz-adv-x="540" 
d="M15 3.5q-3 3.5 -2 8.5l13 108q1 7 7 15l367 438q2 2 1 4t-4 2h-303q-5 0 -8 3.5t-2 8.5l12 97q1 5 4.5 8.5t8.5 3.5h449q11 0 11 -12l-14 -108q0 -7 -6 -15l-368 -438q-1 -2 0 -4t4 -2h302q5 0 8 -3.5t2 -8.5l-11 -97q-1 -5 -5 -8.5t-9 -3.5h-449q-5 0 -8 3.5zM211 877
q0 4 3 6.5t8 2.5h88q9 0 12 -8l32 -61q2 -7 5 0l47 61q5 8 14 8h88q9 0 9 -7q0 -3 -3 -8l-87 -106q-6 -7 -15 -7h-129q-9 0 -12 8l-58 105q-2 4 -2 6z" />
    <glyph glyph-name="Zdotaccent" unicode="&#x17b;" horiz-adv-x="540" 
d="M15 3.5q-3 3.5 -2 8.5l13 108q1 7 7 15l367 438q2 2 1 4t-4 2h-303q-5 0 -8 3.5t-2 8.5l12 97q1 5 4.5 8.5t8.5 3.5h449q11 0 11 -12l-14 -108q0 -7 -6 -15l-368 -438q-1 -2 0 -4t4 -2h302q5 0 8 -3.5t2 -8.5l-11 -97q-1 -5 -5 -8.5t-9 -3.5h-449q-5 0 -8 3.5zM293 777.5
q-19 19.5 -19 49.5q0 38 25.5 63.5t62.5 25.5q31 0 49.5 -18.5t18.5 -49.5q0 -38 -26 -64t-62 -26q-30 0 -49 19.5z" />
    <glyph glyph-name="uni0122" unicode="&#x122;" horiz-adv-x="593" 
d="M113.5 49q-60.5 57 -60.5 152q0 24 2 37l28 224q9 73 47 129t99 86.5t136 30.5q68 0 119 -25.5t78.5 -70.5t27.5 -102q0 -10 -2 -28l-1 -7q-1 -5 -4.5 -8.5t-8.5 -3.5h-114q-5 0 -8 3.5t-2 8.5l1 3q1 5 1 14q0 42 -27 68.5t-75 26.5q-52 0 -87.5 -33.5t-42.5 -87.5
l-28 -232q-1 -6 -1 -18q0 -46 29.5 -74.5t76.5 -28.5q51 0 84 27.5t39 76.5l6 45q0 5 -4 5h-109q-5 0 -8 3.5t-2 8.5l11 92q1 5 4.5 8.5t8.5 3.5h237q5 0 8 -3.5t2 -8.5l-16 -132q-14 -115 -90.5 -181t-190.5 -66q-103 0 -163.5 57zM151 -176q0 4 3 8l64 101q4 9 15 9h98
q9 0 9 -7q0 -3 -3 -8l-81 -101q-6 -8 -15 -8h-81q-9 0 -9 6z" />
    <glyph glyph-name="uni0136" unicode="&#x136;" horiz-adv-x="607" 
d="M43 3.5q-3 3.5 -2 8.5l83 676q1 5 4.5 8.5t8.5 3.5h114q5 0 8 -3.5t2 -8.5l-34 -280q-1 -3 1 -3.5t4 1.5l260 287q6 7 15 7h128q10 0 10 -7q0 -4 -4 -8l-251 -285q-4 -4 -2 -7l182 -379q1 -2 1 -6q0 -8 -10 -8h-128q-10 0 -13 8l-137 288q-1 2 -3 2t-4 -2l-71 -79l-3 -6
l-24 -199q-1 -5 -4.5 -8.5t-8.5 -3.5h-114q-5 0 -8 3.5zM158 -168q0 4 3 8l64 101q4 9 15 9h98q9 0 9 -7q0 -3 -3 -8l-81 -101q-6 -8 -15 -8h-81q-9 0 -9 6z" />
    <glyph glyph-name="uni0145" unicode="&#x145;" horiz-adv-x="645" 
d="M518.5 696.5q3.5 3.5 8.5 3.5h114q5 0 8 -3.5t2 -8.5l-83 -676q-1 -5 -4.5 -8.5t-8.5 -3.5h-110q-9 0 -12 8l-199 428q-1 3 -3 2.5t-3 -4.5l-50 -422q-1 -5 -4.5 -8.5t-8.5 -3.5h-114q-5 0 -8 3.5t-2 8.5l83 676q1 5 4.5 8.5t8.5 3.5h110q9 0 13 -8l198 -426q1 -3 3 -2.5
t3 4.5l50 420q1 5 4.5 8.5zM178 -168q0 4 3 8l64 101q4 9 15 9h98q9 0 9 -7q0 -3 -3 -8l-81 -101q-6 -8 -15 -8h-81q-9 0 -9 6z" />
    <glyph glyph-name="uni0156" unicode="&#x156;" horiz-adv-x="595" 
d="M400 9l-87 277q-2 4 -6 4h-90q-5 0 -5 -5l-34 -273q-1 -5 -4.5 -8.5t-8.5 -3.5h-114q-5 0 -8 3.5t-2 8.5l83 676q1 5 4.5 8.5t8.5 3.5h278q85 0 134 -48t49 -129q0 -10 -2 -34q-8 -68 -47 -116.5t-100 -68.5q-6 -2 -4 -7l97 -283q1 -2 1 -5q0 -9 -11 -9h-120q-9 0 -12 9z
M248.5 577.5q-1.5 -1.5 -1.5 -3.5l-21 -171q0 -5 4 -5h127q45 0 75 28.5t30 73.5q0 36 -22.5 57.5t-59.5 21.5h-128q-2 0 -3.5 -1.5zM147 -168q0 4 3 8l64 101q4 9 15 9h98q9 0 9 -7q0 -3 -3 -8l-81 -101q-6 -8 -15 -8h-81q-9 0 -9 6z" />
    <glyph glyph-name="uni0162" unicode="&#x162;" horiz-adv-x="567" 
d="M602 696.5q3 -3.5 2 -8.5l-12 -98q0 -5 -4 -8.5t-9 -3.5h-173q-4 0 -6 -5l-69 -561q-1 -5 -4.5 -8.5t-8.5 -3.5h-113q-5 0 -8 3.5t-2 8.5l68 561q2 5 -4 5h-169q-5 0 -8 3.5t-2 8.5l12 98q1 5 4.5 8.5t8.5 3.5h489q5 0 8 -3.5zM207 -168l13 50q3 12 15 9q10 -3 19 -3
q16 0 26.5 9t10.5 27q0 26 -38 61q-5 5 -5 8q0 7 11 7h63q8 0 13 -5q44 -41 44 -88q0 -19 -7 -36q-13 -34 -40 -49t-60 -15q-30 0 -58 11q-10 3 -7 14z" />
    <glyph glyph-name="uni0218" unicode="&#x218;" horiz-adv-x="577" 
d="M100.5 41q-62.5 49 -62.5 133q0 9 2 27l3 22q1 5 4.5 8.5t8.5 3.5h111q5 0 8 -3.5t2 -8.5l-2 -15q-5 -40 27.5 -67.5t93.5 -27.5q56 0 84.5 25t28.5 61q0 22 -14.5 37t-39 26.5t-77.5 32.5q-58 22 -98 43.5t-67 57.5t-27 89q0 7 2 25q11 91 83 144.5t178 53.5
q68 0 120.5 -23.5t81 -66t28.5 -99.5q0 -8 -2 -26l-2 -15q-1 -5 -4.5 -8.5t-8.5 -3.5h-112q-5 0 -8 3.5t-2 8.5l1 8q5 42 -24.5 71.5t-88.5 29.5q-49 0 -78 -22.5t-29 -61.5q0 -22 14 -37t41.5 -28t83.5 -35q62 -25 96.5 -42.5t62.5 -52.5t28 -88q0 -7 -2 -25
q-12 -94 -85.5 -148.5t-187.5 -54.5q-109 0 -171.5 49zM144 -176q0 4 3 8l64 101q4 9 15 9h98q9 0 9 -7q0 -3 -3 -8l-81 -101q-6 -8 -15 -8h-81q-9 0 -9 6z" />
    <glyph glyph-name="uni021A" unicode="&#x21a;" horiz-adv-x="567" 
d="M602 696.5q3 -3.5 2 -8.5l-12 -98q0 -5 -4 -8.5t-9 -3.5h-173q-4 0 -6 -5l-69 -561q-1 -5 -4.5 -8.5t-8.5 -3.5h-113q-5 0 -8 3.5t-2 8.5l68 561q2 5 -4 5h-169q-5 0 -8 3.5t-2 8.5l12 98q1 5 4.5 8.5t8.5 3.5h489q5 0 8 -3.5zM119 -168q0 4 3 8l64 101q4 9 15 9h98
q9 0 9 -7q0 -3 -3 -8l-81 -101q-6 -8 -15 -8h-81q-9 0 -9 6z" />
    <glyph glyph-name="a" unicode="a" horiz-adv-x="547" 
d="M406.5 510.5q3.5 3.5 8.5 3.5h114q5 0 8 -3.5t2 -8.5l-60 -490q-1 -5 -4.5 -8.5t-8.5 -3.5h-114q-5 0 -8 3.5t-2 8.5l5 43q1 4 -1 4.5t-4 -2.5q-48 -65 -130 -65q-64 0 -109 40.5t-55 109.5q-3 21 -3 43q0 30 5 73q10 78 32 128q27 60 80.5 98t120.5 38q80 0 109 -58
q2 -3 3.5 -3t2.5 4l4 37q1 5 4.5 8.5zM363 205q5 18 9 51q4 27 4 47q0 17 -6 41q-5 26 -23 41.5t-46 15.5q-29 0 -51.5 -16t-34.5 -42q-16 -30 -22 -86q-4 -28 -4 -49q0 -19 5 -36q5 -27 24 -43t48 -16t50.5 16t33.5 43q8 15 13 33z" />
    <glyph glyph-name="aacute" unicode="&#xe1;" horiz-adv-x="512" 
d="M406.5 510.5q3.5 3.5 8.5 3.5h114q5 0 8 -3.5t2 -8.5l-60 -490q-1 -5 -4.5 -8.5t-8.5 -3.5h-114q-5 0 -8 3.5t-2 8.5l5 43q1 4 -1 4.5t-4 -2.5q-48 -65 -130 -65q-64 0 -109 40.5t-55 109.5q-3 21 -3 43q0 30 5 73q10 78 32 128q27 60 80.5 98t120.5 38q80 0 109 -58
q2 -3 3.5 -3t2.5 4l4 37q1 5 4.5 8.5zM363 205q5 18 9 51q4 27 4 47q0 17 -6 41q-5 26 -23 41.5t-46 15.5q-29 0 -51.5 -16t-34.5 -42q-16 -30 -22 -86q-4 -28 -4 -49q0 -19 5 -36q5 -27 24 -43t48 -16t50.5 16t33.5 43q8 15 13 33zM245 582q0 4 3 8l64 101q4 9 15 9h98
q9 0 9 -7q0 -3 -3 -8l-81 -101q-6 -8 -15 -8h-81q-9 0 -9 6z" />
    <glyph glyph-name="abreve" unicode="&#x103;" horiz-adv-x="512" 
d="M406.5 510.5q3.5 3.5 8.5 3.5h114q5 0 8 -3.5t2 -8.5l-60 -490q-1 -5 -4.5 -8.5t-8.5 -3.5h-114q-5 0 -8 3.5t-2 8.5l5 43q1 4 -1 4.5t-4 -2.5q-48 -65 -130 -65q-64 0 -109 40.5t-55 109.5q-3 21 -3 43q0 30 5 73q10 78 32 128q27 60 80.5 98t120.5 38q80 0 109 -58
q2 -3 3.5 -3t2.5 4l4 37q1 5 4.5 8.5zM363 205q5 18 9 51q4 27 4 47q0 17 -6 41q-5 26 -23 41.5t-46 15.5q-29 0 -51.5 -16t-34.5 -42q-16 -30 -22 -86q-4 -28 -4 -49q0 -19 5 -36q5 -27 24 -43t48 -16t50.5 16t33.5 43q8 15 13 33zM203.5 590q-38.5 33 -36.5 86q0 12 12 12
h65q9 0 11 -11q2 -21 18 -34t41 -13t44.5 13t26.5 34q3 11 13 11h65q5 0 7.5 -3t1.5 -7q-11 -53 -57.5 -87t-109.5 -34t-101.5 33z" />
    <glyph glyph-name="uni1EAF" unicode="&#x1eaf;" horiz-adv-x="512" 
d="M406.5 510.5q3.5 3.5 8.5 3.5h114q5 0 8 -3.5t2 -8.5l-60 -490q-1 -5 -4.5 -8.5t-8.5 -3.5h-114q-5 0 -8 3.5t-2 8.5l5 43q1 4 -1 4.5t-4 -2.5q-48 -65 -130 -65q-64 0 -109 40.5t-55 109.5q-3 21 -3 43q0 30 5 73q10 78 32 128q27 60 80.5 98t120.5 38q80 0 109 -58
q2 -3 3.5 -3t2.5 4l4 37q1 5 4.5 8.5zM363 205q5 18 9 51q4 27 4 47q0 17 -6 41q-5 26 -23 41.5t-46 15.5q-29 0 -51.5 -16t-34.5 -42q-16 -30 -22 -86q-4 -28 -4 -49q0 -19 5 -36q5 -27 24 -43t48 -16t50.5 16t33.5 43q8 15 13 33zM206.5 597.5q-38.5 31.5 -38.5 80.5
q0 14 12 14l58 -1q9 0 11 -11q1 -21 19.5 -34t46.5 -13t50 13t29 35q3 11 13 11h56q6 0 9 -2.5t1 -7.5q-10 -50 -57 -83t-110 -33q-61 0 -99.5 31.5zM269 737q0 4 3 8l64 101q4 9 15 9h98q9 0 9 -7q0 -3 -3 -8l-81 -101q-6 -8 -15 -8h-81q-9 0 -9 6z" />
    <glyph glyph-name="uni1EB7" unicode="&#x1eb7;" horiz-adv-x="512" 
d="M406.5 510.5q3.5 3.5 8.5 3.5h114q5 0 8 -3.5t2 -8.5l-60 -490q-1 -5 -4.5 -8.5t-8.5 -3.5h-114q-5 0 -8 3.5t-2 8.5l5 43q1 4 -1 4.5t-4 -2.5q-48 -65 -130 -65q-64 0 -109 40.5t-55 109.5q-3 21 -3 43q0 30 5 73q10 78 32 128q27 60 80.5 98t120.5 38q80 0 109 -58
q2 -3 3.5 -3t2.5 4l4 37q1 5 4.5 8.5zM363 205q5 18 9 51q4 27 4 47q0 17 -6 41q-5 26 -23 41.5t-46 15.5q-29 0 -51.5 -16t-34.5 -42q-16 -30 -22 -86q-4 -28 -4 -49q0 -19 5 -36q5 -27 24 -43t48 -16t50.5 16t33.5 43q8 15 13 33zM164 -198.5q-18 17.5 -18 45.5
q0 39 23.5 63t59.5 24q29 0 46.5 -17.5t17.5 -45.5q0 -37 -24 -62t-59 -25q-28 0 -46 17.5zM206.5 597.5q-38.5 31.5 -38.5 80.5q0 14 12 14l58 -1q9 0 11 -11q1 -21 19.5 -34t46.5 -13t50 13t29 35q3 11 13 11h56q6 0 9 -2.5t1 -7.5q-10 -50 -57 -83t-110 -33
q-61 0 -99.5 31.5z" />
    <glyph glyph-name="uni1EB1" unicode="&#x1eb1;" horiz-adv-x="512" 
d="M406.5 510.5q3.5 3.5 8.5 3.5h114q5 0 8 -3.5t2 -8.5l-60 -490q-1 -5 -4.5 -8.5t-8.5 -3.5h-114q-5 0 -8 3.5t-2 8.5l5 43q1 4 -1 4.5t-4 -2.5q-48 -65 -130 -65q-64 0 -109 40.5t-55 109.5q-3 21 -3 43q0 30 5 73q10 78 32 128q27 60 80.5 98t120.5 38q80 0 109 -58
q2 -3 3.5 -3t2.5 4l4 37q1 5 4.5 8.5zM363 205q5 18 9 51q4 27 4 47q0 17 -6 41q-5 26 -23 41.5t-46 15.5q-29 0 -51.5 -16t-34.5 -42q-16 -30 -22 -86q-4 -28 -4 -49q0 -19 5 -36q5 -27 24 -43t48 -16t50.5 16t33.5 43q8 15 13 33zM206.5 597.5q-38.5 31.5 -38.5 80.5
q0 14 12 14l58 -1q9 0 11 -11q1 -21 19.5 -34t46.5 -13t50 13t29 35q3 11 13 11h56q6 0 9 -2.5t1 -7.5q-10 -50 -57 -83t-110 -33q-61 0 -99.5 31.5zM379 740q0 -4 -3 -6.5t-7 -2.5h-82q-9 0 -12 8l-57 101q-2 4 -2 6q0 4 3.5 6.5t8.5 2.5h98q10 0 13 -9l39 -101q1 -2 1 -5z
" />
    <glyph glyph-name="uni1EB3" unicode="&#x1eb3;" horiz-adv-x="512" 
d="M406.5 510.5q3.5 3.5 8.5 3.5h114q5 0 8 -3.5t2 -8.5l-60 -490q-1 -5 -4.5 -8.5t-8.5 -3.5h-114q-5 0 -8 3.5t-2 8.5l5 43q1 4 -1 4.5t-4 -2.5q-48 -65 -130 -65q-64 0 -109 40.5t-55 109.5q-3 21 -3 43q0 30 5 73q10 78 32 128q27 60 80.5 98t120.5 38q80 0 109 -58
q2 -3 3.5 -3t2.5 4l4 37q1 5 4.5 8.5zM363 205q5 18 9 51q4 27 4 47q0 17 -6 41q-5 26 -23 41.5t-46 15.5q-29 0 -51.5 -16t-34.5 -42q-16 -30 -22 -86q-4 -28 -4 -49q0 -19 5 -36q5 -27 24 -43t48 -16t50.5 16t33.5 43q8 15 13 33zM206.5 597.5q-38.5 31.5 -38.5 80.5
q0 14 12 14l58 -1q9 0 11 -11q1 -21 19.5 -34t46.5 -13t50 13t29 35q3 11 13 11h56q6 0 9 -2.5t1 -7.5q-10 -50 -57 -83t-110 -33q-61 0 -99.5 31.5zM305 733q14 27 38 49q12 13 17 20.5t6 20.5q1 10 -6 17t-18 7q-13 0 -22.5 -6t-24.5 -24q-4 -5 -9 -6t-9 3l-30 25
q-4 3 -4 8t4 9q24 32 48 45.5t59 13.5q40 0 63 -20.5t23 -57.5q0 -29 -11.5 -47.5t-34.5 -39.5q-22 -20 -30 -32q-7 -10 -16 -8l-36 8q-13 3 -7 15z" />
    <glyph glyph-name="uni1EB5" unicode="&#x1eb5;" horiz-adv-x="512" 
d="M406.5 510.5q3.5 3.5 8.5 3.5h114q5 0 8 -3.5t2 -8.5l-60 -490q-1 -5 -4.5 -8.5t-8.5 -3.5h-114q-5 0 -8 3.5t-2 8.5l5 43q1 4 -1 4.5t-4 -2.5q-48 -65 -130 -65q-64 0 -109 40.5t-55 109.5q-3 21 -3 43q0 30 5 73q10 78 32 128q27 60 80.5 98t120.5 38q80 0 109 -58
q2 -3 3.5 -3t2.5 4l4 37q1 5 4.5 8.5zM363 205q5 18 9 51q4 27 4 47q0 17 -6 41q-5 26 -23 41.5t-46 15.5q-29 0 -51.5 -16t-34.5 -42q-16 -30 -22 -86q-4 -28 -4 -49q0 -19 5 -36q5 -27 24 -43t48 -16t50.5 16t33.5 43q8 15 13 33zM352.5 718q-11.5 4 -26.5 12
q-14 8 -23 11t-18 3q-26 0 -46 -17q-11 -10 -17 -1l-28 36q-4 4 -4 8q0 5 4 9q17 24 42 38.5t53 14.5q16 0 27.5 -4t21 -9l13.5 -7q13 -8 21.5 -11.5t18.5 -3.5q24 0 43 19q7 5 10 5q4 0 7 -4l25 -37q5 -8 1 -14q-14 -23 -39.5 -37.5t-56.5 -14.5q-17 0 -28.5 4z
M206.5 597.5q-38.5 31.5 -38.5 80.5q0 14 12 14l58 -1q9 0 11 -11q1 -21 19.5 -34t46.5 -13t50 13t29 35q3 11 13 11h56q6 0 8.5 -2.5t1.5 -7.5q-10 -50 -57 -83t-110 -33q-61 0 -99.5 31.5z" />
    <glyph glyph-name="uni01CE" unicode="&#x1ce;" horiz-adv-x="512" 
d="M406.5 510.5q3.5 3.5 8.5 3.5h114q5 0 8 -3.5t2 -8.5l-60 -490q-1 -5 -4.5 -8.5t-8.5 -3.5h-114q-5 0 -8 3.5t-2 8.5l5 43q1 4 -1 4.5t-4 -2.5q-48 -65 -130 -65q-64 0 -109 40.5t-55 109.5q-3 21 -3 43q0 30 5 73q10 78 32 128q27 60 80.5 98t120.5 38q80 0 109 -58
q2 -3 3.5 -3t2.5 4l4 37q1 5 4.5 8.5zM363 205q5 18 9 51q4 27 4 47q0 17 -6 41q-5 26 -23 41.5t-46 15.5q-29 0 -51.5 -16t-34.5 -42q-16 -30 -22 -86q-4 -28 -4 -49q0 -19 5 -36q5 -27 24 -43t48 -16t50.5 16t33.5 43q8 15 13 33zM175 690q0 4 3 6.5t8 2.5h88q9 0 12 -8
l32 -61q2 -7 5 0l47 61q5 8 14 8h88q9 0 9 -7q0 -3 -3 -8l-87 -106q-6 -7 -15 -7h-129q-9 0 -12 8l-58 105q-2 4 -2 6z" />
    <glyph glyph-name="acircumflex" unicode="&#xe2;" horiz-adv-x="512" 
d="M406.5 510.5q3.5 3.5 8.5 3.5h114q5 0 8 -3.5t2 -8.5l-60 -490q-1 -5 -4.5 -8.5t-8.5 -3.5h-114q-5 0 -8 3.5t-2 8.5l5 43q1 4 -1 4.5t-4 -2.5q-48 -65 -130 -65q-64 0 -109 40.5t-55 109.5q-3 21 -3 43q0 30 5 73q10 78 32 128q27 60 80.5 98t120.5 38q80 0 109 -58
q2 -3 3.5 -3t2.5 4l4 37q1 5 4.5 8.5zM363 205q5 18 9 51q4 27 4 47q0 17 -6 41q-5 26 -23 41.5t-46 15.5q-29 0 -51.5 -16t-34.5 -42q-16 -30 -22 -86q-4 -28 -4 -49q0 -19 5 -36q5 -27 24 -43t48 -16t50.5 16t33.5 43q8 15 13 33zM156 579q0 4 3 8l84 105q5 8 14 8h129
q9 0 13 -8l61 -105q2 -4 2 -6q0 -4 -3.5 -6.5t-8.5 -2.5h-87q-10 0 -13 8l-31 61q-3 6 -6 0l-46 -61q-6 -8 -15 -8h-87q-9 0 -9 7z" />
    <glyph glyph-name="uni1EA5" unicode="&#x1ea5;" horiz-adv-x="512" 
d="M406.5 510.5q3.5 3.5 8.5 3.5h114q5 0 8 -3.5t2 -8.5l-60 -490q-1 -5 -4.5 -8.5t-8.5 -3.5h-114q-5 0 -8 3.5t-2 8.5l5 43q1 4 -1 4.5t-4 -2.5q-48 -65 -130 -65q-64 0 -109 40.5t-55 109.5q-3 21 -3 43q0 30 5 73q10 78 32 128q27 60 80.5 98t120.5 38q80 0 109 -58
q2 -3 3.5 -3t2.5 4l4 37q1 5 4.5 8.5zM363 205q5 18 9 51q4 27 4 47q0 17 -6 41q-5 26 -23 41.5t-46 15.5q-29 0 -51.5 -16t-34.5 -42q-16 -30 -22 -86q-4 -28 -4 -49q0 -19 5 -36q5 -27 24 -43t48 -16t50.5 16t33.5 43q8 15 13 33zM156 579q0 4 3 8l84 105q5 8 14 8h129
q9 0 13 -8l61 -105q2 -4 2 -6q0 -4 -3.5 -6.5t-8.5 -2.5h-87q-10 0 -13 8l-31 61q-3 6 -6 0l-46 -61q-6 -8 -15 -8h-87q-9 0 -9 7zM463 657q0 4 3 8l64 101q4 9 15 9h98q9 0 9 -7q0 -3 -3 -8l-81 -101q-6 -8 -15 -8h-81q-9 0 -9 6z" />
    <glyph glyph-name="uni1EAD" unicode="&#x1ead;" horiz-adv-x="512" 
d="M406.5 510.5q3.5 3.5 8.5 3.5h114q5 0 8 -3.5t2 -8.5l-60 -490q-1 -5 -4.5 -8.5t-8.5 -3.5h-114q-5 0 -8 3.5t-2 8.5l5 43q1 4 -1 4.5t-4 -2.5q-48 -65 -130 -65q-64 0 -109 40.5t-55 109.5q-3 21 -3 43q0 30 5 73q10 78 32 128q27 60 80.5 98t120.5 38q80 0 109 -58
q2 -3 3.5 -3t2.5 4l4 37q1 5 4.5 8.5zM363 205q5 18 9 51q4 27 4 47q0 17 -6 41q-5 26 -23 41.5t-46 15.5q-29 0 -51.5 -16t-34.5 -42q-16 -30 -22 -86q-4 -28 -4 -49q0 -19 5 -36q5 -27 24 -43t48 -16t50.5 16t33.5 43q8 15 13 33zM164 -198.5q-18 17.5 -18 45.5
q0 39 23.5 63t59.5 24q29 0 46.5 -17.5t17.5 -45.5q0 -37 -24 -62t-59 -25q-28 0 -46 17.5zM156 579q0 4 3 8l84 105q5 8 14 8h129q9 0 13 -8l61 -105q2 -4 2 -6q0 -4 -3.5 -6.5t-8.5 -2.5h-87q-10 0 -13 8l-31 61q-3 6 -6 0l-46 -61q-6 -8 -15 -8h-87q-9 0 -9 7z" />
    <glyph glyph-name="uni1EA7" unicode="&#x1ea7;" horiz-adv-x="512" 
d="M406.5 510.5q3.5 3.5 8.5 3.5h114q5 0 8 -3.5t2 -8.5l-60 -490q-1 -5 -4.5 -8.5t-8.5 -3.5h-114q-5 0 -8 3.5t-2 8.5l5 43q1 4 -1 4.5t-4 -2.5q-48 -65 -130 -65q-64 0 -109 40.5t-55 109.5q-3 21 -3 43q0 30 5 73q10 78 32 128q27 60 80.5 98t120.5 38q80 0 109 -58
q2 -3 3.5 -3t2.5 4l4 37q1 5 4.5 8.5zM363 205q5 18 9 51q4 27 4 47q0 17 -6 41q-5 26 -23 41.5t-46 15.5q-29 0 -51.5 -16t-34.5 -42q-16 -30 -22 -86q-4 -28 -4 -49q0 -19 5 -36q5 -27 24 -43t48 -16t50.5 16t33.5 43q8 15 13 33zM156 579q0 4 3 8l84 105q5 8 14 8h129
q9 0 13 -8l61 -105q2 -4 2 -6q0 -4 -3.5 -6.5t-8.5 -2.5h-87q-10 0 -13 8l-31 61q-3 6 -6 0l-46 -61q-6 -8 -15 -8h-87q-9 0 -9 7zM553 703q0 -4 -3 -6.5t-7 -2.5h-82q-9 0 -12 8l-57 101q-2 4 -2 6q0 4 3.5 6.5t8.5 2.5h98q10 0 13 -9l39 -101q1 -2 1 -5z" />
    <glyph glyph-name="uni1EA9" unicode="&#x1ea9;" horiz-adv-x="512" 
d="M406.5 510.5q3.5 3.5 8.5 3.5h114q5 0 8 -3.5t2 -8.5l-60 -490q-1 -5 -4.5 -8.5t-8.5 -3.5h-114q-5 0 -8 3.5t-2 8.5l5 43q1 4 -1 4.5t-4 -2.5q-48 -65 -130 -65q-64 0 -109 40.5t-55 109.5q-3 21 -3 43q0 30 5 73q10 78 32 128q27 60 80.5 98t120.5 38q80 0 109 -58
q2 -3 3.5 -3t2.5 4l4 37q1 5 4.5 8.5zM363 205q5 18 9 51q4 27 4 47q0 17 -6 41q-5 26 -23 41.5t-46 15.5q-29 0 -51.5 -16t-34.5 -42q-16 -30 -22 -86q-4 -28 -4 -49q0 -19 5 -36q5 -27 24 -43t48 -16t50.5 16t33.5 43q8 15 13 33zM156 579q0 4 3 8l84 105q5 8 14 8h129
q9 0 13 -8l61 -105q2 -4 2 -6q0 -4 -3.5 -6.5t-8.5 -2.5h-87q-10 0 -13 8l-31 61q-3 6 -6 0l-46 -61q-6 -8 -15 -8h-87q-9 0 -9 7zM449 697q14 27 38 49q12 13 17 20.5t6 20.5q1 10 -6 17t-18 7q-13 0 -22.5 -6t-24.5 -24q-4 -5 -9 -6t-9 3l-30 25q-4 3 -4 8t4 9
q24 32 48 45.5t59 13.5q40 0 63 -20.5t23 -57.5q0 -29 -11.5 -47.5t-34.5 -39.5q-22 -20 -30 -32q-7 -10 -16 -8l-36 8q-13 3 -7 15z" />
    <glyph glyph-name="uni1EAB" unicode="&#x1eab;" horiz-adv-x="512" 
d="M406.5 510.5q3.5 3.5 8.5 3.5h114q5 0 8 -3.5t2 -8.5l-60 -490q-1 -5 -4.5 -8.5t-8.5 -3.5h-114q-5 0 -8 3.5t-2 8.5l5 43q1 4 -1 4.5t-4 -2.5q-48 -65 -130 -65q-64 0 -109 40.5t-55 109.5q-3 21 -3 43q0 30 5 73q10 78 32 128q27 60 80.5 98t120.5 38q80 0 109 -58
q2 -3 3.5 -3t2.5 4l4 37q1 5 4.5 8.5zM363 205q5 18 9 51q4 27 4 47q0 17 -6 41q-5 26 -23 41.5t-46 15.5q-29 0 -51.5 -16t-34.5 -42q-16 -30 -22 -86q-4 -28 -4 -49q0 -19 5 -36q5 -27 24 -43t48 -16t50.5 16t33.5 43q8 15 13 33zM156 579q0 4 3 8l84 105q5 8 14 8h129
q9 0 13 -8l61 -105q2 -4 2 -6q0 -4 -3.5 -6.5t-8.5 -2.5h-87q-10 0 -13 8l-31 61q-3 6 -6 0l-46 -61q-6 -8 -15 -8h-87q-9 0 -9 7zM355.5 736.5q-13.5 4.5 -29.5 13.5q-19 10 -28 13.5t-19 3.5q-31 0 -55 -22q-5 -5 -9 -5t-7 4l-34 44q-4 6 -4 9q0 4 3 8q20 28 49 45t62 17
q18 0 31.5 -5t24.5 -10.5t14 -7.5q17 -10 26 -14t20 -4q29 0 50 24q4 5 9 5q4 0 7 -4l31 -45q5 -8 1 -14q-16 -27 -45 -43.5t-64 -16.5q-20 0 -33.5 4.5z" />
    <glyph glyph-name="adieresis" unicode="&#xe4;" horiz-adv-x="512" 
d="M406.5 510.5q3.5 3.5 8.5 3.5h114q5 0 8 -3.5t2 -8.5l-60 -490q-1 -5 -4.5 -8.5t-8.5 -3.5h-114q-5 0 -8 3.5t-2 8.5l5 43q1 4 -1 4.5t-4 -2.5q-48 -65 -130 -65q-64 0 -109 40.5t-55 109.5q-3 21 -3 43q0 30 5 73q10 78 32 128q27 60 80.5 98t120.5 38q80 0 109 -58
q2 -3 3.5 -3t2.5 4l4 37q1 5 4.5 8.5zM363 205q5 18 9 51q4 27 4 47q0 17 -6 41q-5 26 -23 41.5t-46 15.5q-29 0 -51.5 -16t-34.5 -42q-16 -30 -22 -86q-4 -28 -4 -49q0 -19 5 -36q5 -27 24 -43t48 -16t50.5 16t33.5 43q8 15 13 33zM355 597.5q-19 19.5 -19 49.5
q0 38 25.5 63.5t62.5 25.5q31 0 49.5 -18.5t18.5 -49.5q0 -38 -26 -64t-62 -26q-30 0 -49 19.5zM162 597.5q-19 19.5 -19 49.5q0 38 25.5 63.5t62.5 25.5q31 0 49.5 -18.5t18.5 -49.5q0 -38 -26 -64t-62 -26q-30 0 -49 19.5z" />
    <glyph glyph-name="uni1EA1" unicode="&#x1ea1;" horiz-adv-x="512" 
d="M406.5 510.5q3.5 3.5 8.5 3.5h114q5 0 8 -3.5t2 -8.5l-60 -490q-1 -5 -4.5 -8.5t-8.5 -3.5h-114q-5 0 -8 3.5t-2 8.5l5 43q1 4 -1 4.5t-4 -2.5q-48 -65 -130 -65q-64 0 -109 40.5t-55 109.5q-3 21 -3 43q0 30 5 73q10 78 32 128q27 60 80.5 98t120.5 38q80 0 109 -58
q2 -3 3.5 -3t2.5 4l4 37q1 5 4.5 8.5zM363 205q5 18 9 51q4 27 4 47q0 17 -6 41q-5 26 -23 41.5t-46 15.5q-29 0 -51.5 -16t-34.5 -42q-16 -30 -22 -86q-4 -28 -4 -49q0 -19 5 -36q5 -27 24 -43t48 -16t50.5 16t33.5 43q8 15 13 33zM164 -198.5q-18 17.5 -18 45.5
q0 39 23.5 63t59.5 24q29 0 46.5 -17.5t17.5 -45.5q0 -37 -24 -62t-59 -25q-28 0 -46 17.5z" />
    <glyph glyph-name="agrave" unicode="&#xe0;" horiz-adv-x="512" 
d="M406.5 510.5q3.5 3.5 8.5 3.5h114q5 0 8 -3.5t2 -8.5l-60 -490q-1 -5 -4.5 -8.5t-8.5 -3.5h-114q-5 0 -8 3.5t-2 8.5l5 43q1 4 -1 4.5t-4 -2.5q-48 -65 -130 -65q-64 0 -109 40.5t-55 109.5q-3 21 -3 43q0 30 5 73q10 78 32 128q27 60 80.5 98t120.5 38q80 0 109 -58
q2 -3 3.5 -3t2.5 4l4 37q1 5 4.5 8.5zM363 205q5 18 9 51q4 27 4 47q0 17 -6 41q-5 26 -23 41.5t-46 15.5q-29 0 -51.5 -16t-34.5 -42q-16 -30 -22 -86q-4 -28 -4 -49q0 -19 5 -36q5 -27 24 -43t48 -16t50.5 16t33.5 43q8 15 13 33zM360 585q0 -4 -3 -6.5t-7 -2.5h-82
q-9 0 -12 8l-57 101q-2 4 -2 6q0 4 3.5 6.5t8.5 2.5h98q10 0 13 -9l39 -101q1 -2 1 -5z" />
    <glyph glyph-name="uni1EA3" unicode="&#x1ea3;" horiz-adv-x="512" 
d="M406.5 510.5q3.5 3.5 8.5 3.5h114q5 0 8 -3.5t2 -8.5l-60 -490q-1 -5 -4.5 -8.5t-8.5 -3.5h-114q-5 0 -8 3.5t-2 8.5l5 43q1 4 -1 4.5t-4 -2.5q-48 -65 -130 -65q-64 0 -109 40.5t-55 109.5q-3 21 -3 43q0 30 5 73q10 78 32 128q27 60 80.5 98t120.5 38q80 0 109 -58
q2 -3 3.5 -3t2.5 4l4 37q1 5 4.5 8.5zM363 205q5 18 9 51q4 27 4 47q0 17 -6 41q-5 26 -23 41.5t-46 15.5q-29 0 -51.5 -16t-34.5 -42q-16 -30 -22 -86q-4 -28 -4 -49q0 -19 5 -36q5 -27 24 -43t48 -16t50.5 16t33.5 43q8 15 13 33zM286 576q14 27 38 49q12 13 17 20.5
t6 20.5q1 10 -6 17t-18 7q-13 0 -22.5 -6t-24.5 -24q-4 -5 -9 -6t-9 3l-30 25q-4 3 -4 8t4 9q24 32 48 45.5t59 13.5q40 0 63 -20.5t23 -57.5q0 -29 -11.5 -47.5t-34.5 -39.5q-22 -20 -30 -32q-7 -10 -16 -8l-36 8q-13 3 -7 15z" />
    <glyph glyph-name="amacron" unicode="&#x101;" horiz-adv-x="512" 
d="M406.5 510.5q3.5 3.5 8.5 3.5h114q5 0 8 -3.5t2 -8.5l-60 -490q-1 -5 -4.5 -8.5t-8.5 -3.5h-114q-5 0 -8 3.5t-2 8.5l5 43q1 4 -1 4.5t-4 -2.5q-48 -65 -130 -65q-64 0 -109 40.5t-55 109.5q-3 21 -3 43q0 30 5 73q10 78 32 128q27 60 80.5 98t120.5 38q80 0 109 -58
q2 -3 3.5 -3t2.5 4l4 37q1 5 4.5 8.5zM363 205q5 18 9 51q4 27 4 47q0 17 -6 41q-5 26 -23 41.5t-46 15.5q-29 0 -51.5 -16t-34.5 -42q-16 -30 -22 -86q-4 -28 -4 -49q0 -19 5 -36q5 -27 24 -43t48 -16t50.5 16t33.5 43q8 15 13 33zM169 581.5q-3 3.5 -2 8.5l9 71
q1 5 4.5 8.5t8.5 3.5h262q5 0 8 -3.5t2 -8.5l-9 -71q-1 -5 -4.5 -8.5t-8.5 -3.5h-262q-5 0 -8 3.5z" />
    <glyph glyph-name="aogonek" unicode="&#x105;" horiz-adv-x="565" 
d="M467 -108q8 0 8 -10l1 -50q0 -11 -10 -14q-29 -11 -61 -11q-36 0 -60.5 18.5t-24.5 59.5q0 55 66 109q4 2 3 4t-4 2h-18q-11 0 -11 12l6 43q0 8 -6 2q-47 -65 -129 -65q-64 0 -109 40.5t-56 109.5q-3 21 -3 43q0 34 6 73q10 78 32 128q27 60 80.5 98t120.5 38
q79 0 108 -58q2 -3 4 -3t2 4l5 37q1 5 4.5 8.5t8.5 3.5h113q5 0 8 -3.5t2 -8.5l-60 -490l-2 -12l-5 -2q-37 -23 -56.5 -46t-15.5 -42q1 -11 8.5 -16.5t20.5 -5.5q9 0 19 3zM377.5 205q4.5 18 8.5 51q4 29 4 51q0 19 -5 37q-5 26 -23 41.5t-46 15.5q-30 0 -52.5 -16
t-34.5 -42q-14 -27 -22 -86q-3 -30 -3 -48q0 -24 4 -37q5 -27 24.5 -43t48.5 -16t50.5 16.5t32.5 42.5q9 15 13.5 33z" />
    <glyph glyph-name="aring" unicode="&#xe5;" horiz-adv-x="512" 
d="M406.5 510.5q3.5 3.5 8.5 3.5h114q5 0 8 -3.5t2 -8.5l-60 -490q-1 -5 -4.5 -8.5t-8.5 -3.5h-114q-5 0 -8 3.5t-2 8.5l5 43q1 4 -1 4.5t-4 -2.5q-48 -65 -130 -65q-64 0 -109 40.5t-55 109.5q-3 21 -3 43q0 30 5 73q10 78 32 128q27 60 80.5 98t120.5 38q80 0 109 -58
q2 -3 3.5 -3t2.5 4l4 37q1 5 4.5 8.5zM363 205q5 18 9 51q4 27 4 47q0 17 -6 41q-5 26 -23 41.5t-46 15.5q-29 0 -51.5 -16t-34.5 -42q-16 -30 -22 -86q-4 -28 -4 -49q0 -19 5 -36q5 -27 24 -43t48 -16t50.5 16t33.5 43q8 15 13 33zM229 593.5q-30 30.5 -30 77.5q0 38 19 70
t50.5 51t68.5 19q46 0 76 -30t30 -77q0 -38 -18.5 -70.5t-50.5 -51.5t-68 -19q-47 0 -77 30.5zM354 654q17 17 17 40q0 19 -12.5 31.5t-30.5 12.5q-22 0 -39 -16.5t-17 -40.5q0 -19 12.5 -31.5t31.5 -12.5q21 0 38 17z" />
    <glyph glyph-name="atilde" unicode="&#xe3;" horiz-adv-x="512" 
d="M406.5 510.5q3.5 3.5 8.5 3.5h114q5 0 8 -3.5t2 -8.5l-60 -490q-1 -5 -4.5 -8.5t-8.5 -3.5h-114q-5 0 -8 3.5t-2 8.5l5 43q1 4 -1 4.5t-4 -2.5q-48 -65 -130 -65q-64 0 -109 40.5t-55 109.5q-3 21 -3 43q0 30 5 73q10 78 32 128q27 60 80.5 98t120.5 38q80 0 109 -58
q2 -3 3.5 -3t2.5 4l4 37q1 5 4.5 8.5zM363 205q5 18 9 51q4 27 4 47q0 17 -6 41q-5 26 -23 41.5t-46 15.5q-29 0 -51.5 -16t-34.5 -42q-16 -30 -22 -86q-4 -28 -4 -49q0 -19 5 -36q5 -27 24 -43t48 -16t50.5 16t33.5 43q8 15 13 33zM335.5 577.5q-13.5 4.5 -29.5 13.5
q-19 10 -28 13.5t-19 3.5q-31 0 -55 -22q-5 -5 -9 -5t-7 4l-34 44q-4 6 -4 9q0 4 3 8q20 28 49 45t62 17q18 0 31.5 -5t24.5 -10.5t14 -7.5q17 -10 26 -14t20 -4q29 0 50 24q4 5 9 5q4 0 7 -4l31 -45q5 -8 1 -14q-16 -27 -45 -43.5t-64 -16.5q-20 0 -33.5 4.5z" />
    <glyph glyph-name="ae" unicode="&#xe6;" horiz-adv-x="813" 
d="M67.5 24.5q-46.5 32.5 -46.5 96.5q0 14 1 21q9 73 67 116.5t155 43.5h99q5 0 5 5l3 20l1 11q0 29 -18.5 46t-54.5 17q-29 0 -51 -11.5t-30 -30.5q-1 -5 -5 -8t-9 -2l-112 15q-12 2 -9 14q9 41 42 74t80.5 51.5t99.5 18.5q54 0 95.5 -22.5t58.5 -55.5q2 -4 6 0
q23 31 66.5 54.5t92.5 23.5q68 0 121.5 -40.5t66.5 -107.5q4 -24 4 -46q0 -42 -8 -103q-1 -13 -13 -13h-293q-5 0 -5 -5l-1 -10l1 -13q1 -35 28 -52t71 -17q68 0 107 44q8 10 16 2l52 -56q3 -4 3 -9q0 -3 -3 -8q-36 -44 -88.5 -70t-114.5 -26q-56 0 -98 22.5t-58 57.5
q-2 7 -5 2q-26 -36 -79 -59t-117 -23q-77 0 -123.5 32.5zM491 302h163q5 0 5 5l1 14q0 35 -20.5 57.5t-54.5 22.5q-30 0 -53.5 -17.5t-35.5 -45.5l-9 -31q-2 -5 4 -5zM296.5 116.5q31.5 22.5 35.5 60.5l4 30q0 5 -4 5h-71q-47 0 -74 -17t-27 -49q0 -23 17 -37.5t49 -14.5
q39 0 70.5 22.5z" />
    <glyph glyph-name="b" unicode="b" horiz-adv-x="549" 
d="M526 314q0 -26 -3 -55q-10 -69 -32 -121q-30 -68 -84 -107t-121 -39q-71 0 -105 55q-1 2 -3 1.5t-3 -3.5l-4 -33q-1 -5 -4.5 -8.5t-8.5 -3.5h-113q-11 0 -11 12l83 676q1 5 5 8.5t9 3.5h113q5 0 8 -3.5t2 -8.5l-26 -214q-1 -3 1 -4t4 2q45 50 114 50q71 0 114.5 -37.5
t57.5 -101.5q7 -31 7 -69zM381 256q2 14 2 38q0 43 -13 68q-18 39 -64 39q-42 0 -69 -39q-26 -37 -35 -105q-3 -21 -3 -41q0 -37 10 -60q19 -43 63 -43q47 0 76 43q25 37 33 100z" />
    <glyph glyph-name="c" unicode="c" horiz-adv-x="521" 
d="M120 32q-52 40 -68 110q-6 29 -6 61q0 17 4 57q8 64 31 116q32 68 94 107t139 39q78 0 131.5 -40t65.5 -101q4 -15 4 -36q0 -5 -3.5 -8.5t-8.5 -4.5l-113 -17h-2q-10 0 -10 10l-1 16q-4 26 -25 43t-53 17q-31 0 -54.5 -16t-35.5 -44q-15 -32 -21 -82q-3 -25 -3 -46
q0 -22 3 -36q5 -30 24 -47t51 -17q31 0 55.5 16.5t36.5 45.5q2 4 2 6q1 1 1 3q3 12 15 10l109 -18q11 -2 9 -13q-4 -16 -10 -28q-29 -67 -92 -105t-140 -38t-129 40z" />
    <glyph glyph-name="cacute" unicode="&#x107;" horiz-adv-x="521" 
d="M120 32q-52 40 -68 110q-6 29 -6 61q0 17 4 57q8 64 31 116q32 68 94 107t139 39q78 0 131.5 -40t65.5 -101q4 -15 4 -36q0 -5 -3.5 -8.5t-8.5 -4.5l-113 -17h-2q-10 0 -10 10l-1 16q-4 26 -25 43t-53 17q-31 0 -54.5 -16t-35.5 -44q-15 -32 -21 -82q-3 -25 -3 -46
q0 -22 3 -36q5 -30 24 -47t51 -17q31 0 55.5 16.5t36.5 45.5q2 4 2 6q1 1 1 3q3 12 15 10l109 -18q11 -2 9 -13q-4 -16 -10 -28q-29 -67 -92 -105t-140 -38t-129 40zM255 582q0 4 3 8l64 101q4 9 15 9h98q9 0 9 -7q0 -3 -3 -8l-81 -101q-6 -8 -15 -8h-81q-9 0 -9 6z" />
    <glyph glyph-name="ccaron" unicode="&#x10d;" horiz-adv-x="521" 
d="M120 32q-52 40 -68 110q-6 29 -6 61q0 17 4 57q8 64 31 116q32 68 94 107t139 39q78 0 131.5 -40t65.5 -101q4 -15 4 -36q0 -5 -3.5 -8.5t-8.5 -4.5l-113 -17h-2q-10 0 -10 10l-1 16q-4 26 -25 43t-53 17q-31 0 -54.5 -16t-35.5 -44q-15 -32 -21 -82q-3 -25 -3 -46
q0 -22 3 -36q5 -30 24 -47t51 -17q31 0 55.5 16.5t36.5 45.5q2 4 2 6q1 1 1 3q3 12 15 10l109 -18q11 -2 9 -13q-4 -16 -10 -28q-29 -67 -92 -105t-140 -38t-129 40zM186 691q0 4 3 6.5t8 2.5h88q9 0 12 -8l32 -61q2 -7 5 0l47 61q5 8 14 8h88q9 0 9 -7q0 -3 -3 -8l-87 -106
q-6 -7 -15 -7h-129q-9 0 -12 8l-58 105q-2 4 -2 6z" />
    <glyph glyph-name="ccedilla" unicode="&#xe7;" horiz-adv-x="521" 
d="M357 181q1 1 1 3q3 12 15 10l109 -18q11 -2 9 -13q-4 -16 -10 -28q-24 -55 -72 -91.5t-110 -47.5q-6 0 -2 -6q33 -38 33 -77q0 -14 -7 -35q-14 -34 -41 -49t-59 -15q-30 0 -58 11q-10 3 -7 15l13 49q3 12 15 9q9 -3 19 -3q12 0 21 5.5t13 16.5q3 7 3 14q0 29 -41 64l-6 3
q-56 12 -93 49.5t-50 94.5q-6 29 -6 61q0 17 4 57q8 64 31 116q32 68 94 107t139 39q78 0 131.5 -40t65.5 -101q4 -15 4 -36q0 -5 -3.5 -8.5t-8.5 -4.5l-113 -17h-2q-10 0 -10 10l-1 16q-4 26 -25 43t-53 17q-31 0 -54.5 -16t-35.5 -44q-15 -32 -21 -82q-3 -25 -3 -46
q0 -22 3 -36q5 -30 24 -47t51 -17q31 0 55.5 16.5t36.5 45.5q2 4 2 6z" />
    <glyph glyph-name="ccircumflex" unicode="&#x109;" horiz-adv-x="521" 
d="M120 32q-52 40 -68 110q-6 29 -6 61q0 17 4 57q8 64 31 116q32 68 94 107t139 39q78 0 131.5 -40t65.5 -101q4 -15 4 -36q0 -5 -3.5 -8.5t-8.5 -4.5l-113 -17h-2q-10 0 -10 10l-1 16q-4 26 -25 43t-53 17q-31 0 -54.5 -16t-35.5 -44q-15 -32 -21 -82q-3 -25 -3 -46
q0 -22 3 -36q5 -30 24 -47t51 -17q31 0 55.5 16.5t36.5 45.5q2 4 2 6q1 1 1 3q3 12 15 10l109 -18q11 -2 9 -13q-4 -16 -10 -28q-29 -67 -92 -105t-140 -38t-129 40zM166 579q0 4 3 8l84 105q5 8 14 8h129q9 0 13 -8l61 -105q2 -4 2 -6q0 -4 -3.5 -6.5t-8.5 -2.5h-87
q-10 0 -13 8l-31 61q-3 6 -6 0l-46 -61q-6 -8 -15 -8h-87q-9 0 -9 7z" />
    <glyph glyph-name="cdotaccent" unicode="&#x10b;" horiz-adv-x="521" 
d="M120 32q-52 40 -68 110q-6 29 -6 61q0 17 4 57q8 64 31 116q32 68 94 107t139 39q78 0 131.5 -40t65.5 -101q4 -15 4 -36q0 -5 -3.5 -8.5t-8.5 -4.5l-113 -17h-2q-10 0 -10 10l-1 16q-4 26 -25 43t-53 17q-31 0 -54.5 -16t-35.5 -44q-15 -32 -21 -82q-3 -25 -3 -46
q0 -22 3 -36q5 -30 24 -47t51 -17q31 0 55.5 16.5t36.5 45.5q2 4 2 6q1 1 1 3q3 12 15 10l109 -18q11 -2 9 -13q-4 -16 -10 -28q-29 -67 -92 -105t-140 -38t-129 40zM268 591.5q-19 19.5 -19 49.5q0 38 25.5 63.5t62.5 25.5q31 0 49.5 -18.5t18.5 -49.5q0 -38 -26 -64
t-62 -26q-30 0 -49 19.5z" />
    <glyph glyph-name="d" unicode="d" horiz-adv-x="549" 
d="M429.5 696.5q3.5 3.5 8.5 3.5h114q5 0 8 -3.5t2 -8.5l-83 -676q-1 -5 -4.5 -8.5t-8.5 -3.5h-114q-5 0 -8 3.5t-2 8.5l4 33q0 7 -6 2q-47 -55 -118 -55q-68 0 -112 39t-57 107q-6 30 -6 63q0 18 4 58q10 72 33 124q30 64 83 101.5t123 37.5q69 0 103 -50q1 -3 3 -2t3 4
l26 214q1 5 4.5 8.5zM371 257q3 23 3 42q0 36 -11 63q-19 39 -61 39q-46 0 -73 -39q-29 -38 -38 -106q-2 -22 -2 -33q0 -39 11 -67q19 -43 66 -43q43 0 73 43q24 36 32 101z" />
    <glyph glyph-name="eth" unicode="&#xf0;" horiz-adv-x="533" 
d="M503 322q0 -41 -6 -88q-7 -65 -27 -107q-31 -61 -92.5 -98t-135.5 -37t-125 36.5t-67 98.5q-6 27 -6 56q0 24 3 51q8 66 29 106q17 36 47 63t67 38q40 16 96 16q44 0 66 -11q2 -2 3.5 -1t0.5 4q-11 42 -31 80q-2 5 -6 3l-100 -27l-3 -1q-8 0 -10 10l-7 51v2q0 10 10 13
l68 18q5 2 3 7q-23 33 -63 80q-3 5 -3 7q0 8 11 8h119q9 0 13 -7l40 -60q1 -4 6 -2l86 23l3 1q8 0 10 -10l6 -51v-3q0 -9 -10 -12l-51 -13q-2 -1 -3.5 -3t0.5 -4q26 -48 40.5 -94.5t16.5 -98.5q2 -28 2 -44zM359 230q3 23 3 38q0 20 -4 32q-5 27 -24 42.5t-47 15.5
t-50.5 -15.5t-33.5 -42.5q-13 -26 -19 -70q-2 -13 -2 -33q0 -17 4 -39q5 -27 23.5 -43.5t46.5 -16.5q27 0 49.5 16t34.5 44q13 24 19 72z" />
    <glyph glyph-name="dcaron" unicode="&#x10f;" horiz-adv-x="549" 
d="M429.5 696.5q3.5 3.5 8.5 3.5h114q5 0 8 -3.5t2 -8.5l-83 -676q-1 -5 -4.5 -8.5t-8.5 -3.5h-114q-5 0 -8 3.5t-2 8.5l4 33q0 7 -6 2q-47 -55 -118 -55q-68 0 -112 39t-57 107q-6 30 -6 63q0 18 4 58q10 72 33 124q30 64 83 101.5t123 37.5q69 0 103 -50q1 -3 3 -2t3 4
l26 214q1 5 4.5 8.5zM371 257q3 23 3 42q0 36 -11 63q-19 39 -61 39q-46 0 -73 -39q-29 -38 -38 -106q-2 -22 -2 -33q0 -39 11 -67q19 -43 66 -43q43 0 73 43q24 36 32 101zM568 582q0 4 3 8l64 101q4 9 15 9h98q9 0 9 -7q0 -3 -3 -8l-81 -101q-6 -8 -15 -8h-81q-9 0 -9 6z
" />
    <glyph glyph-name="dcroat" unicode="&#x111;" horiz-adv-x="549" 
d="M601 639.5q3 -3.5 2 -8.5l-7 -61q-1 -5 -4.5 -8.5t-8.5 -3.5h-32q-4 0 -6 -5l-66 -541q-1 -5 -4.5 -8.5t-8.5 -3.5h-114q-5 0 -8 3.5t-2 8.5l4 33q0 7 -6 2q-47 -55 -118 -55q-68 0 -112 39t-57 107q-6 30 -6 63q0 18 4 58q10 72 33 124q30 64 83 101.5t123 37.5
q69 0 103 -50q1 -3 3 -2t3 4l9 79q2 5 -4 5h-141q-5 0 -8.5 3.5t-2.5 8.5l8 61q1 5 4.5 8.5t8.5 3.5h142q2 0 3.5 1.5t1.5 3.5l5 40q1 5 4.5 8.5t8.5 3.5h114q5 0 8 -3.5t2 -8.5l-5 -40q-2 -5 4 -5h32q5 0 8 -3.5zM371 257q3 23 3 42q0 36 -11 63q-19 39 -61 39
q-46 0 -73 -39q-29 -38 -38 -106q-2 -22 -2 -33q0 -39 11 -67q19 -43 66 -43q43 0 73 43q24 36 32 101z" />
    <glyph glyph-name="e" unicode="e" 
d="M504 225q-3 -12 -14 -12h-300q-5 0 -5 -5q1 -22 6 -40q20 -56 96 -56q61 1 105 52q8 11 15 2l62 -71q3 -4 3 -8q0 -5 -4 -9q-37 -41 -90.5 -63.5t-113.5 -22.5q-83 0 -136 39t-70 109q-8 28 -8 71q0 24 3 51q4 56 27 106q31 71 92.5 113t137.5 42q97 0 148 -58t52 -155
q1 -31 -6 -85zM208 342q-8 -20 -11 -32q0 -5 4 -5h168q5 0 5 5q0 12 -2 28q-5 30 -24.5 46.5t-51.5 16.5q-62 0 -88 -59z" />
    <glyph glyph-name="eacute" unicode="&#xe9;" horiz-adv-x="528" 
d="M504 225q-3 -12 -14 -12h-300q-5 0 -5 -5q1 -22 6 -40q20 -56 96 -56q61 1 105 52q8 11 15 2l62 -71q3 -4 3 -8q0 -5 -4 -9q-37 -41 -90.5 -63.5t-113.5 -22.5q-83 0 -136 39t-70 109q-8 28 -8 71q0 24 3 51q4 56 27 106q31 71 92.5 113t137.5 42q97 0 148 -58t52 -155
q1 -31 -6 -85zM208 342q-8 -20 -11 -32q0 -5 4 -5h168q5 0 5 5q0 12 -2 28q-5 30 -24.5 46.5t-51.5 16.5q-62 0 -88 -59zM252 582q0 4 3 8l64 101q4 9 15 9h98q9 0 9 -7q0 -3 -3 -8l-81 -101q-6 -8 -15 -8h-81q-9 0 -9 6z" />
    <glyph glyph-name="ecaron" unicode="&#x11b;" horiz-adv-x="528" 
d="M504 225q-3 -12 -14 -12h-300q-5 0 -5 -5q1 -22 6 -40q20 -56 96 -56q61 1 105 52q8 11 15 2l62 -71q3 -4 3 -8q0 -5 -4 -9q-37 -41 -90.5 -63.5t-113.5 -22.5q-83 0 -136 39t-70 109q-8 28 -8 71q0 24 3 51q4 56 27 106q31 71 92.5 113t137.5 42q97 0 148 -58t52 -155
q1 -31 -6 -85zM208 342q-8 -20 -11 -32q0 -5 4 -5h168q5 0 5 5q0 12 -2 28q-5 30 -24.5 46.5t-51.5 16.5q-62 0 -88 -59zM182 690q0 4 3 6.5t8 2.5h88q9 0 12 -8l32 -61q2 -7 5 0l47 61q5 8 14 8h88q9 0 9 -7q0 -3 -3 -8l-87 -106q-6 -7 -15 -7h-129q-9 0 -12 8l-58 105
q-2 4 -2 6z" />
    <glyph glyph-name="uni0229" unicode="&#x229;" horiz-adv-x="528" 
d="M504 225q-3 -12 -14 -12h-300q-5 0 -5 -5q1 -22 6 -40q20 -56 96 -56q61 1 105 52q8 11 15 2l62 -71q3 -4 3 -8q0 -5 -4 -9q-30 -33 -70 -54t-85 -28q-6 -1 -3 -6q33 -39 33 -77q0 -19 -7 -36q-13 -34 -40 -49t-59 -15q-31 0 -59 11q-5 2 -6.5 6t-0.5 9l13 49q1 6 5.5 8
t9.5 0q9 -3 19 -3q26 0 35 23q2 4 2 13q0 29 -39 65l-6 3q-61 10 -99.5 47.5t-52.5 95.5q-8 28 -8 71q0 24 3 51q4 56 27 106q31 71 92.5 113t137.5 42q97 0 148 -58t52 -155q1 -31 -6 -85zM208 342q-8 -20 -11 -32q0 -5 4 -5h168q5 0 5 5q0 12 -2 28q-5 30 -24.5 46.5
t-51.5 16.5q-62 0 -88 -59z" />
    <glyph glyph-name="ecircumflex" unicode="&#xea;" horiz-adv-x="528" 
d="M504 225q-3 -12 -14 -12h-300q-5 0 -5 -5q1 -22 6 -40q20 -56 96 -56q61 1 105 52q8 11 15 2l62 -71q3 -4 3 -8q0 -5 -4 -9q-37 -41 -90.5 -63.5t-113.5 -22.5q-83 0 -136 39t-70 109q-8 28 -8 71q0 24 3 51q4 56 27 106q31 71 92.5 113t137.5 42q97 0 148 -58t52 -155
q1 -31 -6 -85zM208 342q-8 -20 -11 -32q0 -5 4 -5h168q5 0 5 5q0 12 -2 28q-5 30 -24.5 46.5t-51.5 16.5q-62 0 -88 -59zM163 579q0 4 3 8l84 105q5 8 14 8h129q9 0 13 -8l61 -105q2 -4 2 -6q0 -4 -3.5 -6.5t-8.5 -2.5h-87q-10 0 -13 8l-31 61q-3 6 -6 0l-46 -61
q-6 -8 -15 -8h-87q-9 0 -9 7z" />
    <glyph glyph-name="uni1EBF" unicode="&#x1ebf;" horiz-adv-x="528" 
d="M504 225q-3 -12 -14 -12h-300q-5 0 -5 -5q1 -22 6 -40q20 -56 96 -56q61 1 105 52q8 11 15 2l62 -71q3 -4 3 -8q0 -5 -4 -9q-37 -41 -90.5 -63.5t-113.5 -22.5q-83 0 -136 39t-70 109q-8 28 -8 71q0 24 3 51q4 56 27 106q31 71 92.5 113t137.5 42q97 0 148 -58t52 -155
q1 -31 -6 -85zM208 342q-8 -20 -11 -32q0 -5 4 -5h168q5 0 5 5q0 12 -2 28q-5 30 -24.5 46.5t-51.5 16.5q-62 0 -88 -59zM163 579q0 4 3 8l84 105q5 8 14 8h129q9 0 13 -8l61 -105q2 -4 2 -6q0 -4 -3.5 -6.5t-8.5 -2.5h-87q-10 0 -13 8l-31 61q-3 6 -6 0l-46 -61
q-6 -8 -15 -8h-87q-9 0 -9 7zM470 657q0 4 3 8l64 101q4 9 15 9h98q9 0 9 -7q0 -3 -3 -8l-81 -101q-6 -8 -15 -8h-81q-9 0 -9 6z" />
    <glyph glyph-name="uni1EC7" unicode="&#x1ec7;" horiz-adv-x="528" 
d="M504 225q-3 -12 -14 -12h-300q-5 0 -5 -5q1 -22 6 -40q20 -56 96 -56q61 1 105 52q8 11 15 2l62 -71q3 -4 3 -8q0 -5 -4 -9q-37 -41 -90.5 -63.5t-113.5 -22.5q-83 0 -136 39t-70 109q-8 28 -8 71q0 24 3 51q4 56 27 106q31 71 92.5 113t137.5 42q97 0 148 -58t52 -155
q1 -31 -6 -85zM208 342q-8 -20 -11 -32q0 -5 4 -5h168q5 0 5 5q0 12 -2 28q-5 30 -24.5 46.5t-51.5 16.5q-62 0 -88 -59zM183 -207.5q-18 17.5 -18 45.5q0 39 23.5 63t59.5 24q29 0 46.5 -17.5t17.5 -45.5q0 -37 -24 -62t-59 -25q-28 0 -46 17.5zM163 579q0 4 3 8l84 105
q5 8 14 8h129q9 0 13 -8l61 -105q2 -4 2 -6q0 -4 -3.5 -6.5t-8.5 -2.5h-87q-10 0 -13 8l-31 61q-3 6 -6 0l-46 -61q-6 -8 -15 -8h-87q-9 0 -9 7z" />
    <glyph glyph-name="uni1EC1" unicode="&#x1ec1;" horiz-adv-x="528" 
d="M504 225q-3 -12 -14 -12h-300q-5 0 -5 -5q1 -22 6 -40q20 -56 96 -56q61 1 105 52q8 11 15 2l62 -71q3 -4 3 -8q0 -5 -4 -9q-37 -41 -90.5 -63.5t-113.5 -22.5q-83 0 -136 39t-70 109q-8 28 -8 71q0 24 3 51q4 56 27 106q31 71 92.5 113t137.5 42q97 0 148 -58t52 -155
q1 -31 -6 -85zM208 342q-8 -20 -11 -32q0 -5 4 -5h168q5 0 5 5q0 12 -2 28q-5 30 -24.5 46.5t-51.5 16.5q-62 0 -88 -59zM163 579q0 4 3 8l84 105q5 8 14 8h129q9 0 13 -8l61 -105q2 -4 2 -6q0 -4 -3.5 -6.5t-8.5 -2.5h-87q-10 0 -13 8l-31 61q-3 6 -6 0l-46 -61
q-6 -8 -15 -8h-87q-9 0 -9 7zM560 703q0 -4 -3 -6.5t-7 -2.5h-82q-9 0 -12 8l-57 101q-2 4 -2 6q0 4 3.5 6.5t8.5 2.5h98q10 0 13 -9l39 -101q1 -2 1 -5z" />
    <glyph glyph-name="uni1EC3" unicode="&#x1ec3;" horiz-adv-x="528" 
d="M504 225q-3 -12 -14 -12h-300q-5 0 -5 -5q1 -22 6 -40q20 -56 96 -56q61 1 105 52q8 11 15 2l62 -71q3 -4 3 -8q0 -5 -4 -9q-37 -41 -90.5 -63.5t-113.5 -22.5q-83 0 -136 39t-70 109q-8 28 -8 71q0 24 3 51q4 56 27 106q31 71 92.5 113t137.5 42q97 0 148 -58t52 -155
q1 -31 -6 -85zM208 342q-8 -20 -11 -32q0 -5 4 -5h168q5 0 5 5q0 12 -2 28q-5 30 -24.5 46.5t-51.5 16.5q-62 0 -88 -59zM163 579q0 4 3 8l84 105q5 8 14 8h129q9 0 13 -8l61 -105q2 -4 2 -6q0 -4 -3.5 -6.5t-8.5 -2.5h-87q-10 0 -13 8l-31 61q-3 6 -6 0l-46 -61
q-6 -8 -15 -8h-87q-9 0 -9 7zM456 697q14 27 38 49q12 13 17 20.5t6 20.5q1 10 -6 17t-18 7q-13 0 -22.5 -6t-24.5 -24q-4 -5 -9 -6t-9 3l-30 25q-4 3 -4 8t4 9q24 32 48 45.5t59 13.5q40 0 63 -20.5t23 -57.5q0 -29 -11.5 -47.5t-34.5 -39.5q-22 -20 -30 -32q-7 -10 -16 -8
l-36 8q-13 3 -7 15z" />
    <glyph glyph-name="uni1EC5" unicode="&#x1ec5;" horiz-adv-x="528" 
d="M504 225q-3 -12 -14 -12h-300q-5 0 -5 -5q1 -22 6 -40q20 -56 96 -56q61 1 105 52q8 11 15 2l62 -71q3 -4 3 -8q0 -5 -4 -9q-37 -41 -90.5 -63.5t-113.5 -22.5q-83 0 -136 39t-70 109q-8 28 -8 71q0 24 3 51q4 56 27 106q31 71 92.5 113t137.5 42q97 0 148 -58t52 -155
q1 -31 -6 -85zM208 342q-8 -20 -11 -32q0 -5 4 -5h168q5 0 5 5q0 12 -2 28q-5 30 -24.5 46.5t-51.5 16.5q-62 0 -88 -59zM163 579q0 4 3 8l84 105q5 8 14 8h129q9 0 13 -8l61 -105q2 -4 2 -6q0 -4 -3.5 -6.5t-8.5 -2.5h-87q-10 0 -13 8l-31 61q-3 6 -6 0l-46 -61
q-6 -8 -15 -8h-87q-9 0 -9 7zM362.5 736.5q-13.5 4.5 -29.5 13.5q-19 10 -28 13.5t-19 3.5q-31 0 -55 -22q-5 -5 -9 -5t-7 4l-34 44q-4 6 -4 9q0 4 3 8q20 28 49 45t62 17q18 0 31.5 -5t24.5 -10.5t14 -7.5q17 -10 26 -14t20 -4q29 0 50 24q4 5 9 5q4 0 7 -4l31 -45
q5 -8 1 -14q-16 -27 -45 -43.5t-64 -16.5q-20 0 -33.5 4.5z" />
    <glyph glyph-name="edieresis" unicode="&#xeb;" horiz-adv-x="528" 
d="M504 225q-3 -12 -14 -12h-300q-5 0 -5 -5q1 -22 6 -40q20 -56 96 -56q61 1 105 52q8 11 15 2l62 -71q3 -4 3 -8q0 -5 -4 -9q-37 -41 -90.5 -63.5t-113.5 -22.5q-83 0 -136 39t-70 109q-8 28 -8 71q0 24 3 51q4 56 27 106q31 71 92.5 113t137.5 42q97 0 148 -58t52 -155
q1 -31 -6 -85zM208 342q-8 -20 -11 -32q0 -5 4 -5h168q5 0 5 5q0 12 -2 28q-5 30 -24.5 46.5t-51.5 16.5q-62 0 -88 -59zM362 597.5q-19 19.5 -19 49.5q0 38 25.5 63.5t62.5 25.5q31 0 49.5 -18.5t18.5 -49.5q0 -38 -26 -64t-62 -26q-30 0 -49 19.5zM169 597.5
q-19 19.5 -19 49.5q0 38 25.5 63.5t62.5 25.5q31 0 49.5 -18.5t18.5 -49.5q0 -38 -26 -64t-62 -26q-30 0 -49 19.5z" />
    <glyph glyph-name="edotaccent" unicode="&#x117;" horiz-adv-x="528" 
d="M504 225q-3 -12 -14 -12h-300q-5 0 -5 -5q1 -22 6 -40q20 -56 96 -56q61 1 105 52q8 11 15 2l62 -71q3 -4 3 -8q0 -5 -4 -9q-37 -41 -90.5 -63.5t-113.5 -22.5q-83 0 -136 39t-70 109q-8 28 -8 71q0 24 3 51q4 56 27 106q31 71 92.5 113t137.5 42q97 0 148 -58t52 -155
q1 -31 -6 -85zM208 342q-8 -20 -11 -32q0 -5 4 -5h168q5 0 5 5q0 12 -2 28q-5 30 -24.5 46.5t-51.5 16.5q-62 0 -88 -59zM264 591.5q-19 19.5 -19 49.5q0 38 25.5 63.5t62.5 25.5q31 0 49.5 -18.5t18.5 -49.5q0 -38 -26 -64t-62 -26q-30 0 -49 19.5z" />
    <glyph glyph-name="uni1EB9" unicode="&#x1eb9;" horiz-adv-x="528" 
d="M504 225q-3 -12 -14 -12h-300q-5 0 -5 -5q1 -22 6 -40q20 -56 96 -56q61 1 105 52q8 11 15 2l62 -71q3 -4 3 -8q0 -5 -4 -9q-37 -41 -90.5 -63.5t-113.5 -22.5q-83 0 -136 39t-70 109q-8 28 -8 71q0 24 3 51q4 56 27 106q31 71 92.5 113t137.5 42q97 0 148 -58t52 -155
q1 -31 -6 -85zM208 342q-8 -20 -11 -32q0 -5 4 -5h168q5 0 5 5q0 12 -2 28q-5 30 -24.5 46.5t-51.5 16.5q-62 0 -88 -59zM183 -207.5q-18 17.5 -18 45.5q0 39 23.5 63t59.5 24q29 0 46.5 -17.5t17.5 -45.5q0 -37 -24 -62t-59 -25q-28 0 -46 17.5z" />
    <glyph glyph-name="egrave" unicode="&#xe8;" horiz-adv-x="528" 
d="M504 225q-3 -12 -14 -12h-300q-5 0 -5 -5q1 -22 6 -40q20 -56 96 -56q61 1 105 52q8 11 15 2l62 -71q3 -4 3 -8q0 -5 -4 -9q-37 -41 -90.5 -63.5t-113.5 -22.5q-83 0 -136 39t-70 109q-8 28 -8 71q0 24 3 51q4 56 27 106q31 71 92.5 113t137.5 42q97 0 148 -58t52 -155
q1 -31 -6 -85zM208 342q-8 -20 -11 -32q0 -5 4 -5h168q5 0 5 5q0 12 -2 28q-5 30 -24.5 46.5t-51.5 16.5q-62 0 -88 -59zM367 585q0 -4 -3 -6.5t-7 -2.5h-82q-9 0 -12 8l-57 101q-2 4 -2 6q0 4 3.5 6.5t8.5 2.5h98q10 0 13 -9l39 -101q1 -2 1 -5z" />
    <glyph glyph-name="uni1EBB" unicode="&#x1ebb;" horiz-adv-x="528" 
d="M504 225q-3 -12 -14 -12h-300q-5 0 -5 -5q1 -22 6 -40q20 -56 96 -56q61 1 105 52q8 11 15 2l62 -71q3 -4 3 -8q0 -5 -4 -9q-37 -41 -90.5 -63.5t-113.5 -22.5q-83 0 -136 39t-70 109q-8 28 -8 71q0 24 3 51q4 56 27 106q31 71 92.5 113t137.5 42q97 0 148 -58t52 -155
q1 -31 -6 -85zM208 342q-8 -20 -11 -32q0 -5 4 -5h168q5 0 5 5q0 12 -2 28q-5 30 -24.5 46.5t-51.5 16.5q-62 0 -88 -59zM293 576q14 27 38 49q12 13 17 20.5t6 20.5q1 10 -6 17t-18 7q-13 0 -22.5 -6t-24.5 -24q-4 -5 -9 -6t-9 3l-30 25q-4 3 -4 8t4 9q24 32 48 45.5
t59 13.5q40 0 63 -20.5t23 -57.5q0 -29 -11.5 -47.5t-34.5 -39.5q-22 -20 -30 -32q-7 -10 -16 -8l-36 8q-13 3 -7 15z" />
    <glyph glyph-name="emacron" unicode="&#x113;" horiz-adv-x="528" 
d="M504 225q-3 -12 -14 -12h-300q-5 0 -5 -5q1 -22 6 -40q20 -56 96 -56q61 1 105 52q8 11 15 2l62 -71q3 -4 3 -8q0 -5 -4 -9q-37 -41 -90.5 -63.5t-113.5 -22.5q-83 0 -136 39t-70 109q-8 28 -8 71q0 24 3 51q4 56 27 106q31 71 92.5 113t137.5 42q97 0 148 -58t52 -155
q1 -31 -6 -85zM208 342q-8 -20 -11 -32q0 -5 4 -5h168q5 0 5 5q0 12 -2 28q-5 30 -24.5 46.5t-51.5 16.5q-62 0 -88 -59zM178 596.5q-3 3.5 -2 8.5l9 72q1 5 4.5 8.5t8.5 3.5h262q5 0 8 -3.5t2 -8.5l-9 -72q-1 -5 -4.5 -8.5t-8.5 -3.5h-262q-5 0 -8 3.5z" />
    <glyph glyph-name="eogonek" unicode="&#x119;" horiz-adv-x="528" 
d="M504 225q-3 -12 -14 -12h-300q-5 0 -5 -5q1 -22 6 -40q20 -56 96 -56q61 1 105 52q8 11 15 2l62 -71q3 -4 3 -8q0 -5 -4 -9q-31 -34 -73 -55.5t-90 -28.5q-2 0 -6 -2q-26 -18 -41 -37.5t-15 -35.5q0 -14 8.5 -21t22.5 -7q8 0 17 3q2 1 6 1q7 0 7 -9l1 -49q0 -11 -10 -14
q-29 -11 -61 -11q-36 0 -60.5 17.5t-24.5 58.5q0 50 57 103q3 2 3 4t-3 2q-59 12 -96.5 49t-51.5 94q-8 28 -8 71q0 24 3 51q4 56 27 106q31 71 92.5 113t137.5 42q97 0 148 -58t52 -155q1 -31 -6 -85zM208 342q-8 -20 -11 -32q0 -5 4 -5h168q5 0 5 5q0 12 -2 28
q-5 30 -24.5 46.5t-51.5 16.5q-62 0 -88 -59z" />
    <glyph glyph-name="uni1EBD" unicode="&#x1ebd;" horiz-adv-x="528" 
d="M504 225q-3 -12 -14 -12h-300q-5 0 -5 -5q1 -22 6 -40q20 -56 96 -56q61 1 105 52q8 11 15 2l62 -71q3 -4 3 -8q0 -5 -4 -9q-37 -41 -90.5 -63.5t-113.5 -22.5q-83 0 -136 39t-70 109q-8 28 -8 71q0 24 3 51q4 56 27 106q31 71 92.5 113t137.5 42q97 0 148 -58t52 -155
q1 -31 -6 -85zM208 342q-8 -20 -11 -32q0 -5 4 -5h168q5 0 5 5q0 12 -2 28q-5 30 -24.5 46.5t-51.5 16.5q-62 0 -88 -59zM342.5 577.5q-13.5 4.5 -29.5 13.5q-19 10 -28 13.5t-19 3.5q-31 0 -55 -22q-5 -5 -9 -5t-7 4l-34 44q-4 6 -4 9q0 4 3 8q20 28 49 45t62 17
q18 0 31.5 -5t24.5 -10.5t14 -7.5q17 -10 26 -14t20 -4q29 0 50 24q4 5 9 5q4 0 7 -4l31 -45q5 -8 1 -14q-16 -27 -45 -43.5t-64 -16.5q-20 0 -33.5 4.5z" />
    <glyph glyph-name="uni0259" unicode="&#x259;" horiz-adv-x="528" 
d="M473 146q-32 -71 -93 -112.5t-137 -41.5q-99 0 -150 60.5t-51 162.5q0 22 6 74q3 12 14 12h300q5 0 5 4q0 17 -6 41q-20 56 -92 56q-64 0 -108 -52q-8 -11 -15 -2l-61 72q-4 6 -4 8q0 3 4 9q37 40 90.5 62.5t112.5 22.5q83 0 136 -39t70 -109q9 -33 9 -74q0 -23 -3 -47
q-6 -56 -27 -107zM344 172q8 20 11 32q0 5 -4 5h-168q-5 0 -5 -5l2 -27q4 -31 24.5 -47.5t52.5 -16.5q60 0 87 59z" />
    <glyph glyph-name="uni0292" unicode="&#x292;" horiz-adv-x="482" 
d="M267.5 262q0.5 -2 3.5 -2q84 -15 122 -66.5t38 -121.5q0 -23 -2 -35q-9 -73 -51 -127.5t-107 -83.5t-141 -29q-65 0 -125 20q-5 1 -6.5 4.5t-0.5 9.5l16 100q1 6 5 8.5t10 1.5q54 -17 106 -17q72 0 115.5 35.5t43.5 103.5q0 47 -27.5 78.5t-75.5 31.5q-36 0 -81 -19
q-6 -2 -7 -2q-5 0 -8 6l-32 61q-2 4 -2 7q0 6 7 10l189 144q2 2 2 4t-3 2h-179q-5 0 -8 3.5t-2 8.5l13 104q1 5 4.5 8.5t8.5 3.5h345q5 0 8 -3.5t2 -8.5l-12 -99q-1 -9 -9 -15l-158 -122q-2 -2 -1.5 -4z" />
    <glyph glyph-name="uni01EF" unicode="&#x1ef;" horiz-adv-x="482" 
d="M267.5 262q0.5 -2 3.5 -2q84 -15 122 -66.5t38 -121.5q0 -23 -2 -35q-9 -73 -51 -127.5t-107 -83.5t-141 -29q-65 0 -125 20q-5 1 -6.5 4.5t-0.5 9.5l16 100q1 6 5 8.5t10 1.5q54 -17 106 -17q72 0 115.5 35.5t43.5 103.5q0 47 -27.5 78.5t-75.5 31.5q-36 0 -81 -19
q-6 -2 -7 -2q-5 0 -8 6l-32 61q-2 4 -2 7q0 6 7 10l189 144q2 2 2 4t-3 2h-179q-5 0 -8 3.5t-2 8.5l13 104q1 5 4.5 8.5t8.5 3.5h345q5 0 8 -3.5t2 -8.5l-12 -99q-1 -9 -9 -15l-158 -122q-2 -2 -1.5 -4zM144 690q0 4 3 6.5t8 2.5h88q9 0 12 -8l32 -61q2 -7 5 0l47 61
q5 8 14 8h88q9 0 9 -7q0 -3 -3 -8l-87 -106q-6 -7 -15 -7h-129q-9 0 -12 8l-58 105q-2 4 -2 6z" />
    <glyph glyph-name="f" unicode="f" horiz-adv-x="375" 
d="M386.5 511.5q3.5 -3.5 2.5 -8.5l-12 -95q-1 -5 -4.5 -8.5t-8.5 -3.5h-94q-4 0 -6 -5l-46 -379q-1 -5 -4.5 -8.5t-8.5 -3.5h-114q-5 0 -8 3.5t-2 8.5l47 379q0 5 -5 5h-57q-5 0 -8 3.5t-2 8.5l12 95q0 5 4 8.5t9 3.5h57q5 0 5 5l3 22q8 62 30.5 96.5t65.5 49t116 12.5h36
q11 0 11 -12l-10 -81q-1 -5 -4.5 -8.5t-8.5 -3.5h-32q-35 -1 -49.5 -14.5t-18.5 -49.5l-2 -11q0 -5 4 -5h94q5 0 8.5 -3.5z" />
    <glyph glyph-name="g" unicode="g" horiz-adv-x="539" 
d="M401.5 510.5q3.5 3.5 8.5 3.5h114q5 0 8 -3.5t2 -8.5l-56 -456q-17 -131 -97 -187t-194 -56q-34 0 -76 5q-10 2 -8 13l17 103q1 13 14 11q35 -6 64 -6q63 0 99.5 28t43.5 90q1 3 -1 3.5t-4 -1.5q-43 -41 -113 -41q-63 0 -112 31.5t-63 101.5q-4 21 -4 51q0 26 4 68
q11 80 33 127q28 61 81 98t117 37q76 0 109 -46q2 -2 4 -1.5t2 3.5l3 24q1 5 4.5 8.5zM368 261q4 29 4 49q0 18 -3 31q-5 27 -23.5 43.5t-48.5 16.5q-29 0 -51.5 -16.5t-35.5 -43.5q-17 -29 -24 -81q-3 -25 -3 -44q0 -21 5 -36q5 -27 25 -43.5t50 -16.5q31 0 53.5 16.5
t33.5 42.5q11 29 18 82z" />
    <glyph glyph-name="gbreve" unicode="&#x11f;" horiz-adv-x="539" 
d="M401.5 510.5q3.5 3.5 8.5 3.5h114q5 0 8 -3.5t2 -8.5l-56 -456q-17 -131 -97 -187t-194 -56q-34 0 -76 5q-10 2 -8 13l17 103q1 13 14 11q35 -6 64 -6q63 0 99.5 28t43.5 90q1 3 -1 3.5t-4 -1.5q-43 -41 -113 -41q-63 0 -112 31.5t-63 101.5q-4 21 -4 51q0 26 4 68
q11 80 33 127q28 61 81 98t117 37q76 0 109 -46q2 -2 4 -1.5t2 3.5l3 24q1 5 4.5 8.5zM368 261q4 29 4 49q0 18 -3 31q-5 27 -23.5 43.5t-48.5 16.5q-29 0 -51.5 -16.5t-35.5 -43.5q-17 -29 -24 -81q-3 -25 -3 -44q0 -21 5 -36q5 -27 25 -43.5t50 -16.5q31 0 53.5 16.5
t33.5 42.5q11 29 18 82zM228.5 590q-38.5 33 -36.5 86q0 12 12 12h65q9 0 11 -11q2 -21 18 -34t41 -13t44.5 13t26.5 34q3 11 13 11h65q5 0 7.5 -3t1.5 -7q-11 -53 -57.5 -87t-109.5 -34t-101.5 33z" />
    <glyph glyph-name="gcaron" unicode="&#x1e7;" horiz-adv-x="539" 
d="M401.5 510.5q3.5 3.5 8.5 3.5h114q5 0 8 -3.5t2 -8.5l-56 -456q-17 -131 -97 -187t-194 -56q-34 0 -76 5q-10 2 -8 13l17 103q1 13 14 11q35 -6 64 -6q63 0 99.5 28t43.5 90q1 3 -1 3.5t-4 -1.5q-43 -41 -113 -41q-63 0 -112 31.5t-63 101.5q-4 21 -4 51q0 26 4 68
q11 80 33 127q28 61 81 98t117 37q76 0 109 -46q2 -2 4 -1.5t2 3.5l3 24q1 5 4.5 8.5zM368 261q4 29 4 49q0 18 -3 31q-5 27 -23.5 43.5t-48.5 16.5q-29 0 -51.5 -16.5t-35.5 -43.5q-17 -29 -24 -81q-3 -25 -3 -44q0 -21 5 -36q5 -27 25 -43.5t50 -16.5q31 0 53.5 16.5
t33.5 42.5q11 29 18 82zM200 690q0 4 3 6.5t8 2.5h88q9 0 12 -8l32 -61q2 -7 5 0l47 61q5 8 14 8h88q9 0 9 -7q0 -3 -3 -8l-87 -106q-6 -7 -15 -7h-129q-9 0 -12 8l-58 105q-2 4 -2 6z" />
    <glyph glyph-name="gcircumflex" unicode="&#x11d;" horiz-adv-x="539" 
d="M401.5 510.5q3.5 3.5 8.5 3.5h114q5 0 8 -3.5t2 -8.5l-56 -456q-17 -131 -97 -187t-194 -56q-34 0 -76 5q-10 2 -8 13l17 103q1 13 14 11q35 -6 64 -6q63 0 99.5 28t43.5 90q1 3 -1 3.5t-4 -1.5q-43 -41 -113 -41q-63 0 -112 31.5t-63 101.5q-4 21 -4 51q0 26 4 68
q11 80 33 127q28 61 81 98t117 37q76 0 109 -46q2 -2 4 -1.5t2 3.5l3 24q1 5 4.5 8.5zM368 261q4 29 4 49q0 18 -3 31q-5 27 -23.5 43.5t-48.5 16.5q-29 0 -51.5 -16.5t-35.5 -43.5q-17 -29 -24 -81q-3 -25 -3 -44q0 -21 5 -36q5 -27 25 -43.5t50 -16.5q31 0 53.5 16.5
t33.5 42.5q11 29 18 82zM181 579q0 4 3 8l84 105q5 8 14 8h129q9 0 13 -8l61 -105q2 -4 2 -6q0 -4 -3.5 -6.5t-8.5 -2.5h-87q-10 0 -13 8l-31 61q-3 6 -6 0l-46 -61q-6 -8 -15 -8h-87q-9 0 -9 7z" />
    <glyph glyph-name="gdotaccent" unicode="&#x121;" horiz-adv-x="539" 
d="M401.5 510.5q3.5 3.5 8.5 3.5h114q5 0 8 -3.5t2 -8.5l-56 -456q-17 -131 -97 -187t-194 -56q-34 0 -76 5q-10 2 -8 13l17 103q1 13 14 11q35 -6 64 -6q63 0 99.5 28t43.5 90q1 3 -1 3.5t-4 -1.5q-43 -41 -113 -41q-63 0 -112 31.5t-63 101.5q-4 21 -4 51q0 26 4 68
q11 80 33 127q28 61 81 98t117 37q76 0 109 -46q2 -2 4 -1.5t2 3.5l3 24q1 5 4.5 8.5zM368 261q4 29 4 49q0 18 -3 31q-5 27 -23.5 43.5t-48.5 16.5q-29 0 -51.5 -16.5t-35.5 -43.5q-17 -29 -24 -81q-3 -25 -3 -44q0 -21 5 -36q5 -27 25 -43.5t50 -16.5q31 0 53.5 16.5
t33.5 42.5q11 29 18 82zM282 591.5q-19 19.5 -19 49.5q0 38 25.5 63.5t62.5 25.5q31 0 49.5 -18.5t18.5 -49.5q0 -38 -26 -64t-62 -26q-30 0 -49 19.5z" />
    <glyph glyph-name="uni01E5" unicode="&#x1e5;" horiz-adv-x="562" 
d="M578 299.5q3 -3.5 2 -8.5l-8 -61q0 -5 -4 -8.5t-9 -3.5h-55q-5 0 -5 -5l-21 -167q-17 -131 -97 -187t-194 -56q-34 0 -76 5q-10 2 -8 13l17 103q1 13 14 11q35 -6 64 -6q63 0 99.5 28t43.5 90q1 3 -1 3.5t-4 -1.5q-43 -41 -113 -41q-63 0 -112 31.5t-63 101.5
q-4 21 -4 51q0 26 4 68q11 80 33 127q28 61 81 98t117 37q76 0 109 -46q2 -2 4 -1.5t2 3.5l3 24q1 5 4.5 8.5t8.5 3.5h114q5 0 8 -3.5t2 -8.5l-24 -194q0 -5 4 -5h56q5 0 8 -3.5zM316.5 136.5q22.5 16.5 33.5 42.5q6 15 10 34q1 2 0 3.5t-3 1.5h-93q-5 0 -8 3.5t-2 8.5l8 61
q1 5 4.5 8.5t8.5 3.5h92q5 0 5 5q0 18 -3 33q-5 27 -23.5 43.5t-48.5 16.5q-29 0 -51.5 -16.5t-35.5 -43.5q-17 -29 -24 -81q-3 -25 -3 -44q0 -21 5 -36q5 -27 25 -43.5t50 -16.5q31 0 53.5 16.5z" />
    <glyph glyph-name="h" unicode="h" 
d="M466 482q41 -40 41 -111q0 -9 -2 -31l-40 -328q-1 -5 -4.5 -8.5t-8.5 -3.5h-113q-11 0 -11 12l37 299q1 5 1 16q0 33 -19 53.5t-50 20.5q-36 0 -61 -24.5t-30 -65.5l-37 -299q-1 -5 -4.5 -8.5t-8.5 -3.5h-113q-5 0 -8 3.5t-2 8.5l83 676q0 5 4 8.5t9 3.5h113q5 0 8 -3.5
t2 -8.5l-27 -221q0 -3 1.5 -4t3.5 1q45 58 125 58q70 0 111 -40z" />
    <glyph glyph-name="hbar" unicode="&#x127;" 
d="M466 482q41 -40 41 -111q0 -9 -2 -31l-40 -328q-1 -5 -4.5 -8.5t-8.5 -3.5h-113q-11 0 -11 12l37 299q1 5 1 16q0 33 -19 53.5t-50 20.5q-36 0 -61 -24.5t-30 -65.5l-37 -299q-1 -5 -4.5 -8.5t-8.5 -3.5h-113q-5 0 -8 3.5t-2 8.5l65 532q0 5 -4 5h-45q-5 0 -8 3.5t-2 8.5
l7 61q1 5 4.5 8.5t8.5 3.5h45q5 0 5 5l7 49q0 5 4 8.5t9 3.5h113q5 0 8 -3.5t2 -8.5l-6 -49q0 -5 5 -5h129q5 0 8 -3.5t2 -8.5l-8 -61q-1 -5 -4.5 -8.5t-8.5 -3.5h-129q-5 0 -5 -5l-10 -77q0 -3 1.5 -4t3.5 1q45 58 125 58q70 0 111 -40z" />
    <glyph glyph-name="uni021F" unicode="&#x21f;" 
d="M466 482q41 -40 41 -111q0 -9 -2 -31l-40 -328q-1 -5 -4.5 -8.5t-8.5 -3.5h-113q-11 0 -11 12l37 299q1 5 1 16q0 33 -19 53.5t-50 20.5q-36 0 -61 -24.5t-30 -65.5l-37 -299q-1 -5 -4.5 -8.5t-8.5 -3.5h-113q-5 0 -8 3.5t-2 8.5l83 676q0 5 4 8.5t9 3.5h113q5 0 8 -3.5
t2 -8.5l-27 -221q0 -3 1.5 -4t3.5 1q45 58 125 58q70 0 111 -40zM194 876q0 4 3 6.5t8 2.5h88q9 0 12 -8l32 -61q2 -7 5 0l47 61q5 8 14 8h88q9 0 9 -7q0 -3 -3 -8l-87 -106q-6 -7 -15 -7h-129q-9 0 -12 8l-58 105q-2 4 -2 6z" />
    <glyph glyph-name="hcircumflex" unicode="&#x125;" 
d="M466 482q41 -40 41 -111q0 -9 -2 -31l-40 -328q-1 -5 -4.5 -8.5t-8.5 -3.5h-113q-11 0 -11 12l37 299q1 5 1 16q0 33 -19 53.5t-50 20.5q-36 0 -61 -24.5t-30 -65.5l-37 -299q-1 -5 -4.5 -8.5t-8.5 -3.5h-113q-5 0 -8 3.5t-2 8.5l83 676q0 5 4 8.5t9 3.5h113q5 0 8 -3.5
t2 -8.5l-27 -221q0 -3 1.5 -4t3.5 1q45 58 125 58q70 0 111 -40zM191 758q0 4 3 8l84 105q5 8 14 8h129q9 0 13 -8l61 -105q2 -4 2 -6q0 -4 -3.5 -6.5t-8.5 -2.5h-87q-10 0 -13 8l-31 61q-3 6 -6 0l-46 -61q-6 -8 -15 -8h-87q-9 0 -9 7z" />
    <glyph glyph-name="i" unicode="i" horiz-adv-x="247" 
d="M126 591q-19 19 -19 49q0 39 25.5 64.5t61.5 25.5q31 0 49.5 -18t18.5 -49q0 -38 -25.5 -64.5t-61.5 -26.5q-30 0 -49 19zM36 12l61 491q1 5 4.5 8.5t8.5 3.5h113q5 0 8 -3.5t2 -8.5l-60 -491q-1 -5 -4.5 -8.5t-8.5 -3.5h-113q-11 0 -11 12z" />
    <glyph glyph-name="dotlessi" unicode="&#x131;" horiz-adv-x="230" 
d="M31 3.5q-3 3.5 -2 8.5l60 490q1 5 4.5 8.5t8.5 3.5h113q11 0 11 -12l-61 -490q0 -5 -4 -8.5t-9 -3.5h-113q-5 0 -8 3.5z" />
    <glyph glyph-name="iacute" unicode="&#xed;" horiz-adv-x="230" 
d="M31 3.5q-3 3.5 -2 8.5l60 490q1 5 4.5 8.5t8.5 3.5h113q11 0 11 -12l-61 -490q0 -5 -4 -8.5t-9 -3.5h-113q-5 0 -8 3.5zM103 582q0 4 3 8l64 101q4 9 15 9h98q9 0 9 -7q0 -3 -3 -8l-81 -101q-6 -8 -15 -8h-81q-9 0 -9 6z" />
    <glyph glyph-name="ibreve" unicode="&#x12d;" horiz-adv-x="230" 
d="M31 3.5q-3 3.5 -2 8.5l60 490q1 5 4.5 8.5t8.5 3.5h113q11 0 11 -12l-61 -490q0 -5 -4 -8.5t-9 -3.5h-113q-5 0 -8 3.5zM64.5 597.5q-38.5 31.5 -38.5 80.5q0 14 12 14l58 -1q9 0 11 -11q1 -21 19.5 -34t46.5 -13t50 13t29 35q3 11 13 11h56q6 0 9 -2.5t1 -7.5
q-10 -50 -57 -83t-110 -33q-61 0 -99.5 31.5z" />
    <glyph glyph-name="icircumflex" unicode="&#xee;" horiz-adv-x="230" 
d="M31 3.5q-3 3.5 -2 8.5l60 490q1 5 4.5 8.5t8.5 3.5h113q11 0 11 -12l-61 -490q0 -5 -4 -8.5t-9 -3.5h-113q-5 0 -8 3.5zM15 579q0 4 3 8l84 105q5 8 14 8h129q9 0 13 -8l61 -105q2 -4 2 -6q0 -4 -3.5 -6.5t-8.5 -2.5h-87q-10 0 -13 8l-31 61q-3 6 -6 0l-46 -61
q-6 -8 -15 -8h-87q-9 0 -9 7z" />
    <glyph glyph-name="idieresis" unicode="&#xef;" horiz-adv-x="230" 
d="M31 3.5q-3 3.5 -2 8.5l60 490q1 5 4.5 8.5t8.5 3.5h113q11 0 11 -12l-61 -490q0 -5 -4 -8.5t-9 -3.5h-113q-5 0 -8 3.5zM214 597.5q-19 19.5 -19 49.5q0 38 25.5 63.5t62.5 25.5q31 0 49.5 -18.5t18.5 -49.5q0 -38 -26 -64t-62 -26q-30 0 -49 19.5zM21 597.5
q-19 19.5 -19 49.5q0 38 25.5 63.5t62.5 25.5q31 0 49.5 -18.5t18.5 -49.5q0 -38 -26 -64t-62 -26q-30 0 -49 19.5z" />
    <glyph glyph-name="i.loclTRK" horiz-adv-x="230" 
d="M31 3.5q-3 3.5 -2 8.5l60 490q1 5 4.5 8.5t8.5 3.5h113q11 0 11 -12l-61 -490q0 -5 -4 -8.5t-9 -3.5h-113q-5 0 -8 3.5zM116 591.5q-19 19.5 -19 49.5q0 38 25.5 63.5t62.5 25.5q31 0 49.5 -18.5t18.5 -49.5q0 -38 -26 -64t-62 -26q-30 0 -49 19.5z" />
    <glyph glyph-name="uni1ECB" unicode="&#x1ecb;" horiz-adv-x="247" 
d="M126 591q-19 19 -19 49q0 39 25.5 64.5t61.5 25.5q31 0 49.5 -18t18.5 -49q0 -38 -25.5 -64.5t-61.5 -26.5q-30 0 -49 19zM36 12l61 491q1 5 4.5 8.5t8.5 3.5h113q5 0 8 -3.5t2 -8.5l-60 -491q-1 -5 -4.5 -8.5t-8.5 -3.5h-113q-11 0 -11 12zM31 -198.5q-18 17.5 -18 45.5
q0 39 23.5 63t59.5 24q29 0 46.5 -17.5t17.5 -45.5q0 -37 -24 -62t-59 -25q-28 0 -46 17.5z" />
    <glyph glyph-name="igrave" unicode="&#xec;" horiz-adv-x="230" 
d="M31 3.5q-3 3.5 -2 8.5l60 490q1 5 4.5 8.5t8.5 3.5h113q11 0 11 -12l-61 -490q0 -5 -4 -8.5t-9 -3.5h-113q-5 0 -8 3.5zM219 585q0 -4 -3 -6.5t-7 -2.5h-82q-9 0 -12 8l-57 101q-2 4 -2 6q0 4 3.5 6.5t8.5 2.5h98q10 0 13 -9l39 -101q1 -2 1 -5z" />
    <glyph glyph-name="uni1EC9" unicode="&#x1ec9;" horiz-adv-x="230" 
d="M31 3.5q-3 3.5 -2 8.5l60 490q1 5 4.5 8.5t8.5 3.5h113q11 0 11 -12l-61 -490q0 -5 -4 -8.5t-9 -3.5h-113q-5 0 -8 3.5zM145 576q14 27 38 49q12 13 17 20.5t6 20.5q1 10 -6 17t-18 7q-13 0 -22.5 -6t-24.5 -24q-4 -5 -9 -6t-9 3l-30 25q-4 3 -4 8t4 9q24 32 48 45.5
t59 13.5q40 0 63 -20.5t23 -57.5q0 -29 -11.5 -47.5t-34.5 -39.5q-22 -20 -30 -32q-7 -10 -16 -8l-36 8q-13 3 -7 15z" />
    <glyph glyph-name="ij" unicode="&#x133;" horiz-adv-x="481" 
d="M126 591q-19 19 -19 49q0 39 25.5 64.5t61.5 25.5q31 0 49.5 -18t18.5 -49q0 -38 -25.5 -64.5t-61.5 -26.5q-30 0 -49 19zM36 12l61 491q1 5 4.5 8.5t8.5 3.5h113q5 0 8 -3.5t2 -8.5l-60 -491q-1 -5 -4.5 -8.5t-8.5 -3.5h-113q-11 0 -11 12zM359.5 591q-18.5 19 -18.5 49
q0 39 25.5 64.5t60.5 25.5q31 0 49.5 -18t18.5 -49q0 -38 -25 -64.5t-62 -26.5q-30 0 -48.5 19zM133 -192l11 95q1 6 5 9t9 2q57 -2 82.5 17t31.5 67l60 504q0 5 4 8.5t9 3.5h113q5 0 8 -3.5t2 -8.5l-61 -502q-10 -82 -37 -126t-80 -62t-147 -16q-12 0 -10 12z" />
    <glyph glyph-name="imacron" unicode="&#x12b;" horiz-adv-x="230" 
d="M31 3.5q-3 3.5 -2 8.5l60 490q1 5 4.5 8.5t8.5 3.5h113q11 0 11 -12l-61 -490q0 -5 -4 -8.5t-9 -3.5h-113q-5 0 -8 3.5zM28 581.5q-3 3.5 -2 8.5l9 71q1 5 4.5 8.5t8.5 3.5h262q5 0 8 -3.5t2 -8.5l-9 -71q-1 -5 -4.5 -8.5t-8.5 -3.5h-262q-5 0 -8 3.5z" />
    <glyph glyph-name="iogonek" unicode="&#x12f;" horiz-adv-x="258" 
d="M50 3.5q-3 3.5 -2 8.5l60 490q1 5 4.5 8.5t8.5 3.5h113q11 0 11 -12l-61 -490q0 -5 -4 -8.5t-9 -3.5h-113q-5 0 -8 3.5zM136 591.5q-19 19.5 -19 49.5q0 38 25.5 63.5t62.5 25.5q31 0 49.5 -18.5t18.5 -49.5q0 -38 -26 -64t-62 -26q-30 0 -49 19.5zM160 -182
q-31 -11 -62 -11q-32 0 -55 15t-28 49l-1 12q0 60 68 112q7 5 15 5h63q8 0 8 -5q0 -4 -6 -10q-54 -38 -54 -71q0 -13 8.5 -20t21.5 -7q9 0 18 3q2 1 6 1q7 0 7 -9l1 -50q0 -11 -10 -14z" />
    <glyph glyph-name="itilde" unicode="&#x129;" horiz-adv-x="230" 
d="M31 3.5q-3 3.5 -2 8.5l60 490q1 5 4.5 8.5t8.5 3.5h113q11 0 11 -12l-61 -490q0 -5 -4 -8.5t-9 -3.5h-113q-5 0 -8 3.5zM194.5 577.5q-13.5 4.5 -29.5 13.5q-19 10 -28 13.5t-19 3.5q-31 0 -55 -22q-5 -5 -9 -5t-7 4l-34 44q-4 6 -4 9q0 4 3 8q20 28 49 45t62 17
q18 0 31.5 -5t24.5 -10.5t14 -7.5q17 -10 26 -14t20 -4q29 0 50 24q4 5 9 5q4 0 7 -4l31 -45q5 -8 1 -14q-16 -27 -45 -43.5t-64 -16.5q-20 0 -33.5 4.5z" />
    <glyph glyph-name="j" unicode="j" horiz-adv-x="246" 
d="M125.5 591q-18.5 19 -18.5 49q0 39 25.5 64.5t60.5 25.5q31 0 49.5 -18t18.5 -49q0 -38 -25 -64.5t-62 -26.5q-30 0 -48.5 19zM-101 -192l11 95q1 6 5 9t9 2q57 -2 82.5 17t31.5 67l60 504q0 5 4 8.5t9 3.5h113q5 0 8 -3.5t2 -8.5l-61 -502q-10 -82 -37 -126t-80 -62
t-147 -16q-12 0 -10 12z" />
    <glyph glyph-name="uni0237" unicode="&#x237;" horiz-adv-x="250" 
d="M-101 -192l11 95q1 6 5 9t9 2q57 -2 82.5 17t31.5 67l60 504q0 5 4 8.5t9 3.5h115q5 0 8 -3.5t2 -8.5l-61 -502q-10 -81 -37.5 -125.5t-81 -62.5t-147.5 -16q-12 0 -10 12z" />
    <glyph glyph-name="jcircumflex" unicode="&#x135;" horiz-adv-x="250" 
d="M-101 -192l11 95q1 6 5 9t9 2q57 -2 82.5 17t31.5 67l60 504q0 5 4 8.5t9 3.5h115q5 0 8 -3.5t2 -8.5l-61 -502q-10 -81 -37.5 -125.5t-81 -62.5t-147.5 -16q-12 0 -10 12zM25 579q0 4 3 8l84 105q5 8 14 8h129q9 0 13 -8l61 -105q2 -4 2 -6q0 -4 -3.5 -6.5t-8.5 -2.5
h-87q-10 0 -13 8l-31 61q-3 6 -6 0l-46 -61q-6 -8 -15 -8h-87q-9 0 -9 7z" />
    <glyph glyph-name="k" unicode="k" horiz-adv-x="517" 
d="M35 3.5q-3 3.5 -2 8.5l83 676q0 5 4 8.5t9 3.5h113q5 0 8 -3.5t2 -8.5l-41 -337q-1 -3 1 -3.5t4 1.5l152 158q7 7 15 7h129q9 0 9 -6q0 -5 -4 -9l-143 -161q-2 -4 -2 -7l106 -317q1 -2 1 -5q0 -9 -11 -9h-120q-9 0 -12 9l-68 234q0 2 -2.5 2.5t-3.5 -1.5l-72 -80
q-1 -1 -2 -2.5t-1 -3.5l-18 -146q-1 -5 -4.5 -8.5t-8.5 -3.5h-113q-5 0 -8 3.5z" />
    <glyph glyph-name="uni01E9" unicode="&#x1e9;" horiz-adv-x="517" 
d="M35 3.5q-3 3.5 -2 8.5l83 676q0 5 4 8.5t9 3.5h113q5 0 8 -3.5t2 -8.5l-41 -337q-1 -3 1 -3.5t4 1.5l152 158q7 7 15 7h129q9 0 9 -6q0 -5 -4 -9l-143 -161q-2 -4 -2 -7l106 -317q1 -2 1 -5q0 -9 -11 -9h-120q-9 0 -12 9l-68 234q0 2 -2.5 2.5t-3.5 -1.5l-72 -80
q-1 -1 -2 -2.5t-1 -3.5l-18 -146q-1 -5 -4.5 -8.5t-8.5 -3.5h-113q-5 0 -8 3.5zM189 876q0 4 3 6.5t8 2.5h88q9 0 12 -8l32 -61q2 -7 5 0l47 61q5 8 14 8h88q9 0 9 -7q0 -3 -3 -8l-87 -106q-6 -7 -15 -7h-129q-9 0 -12 8l-58 105q-2 4 -2 6z" />
    <glyph glyph-name="l" unicode="l" horiz-adv-x="237" 
d="M35 3.5q-3 3.5 -2 8.5l83 676q0 5 4 8.5t9 3.5h113q5 0 8 -3.5t2 -8.5l-83 -676q-1 -5 -4.5 -8.5t-8.5 -3.5h-113q-5 0 -8 3.5z" />
    <glyph glyph-name="lacute" unicode="&#x13a;" horiz-adv-x="237" 
d="M35 3.5q-3 3.5 -2 8.5l83 676q0 5 4 8.5t9 3.5h113q5 0 8 -3.5t2 -8.5l-83 -676q-1 -5 -4.5 -8.5t-8.5 -3.5h-113q-5 0 -8 3.5zM131 768q0 4 3 8l64 101q4 9 15 9h98q9 0 9 -7q0 -3 -3 -8l-81 -101q-6 -8 -15 -8h-81q-9 0 -9 6z" />
    <glyph glyph-name="lcaron" unicode="&#x13e;" horiz-adv-x="422" 
d="M35 3.5q-3 3.5 -2 8.5l83 676q0 5 4 8.5t9 3.5h113q5 0 8 -3.5t2 -8.5l-83 -676q-1 -5 -4.5 -8.5t-8.5 -3.5h-113q-5 0 -8 3.5zM268 582q0 4 3 8l64 101q4 9 15 9h98q9 0 9 -7q0 -3 -3 -8l-81 -101q-6 -8 -15 -8h-81q-9 0 -9 6z" />
    <glyph glyph-name="uni013C" unicode="&#x13c;" horiz-adv-x="237" 
d="M35 3.5q-3 3.5 -2 8.5l83 676q0 5 4 8.5t9 3.5h113q5 0 8 -3.5t2 -8.5l-83 -676q-1 -5 -4.5 -8.5t-8.5 -3.5h-113q-5 0 -8 3.5zM-44 -168q0 4 3 8l64 101q4 9 15 9h98q9 0 9 -7q0 -3 -3 -8l-81 -101q-6 -8 -15 -8h-81q-9 0 -9 6z" />
    <glyph glyph-name="ldot" unicode="&#x140;" horiz-adv-x="254" 
d="M43 3.5q-3 3.5 -2 8.5l83 676q0 5 4 8.5t9 3.5h113q5 0 8 -3.5t2 -8.5l-83 -676q-1 -5 -4.5 -8.5t-8.5 -3.5h-113q-5 0 -8 3.5zM152 777.5q-19 19.5 -19 49.5q0 38 25.5 63.5t62.5 25.5q31 0 49.5 -18.5t18.5 -49.5q0 -38 -26 -64t-62 -26q-30 0 -49 19.5z" />
    <glyph glyph-name="lslash" unicode="&#x142;" horiz-adv-x="422" 
d="M435 409q0 -7 -8 -12l-131 -69q-4 -3 -4 -6l-38 -310q-1 -5 -4.5 -8.5t-8.5 -3.5h-114q-5 0 -8 3.5t-2 8.5l28 229q1 3 -1 4.5t-4 -0.5l-63 -33q-4 -2 -7 -2q-7 0 -8 7l-27 69l-1 4q0 7 7 12l116 62q4 3 4 6l39 318q1 5 4.5 8.5t8.5 3.5h114q5 0 8 -3.5t2 -8.5l-29 -236
q-1 -3 1 -4.5t4 0.5l77 41q4 2 6 2q6 0 9 -6l29 -71q1 -2 1 -5z" />
    <glyph glyph-name="m" unicode="m" horiz-adv-x="810" 
d="M752 484q37 -38 37 -106q0 -23 -2 -35l-41 -331q0 -5 -4 -8.5t-9 -3.5h-113q-5 0 -8 3.5t-2 8.5l36 300q1 6 1 17q0 33 -17 52.5t-47 19.5q-34 0 -58.5 -24t-29.5 -64l-37 -301q-1 -5 -4.5 -8.5t-8.5 -3.5h-112q-5 0 -8 3.5t-2 8.5l36 300q1 6 1 16q0 34 -18 53.5
t-48 19.5q-31 0 -54 -19t-32 -53l-39 -317q-1 -5 -4.5 -8.5t-8.5 -3.5h-113q-5 0 -8 3.5t-2 8.5l60 490q1 5 4.5 8.5t8.5 3.5h113q5 0 8 -3.5t2 -8.5l-4 -39q-1 -3 1 -4t4 2q48 61 131 61q48 0 82 -21t49 -60q2 -6 6 0q27 41 65.5 61t84.5 20q67 0 104 -38z" />
    <glyph glyph-name="n" unicode="n" 
d="M466 482q41 -40 41 -111q0 -9 -2 -31l-40 -328q-1 -5 -4.5 -8.5t-8.5 -3.5h-113q-11 0 -11 12l37 299q1 5 1 16q0 33 -19 53.5t-50 20.5q-36 0 -61 -24.5t-30 -65.5l-37 -299q-1 -5 -4.5 -8.5t-8.5 -3.5h-113q-5 0 -8 3.5t-2 8.5l60 490q1 5 4.5 8.5t8.5 3.5h113
q5 0 8 -3.5t2 -8.5l-4 -35q0 -3 1.5 -4t3.5 1q45 58 125 58q70 0 111 -40z" />
    <glyph glyph-name="nacute" unicode="&#x144;" 
d="M466 482q41 -40 41 -111q0 -9 -2 -31l-40 -328q-1 -5 -4.5 -8.5t-8.5 -3.5h-113q-11 0 -11 12l37 299q1 5 1 16q0 33 -19 53.5t-50 20.5q-36 0 -61 -24.5t-30 -65.5l-37 -299q-1 -5 -4.5 -8.5t-8.5 -3.5h-113q-5 0 -8 3.5t-2 8.5l60 490q1 5 4.5 8.5t8.5 3.5h113
q5 0 8 -3.5t2 -8.5l-4 -35q0 -3 1.5 -4t3.5 1q45 58 125 58q70 0 111 -40zM259 582q0 4 3 8l64 101q4 9 15 9h98q9 0 9 -7q0 -3 -3 -8l-81 -101q-6 -8 -15 -8h-81q-9 0 -9 6z" />
    <glyph glyph-name="ncaron" unicode="&#x148;" 
d="M466 482q41 -40 41 -111q0 -9 -2 -31l-40 -328q-1 -5 -4.5 -8.5t-8.5 -3.5h-113q-11 0 -11 12l37 299q1 5 1 16q0 33 -19 53.5t-50 20.5q-36 0 -61 -24.5t-30 -65.5l-37 -299q-1 -5 -4.5 -8.5t-8.5 -3.5h-113q-5 0 -8 3.5t-2 8.5l60 490q1 5 4.5 8.5t8.5 3.5h113
q5 0 8 -3.5t2 -8.5l-4 -35q0 -3 1.5 -4t3.5 1q45 58 125 58q70 0 111 -40zM190 691q0 4 3 6.5t8 2.5h88q9 0 12 -8l32 -61q2 -7 5 0l47 61q5 8 14 8h88q9 0 9 -7q0 -3 -3 -8l-87 -106q-6 -7 -15 -7h-129q-9 0 -12 8l-58 105q-2 4 -2 6z" />
    <glyph glyph-name="eng" unicode="&#x14b;" horiz-adv-x="531" 
d="M492 212q0 -6 -1 -10l-23 -188q-9 -76 -31 -118.5t-71 -63.5t-139 -22q-12 0 -10 12l11 89q2 12 13 12q41 3 60.5 19.5t27.5 54.5q1 1 -1 5v10l37 299q1 5 1 16q0 33 -19 53.5t-50 20.5q-36 0 -61 -24.5t-30 -65.5l-37 -299q-1 -5 -4.5 -8.5t-8.5 -3.5h-113q-5 0 -8 3.5
t-2 8.5l60 490q1 5 4.5 8.5t8.5 3.5h113q5 0 8 -3.5t2 -8.5l-4 -35q0 -3 1.5 -4t4.5 2q45 57 124 57q70 0 111 -40t41 -111q0 -9 -2 -31l-15 -123q0 -1 2 -5z" />
    <glyph glyph-name="ntilde" unicode="&#xf1;" 
d="M466 482q41 -40 41 -111q0 -9 -2 -31l-40 -328q-1 -5 -4.5 -8.5t-8.5 -3.5h-113q-11 0 -11 12l37 299q1 5 1 16q0 33 -19 53.5t-50 20.5q-36 0 -61 -24.5t-30 -65.5l-37 -299q-1 -5 -4.5 -8.5t-8.5 -3.5h-113q-5 0 -8 3.5t-2 8.5l60 490q1 5 4.5 8.5t8.5 3.5h113
q5 0 8 -3.5t2 -8.5l-4 -35q0 -3 1.5 -4t3.5 1q45 58 125 58q70 0 111 -40zM350.5 577.5q-13.5 4.5 -29.5 13.5q-19 10 -28 13.5t-19 3.5q-31 0 -55 -22q-5 -5 -9 -5t-7 4l-34 44q-4 6 -4 9q0 4 3 8q20 28 49 45t62 17q18 0 31.5 -5t24.5 -10.5t14 -7.5q17 -10 26 -14t20 -4
q29 0 50 24q4 5 9 5q4 0 7 -4l31 -45q5 -8 1 -14q-16 -27 -45 -43.5t-64 -16.5q-20 0 -33.5 4.5z" />
    <glyph glyph-name="o" unicode="o" horiz-adv-x="540" 
d="M116 36q-53 44 -65 120q-4 21 -4 52q0 25 3 50q8 63 27 106q32 74 95 116t144 42q80 0 131 -41.5t65 -115.5q6 -28 6 -62q0 -22 -3 -43q-6 -50 -26 -101q-31 -78 -94 -122.5t-145 -44.5q-81 0 -134 44zM321.5 133q24.5 20 39.5 55q12 33 16 70q3 24 3 45q0 46 -21 72
t-60 26q-32 0 -56.5 -19t-38.5 -53q-11 -24 -16 -71q-3 -25 -3 -49q0 -44 21 -70t59 -26q32 0 56.5 20z" />
    <glyph glyph-name="oacute" unicode="&#xf3;" horiz-adv-x="533" 
d="M116 36q-53 44 -65 120q-4 21 -4 52q0 25 3 50q8 63 27 106q32 74 95 116t144 42q80 0 131 -41.5t65 -115.5q6 -28 6 -62q0 -22 -3 -43q-6 -50 -26 -101q-31 -78 -94 -122.5t-145 -44.5q-81 0 -134 44zM321.5 133q24.5 20 39.5 55q12 33 16 70q3 24 3 45q0 46 -21 72
t-60 26q-32 0 -56.5 -19t-38.5 -53q-11 -24 -16 -71q-3 -25 -3 -49q0 -44 21 -70t59 -26q32 0 56.5 20zM255 582q0 4 3 8l64 101q4 9 15 9h98q9 0 9 -7q0 -3 -3 -8l-81 -101q-6 -8 -15 -8h-81q-9 0 -9 6z" />
    <glyph glyph-name="obreve" unicode="&#x14f;" horiz-adv-x="533" 
d="M116 36q-53 44 -65 120q-4 21 -4 52q0 25 3 50q8 63 27 106q32 74 95 116t144 42q80 0 131 -41.5t65 -115.5q6 -28 6 -62q0 -22 -3 -43q-6 -50 -26 -101q-31 -78 -94 -122.5t-145 -44.5q-81 0 -134 44zM321.5 133q24.5 20 39.5 55q12 33 16 70q3 24 3 45q0 46 -21 72
t-60 26q-32 0 -56.5 -19t-38.5 -53q-11 -24 -16 -71q-3 -25 -3 -49q0 -44 21 -70t59 -26q32 0 56.5 20zM216.5 597.5q-38.5 31.5 -38.5 80.5q0 14 12 14l58 -1q9 0 11 -11q1 -21 19.5 -34t46.5 -13t50 13t29 35q3 11 13 11h56q6 0 9 -2.5t1 -7.5q-10 -50 -57 -83t-110 -33
q-61 0 -99.5 31.5z" />
    <glyph glyph-name="ocircumflex" unicode="&#xf4;" horiz-adv-x="533" 
d="M116 36q-53 44 -65 120q-4 21 -4 52q0 25 3 50q8 63 27 106q32 74 95 116t144 42q80 0 131 -41.5t65 -115.5q6 -28 6 -62q0 -22 -3 -43q-6 -50 -26 -101q-31 -78 -94 -122.5t-145 -44.5q-81 0 -134 44zM321.5 133q24.5 20 39.5 55q12 33 16 70q3 24 3 45q0 46 -21 72
t-60 26q-32 0 -56.5 -19t-38.5 -53q-11 -24 -16 -71q-3 -25 -3 -49q0 -44 21 -70t59 -26q32 0 56.5 20zM166 579q0 4 3 8l84 105q5 8 14 8h129q9 0 13 -8l61 -105q2 -4 2 -6q0 -4 -3.5 -6.5t-8.5 -2.5h-87q-10 0 -13 8l-31 61q-3 6 -6 0l-46 -61q-6 -8 -15 -8h-87q-9 0 -9 7
z" />
    <glyph glyph-name="uni1ED1" unicode="&#x1ed1;" horiz-adv-x="533" 
d="M116 36q-53 44 -65 120q-4 21 -4 52q0 25 3 50q8 63 27 106q32 74 95 116t144 42q80 0 131 -41.5t65 -115.5q6 -28 6 -62q0 -22 -3 -43q-6 -50 -26 -101q-31 -78 -94 -122.5t-145 -44.5q-81 0 -134 44zM321.5 133q24.5 20 39.5 55q12 33 16 70q3 24 3 45q0 46 -21 72
t-60 26q-32 0 -56.5 -19t-38.5 -53q-11 -24 -16 -71q-3 -25 -3 -49q0 -44 21 -70t59 -26q32 0 56.5 20zM166 579q0 4 3 8l84 105q5 8 14 8h129q9 0 13 -8l61 -105q2 -4 2 -6q0 -4 -3.5 -6.5t-8.5 -2.5h-87q-10 0 -13 8l-31 61q-3 6 -6 0l-46 -61q-6 -8 -15 -8h-87q-9 0 -9 7
zM473 657q0 4 3 8l64 101q4 9 15 9h98q9 0 9 -7q0 -3 -3 -8l-81 -101q-6 -8 -15 -8h-81q-9 0 -9 6z" />
    <glyph glyph-name="uni1ED9" unicode="&#x1ed9;" horiz-adv-x="533" 
d="M116 36q-53 44 -65 120q-4 21 -4 52q0 25 3 50q8 63 27 106q32 74 95 116t144 42q80 0 131 -41.5t65 -115.5q6 -28 6 -62q0 -22 -3 -43q-6 -50 -26 -101q-31 -78 -94 -122.5t-145 -44.5q-81 0 -134 44zM321.5 133q24.5 20 39.5 55q12 33 16 70q3 24 3 45q0 46 -21 72
t-60 26q-32 0 -56.5 -19t-38.5 -53q-11 -24 -16 -71q-3 -25 -3 -49q0 -44 21 -70t59 -26q32 0 56.5 20zM174 -198.5q-18 17.5 -18 45.5q0 39 23.5 63t59.5 24q29 0 46.5 -17.5t17.5 -45.5q0 -37 -24 -62t-59 -25q-28 0 -46 17.5zM166 579q0 4 3 8l84 105q5 8 14 8h129
q9 0 13 -8l61 -105q2 -4 2 -6q0 -4 -3.5 -6.5t-8.5 -2.5h-87q-10 0 -13 8l-31 61q-3 6 -6 0l-46 -61q-6 -8 -15 -8h-87q-9 0 -9 7z" />
    <glyph glyph-name="uni1ED3" unicode="&#x1ed3;" horiz-adv-x="533" 
d="M116 36q-53 44 -65 120q-4 21 -4 52q0 25 3 50q8 63 27 106q32 74 95 116t144 42q80 0 131 -41.5t65 -115.5q6 -28 6 -62q0 -22 -3 -43q-6 -50 -26 -101q-31 -78 -94 -122.5t-145 -44.5q-81 0 -134 44zM321.5 133q24.5 20 39.5 55q12 33 16 70q3 24 3 45q0 46 -21 72
t-60 26q-32 0 -56.5 -19t-38.5 -53q-11 -24 -16 -71q-3 -25 -3 -49q0 -44 21 -70t59 -26q32 0 56.5 20zM166 579q0 4 3 8l84 105q5 8 14 8h129q9 0 13 -8l61 -105q2 -4 2 -6q0 -4 -3.5 -6.5t-8.5 -2.5h-87q-10 0 -13 8l-31 61q-3 6 -6 0l-46 -61q-6 -8 -15 -8h-87q-9 0 -9 7
zM563 703q0 -4 -3 -6.5t-7 -2.5h-82q-9 0 -12 8l-57 101q-2 4 -2 6q0 4 3.5 6.5t8.5 2.5h98q10 0 13 -9l39 -101q1 -2 1 -5z" />
    <glyph glyph-name="uni1ED5" unicode="&#x1ed5;" horiz-adv-x="533" 
d="M116 36q-53 44 -65 120q-4 21 -4 52q0 25 3 50q8 63 27 106q32 74 95 116t144 42q80 0 131 -41.5t65 -115.5q6 -28 6 -62q0 -22 -3 -43q-6 -50 -26 -101q-31 -78 -94 -122.5t-145 -44.5q-81 0 -134 44zM321.5 133q24.5 20 39.5 55q12 33 16 70q3 24 3 45q0 46 -21 72
t-60 26q-32 0 -56.5 -19t-38.5 -53q-11 -24 -16 -71q-3 -25 -3 -49q0 -44 21 -70t59 -26q32 0 56.5 20zM166 579q0 4 3 8l84 105q5 8 14 8h129q9 0 13 -8l61 -105q2 -4 2 -6q0 -4 -3.5 -6.5t-8.5 -2.5h-87q-10 0 -13 8l-31 61q-3 6 -6 0l-46 -61q-6 -8 -15 -8h-87q-9 0 -9 7
zM459 697q14 27 38 49q12 13 17 20.5t6 20.5q1 10 -6 17t-18 7q-13 0 -22.5 -6t-24.5 -24q-4 -5 -9 -6t-9 3l-30 25q-4 3 -4 8t4 9q24 32 48 45.5t59 13.5q40 0 63 -20.5t23 -57.5q0 -29 -11.5 -47.5t-34.5 -39.5q-22 -20 -30 -32q-7 -10 -16 -8l-36 8q-13 3 -7 15z" />
    <glyph glyph-name="uni1ED7" unicode="&#x1ed7;" horiz-adv-x="533" 
d="M116 36q-53 44 -65 120q-4 21 -4 52q0 25 3 50q8 63 27 106q32 74 95 116t144 42q80 0 131 -41.5t65 -115.5q6 -28 6 -62q0 -22 -3 -43q-6 -50 -26 -101q-31 -78 -94 -122.5t-145 -44.5q-81 0 -134 44zM321.5 133q24.5 20 39.5 55q12 33 16 70q3 24 3 45q0 46 -21 72
t-60 26q-32 0 -56.5 -19t-38.5 -53q-11 -24 -16 -71q-3 -25 -3 -49q0 -44 21 -70t59 -26q32 0 56.5 20zM166 579q0 4 3 8l84 105q5 8 14 8h129q9 0 13 -8l61 -105q2 -4 2 -6q0 -4 -3.5 -6.5t-8.5 -2.5h-87q-10 0 -13 8l-31 61q-3 6 -6 0l-46 -61q-6 -8 -15 -8h-87q-9 0 -9 7
zM365.5 736.5q-13.5 4.5 -29.5 13.5q-19 10 -28 13.5t-19 3.5q-31 0 -55 -22q-5 -5 -9 -5t-7 4l-34 44q-4 6 -4 9q0 4 3 8q20 28 49 45t62 17q18 0 31.5 -5t24.5 -10.5t14 -7.5q17 -10 26 -14t20 -4q29 0 50 24q4 5 9 5q4 0 7 -4l31 -45q5 -8 1 -14q-16 -27 -45 -43.5
t-64 -16.5q-20 0 -33.5 4.5z" />
    <glyph glyph-name="odieresis" unicode="&#xf6;" horiz-adv-x="533" 
d="M116 36q-53 44 -65 120q-4 21 -4 52q0 25 3 50q8 63 27 106q32 74 95 116t144 42q80 0 131 -41.5t65 -115.5q6 -28 6 -62q0 -22 -3 -43q-6 -50 -26 -101q-31 -78 -94 -122.5t-145 -44.5q-81 0 -134 44zM321.5 133q24.5 20 39.5 55q12 33 16 70q3 24 3 45q0 46 -21 72
t-60 26q-32 0 -56.5 -19t-38.5 -53q-11 -24 -16 -71q-3 -25 -3 -49q0 -44 21 -70t59 -26q32 0 56.5 20zM365 597.5q-19 19.5 -19 49.5q0 38 25.5 63.5t62.5 25.5q31 0 49.5 -18.5t18.5 -49.5q0 -38 -26 -64t-62 -26q-30 0 -49 19.5zM172 597.5q-19 19.5 -19 49.5
q0 38 25.5 63.5t62.5 25.5q31 0 49.5 -18.5t18.5 -49.5q0 -38 -26 -64t-62 -26q-30 0 -49 19.5z" />
    <glyph glyph-name="uni1ECD" unicode="&#x1ecd;" horiz-adv-x="533" 
d="M116 36q-53 44 -65 120q-4 21 -4 52q0 25 3 50q8 63 27 106q32 74 95 116t144 42q80 0 131 -41.5t65 -115.5q6 -28 6 -62q0 -22 -3 -43q-6 -50 -26 -101q-31 -78 -94 -122.5t-145 -44.5q-81 0 -134 44zM321.5 133q24.5 20 39.5 55q12 33 16 70q3 24 3 45q0 46 -21 72
t-60 26q-32 0 -56.5 -19t-38.5 -53q-11 -24 -16 -71q-3 -25 -3 -49q0 -44 21 -70t59 -26q32 0 56.5 20zM174 -198.5q-18 17.5 -18 45.5q0 39 23.5 63t59.5 24q29 0 46.5 -17.5t17.5 -45.5q0 -37 -24 -62t-59 -25q-28 0 -46 17.5z" />
    <glyph glyph-name="ograve" unicode="&#xf2;" horiz-adv-x="533" 
d="M116 36q-53 44 -65 120q-4 21 -4 52q0 25 3 50q8 63 27 106q32 74 95 116t144 42q80 0 131 -41.5t65 -115.5q6 -28 6 -62q0 -22 -3 -43q-6 -50 -26 -101q-31 -78 -94 -122.5t-145 -44.5q-81 0 -134 44zM321.5 133q24.5 20 39.5 55q12 33 16 70q3 24 3 45q0 46 -21 72
t-60 26q-32 0 -56.5 -19t-38.5 -53q-11 -24 -16 -71q-3 -25 -3 -49q0 -44 21 -70t59 -26q32 0 56.5 20zM370 585q0 -4 -3 -6.5t-7 -2.5h-82q-9 0 -12 8l-57 101q-2 4 -2 6q0 4 3.5 6.5t8.5 2.5h98q10 0 13 -9l39 -101q1 -2 1 -5z" />
    <glyph glyph-name="uni1ECF" unicode="&#x1ecf;" horiz-adv-x="533" 
d="M116 36q-53 44 -65 120q-4 21 -4 52q0 25 3 50q8 63 27 106q32 74 95 116t144 42q80 0 131 -41.5t65 -115.5q6 -28 6 -62q0 -22 -3 -43q-6 -50 -26 -101q-31 -78 -94 -122.5t-145 -44.5q-81 0 -134 44zM321.5 133q24.5 20 39.5 55q12 33 16 70q3 24 3 45q0 46 -21 72
t-60 26q-32 0 -56.5 -19t-38.5 -53q-11 -24 -16 -71q-3 -25 -3 -49q0 -44 21 -70t59 -26q32 0 56.5 20zM296 576q14 27 38 49q12 13 17 20.5t6 20.5q1 10 -6 17t-18 7q-13 0 -22.5 -6t-24.5 -24q-4 -5 -9 -6t-9 3l-30 25q-4 3 -4 8t4 9q24 32 48 45.5t59 13.5q40 0 63 -20.5
t23 -57.5q0 -29 -11.5 -47.5t-34.5 -39.5q-22 -20 -30 -32q-7 -10 -16 -8l-36 8q-13 3 -7 15z" />
    <glyph glyph-name="ohorn" unicode="&#x1a1;" horiz-adv-x="533" 
d="M518 303q0 -22 -3 -43q-6 -50 -26 -101q-31 -78 -94 -122.5t-145 -44.5q-81 0 -134 44t-65 120q-4 21 -4 52q0 25 3 50q8 63 27 106q32 74 95 116t144 42q27 0 60 -7q1 -1 5 -1q26 4 48 21t30 55q0 6 3.5 9t9.5 3h60q12 0 10 -12q-15 -80 -77 -118q-4 -3 -1 -7
q35 -35 48 -100q6 -28 6 -62zM377 258q3 24 3 45q0 46 -21 72t-60 26q-32 0 -56.5 -19t-38.5 -53q-11 -24 -16 -71q-3 -25 -3 -49q0 -44 21 -70t59 -26q32 0 56.5 20t39.5 55q12 33 16 70z" />
    <glyph glyph-name="uni1EDB" unicode="&#x1edb;" horiz-adv-x="533" 
d="M518 303q0 -22 -3 -43q-6 -50 -26 -101q-31 -78 -94 -122.5t-145 -44.5q-81 0 -134 44t-65 120q-4 21 -4 52q0 25 3 50q8 63 27 106q32 74 95 116t144 42q27 0 60 -7q1 -1 5 -1q26 4 48 21t30 55q0 6 3.5 9t9.5 3h60q12 0 10 -12q-15 -80 -77 -118q-4 -3 -1 -7
q35 -35 48 -100q6 -28 6 -62zM377 258q3 24 3 45q0 46 -21 72t-60 26q-32 0 -56.5 -19t-38.5 -53q-11 -24 -16 -71q-3 -25 -3 -49q0 -44 21 -70t59 -26q32 0 56.5 20t39.5 55q12 33 16 70zM255 582q0 4 3 8l64 101q4 9 15 9h98q9 0 9 -7q0 -3 -3 -8l-81 -101q-6 -8 -15 -8
h-81q-9 0 -9 6z" />
    <glyph glyph-name="uni1EE3" unicode="&#x1ee3;" horiz-adv-x="533" 
d="M518 303q0 -22 -3 -43q-6 -50 -26 -101q-31 -78 -94 -122.5t-145 -44.5q-81 0 -134 44t-65 120q-4 21 -4 52q0 25 3 50q8 63 27 106q32 74 95 116t144 42q27 0 60 -7q1 -1 5 -1q26 4 48 21t30 55q0 6 3.5 9t9.5 3h60q12 0 10 -12q-15 -80 -77 -118q-4 -3 -1 -7
q35 -35 48 -100q6 -28 6 -62zM377 258q3 24 3 45q0 46 -21 72t-60 26q-32 0 -56.5 -19t-38.5 -53q-11 -24 -16 -71q-3 -25 -3 -49q0 -44 21 -70t59 -26q32 0 56.5 20t39.5 55q12 33 16 70zM174 -198.5q-18 17.5 -18 45.5q0 39 23.5 63t59.5 24q29 0 46.5 -17.5t17.5 -45.5
q0 -37 -24 -62t-59 -25q-28 0 -46 17.5z" />
    <glyph glyph-name="uni1EDD" unicode="&#x1edd;" horiz-adv-x="533" 
d="M518 303q0 -22 -3 -43q-6 -50 -26 -101q-31 -78 -94 -122.5t-145 -44.5q-81 0 -134 44t-65 120q-4 21 -4 52q0 25 3 50q8 63 27 106q32 74 95 116t144 42q27 0 60 -7q1 -1 5 -1q26 4 48 21t30 55q0 6 3.5 9t9.5 3h60q12 0 10 -12q-15 -80 -77 -118q-4 -3 -1 -7
q35 -35 48 -100q6 -28 6 -62zM377 258q3 24 3 45q0 46 -21 72t-60 26q-32 0 -56.5 -19t-38.5 -53q-11 -24 -16 -71q-3 -25 -3 -49q0 -44 21 -70t59 -26q32 0 56.5 20t39.5 55q12 33 16 70zM370 585q0 -4 -3 -6.5t-7 -2.5h-82q-9 0 -12 8l-57 101q-2 4 -2 6q0 4 3.5 6.5
t8.5 2.5h98q10 0 13 -9l39 -101q1 -2 1 -5z" />
    <glyph glyph-name="uni1EDF" unicode="&#x1edf;" horiz-adv-x="533" 
d="M518 303q0 -22 -3 -43q-6 -50 -26 -101q-31 -78 -94 -122.5t-145 -44.5q-81 0 -134 44t-65 120q-4 21 -4 52q0 25 3 50q8 63 27 106q32 74 95 116t144 42q27 0 60 -7q1 -1 5 -1q26 4 48 21t30 55q0 6 3.5 9t9.5 3h60q12 0 10 -12q-15 -80 -77 -118q-4 -3 -1 -7
q35 -35 48 -100q6 -28 6 -62zM377 258q3 24 3 45q0 46 -21 72t-60 26q-32 0 -56.5 -19t-38.5 -53q-11 -24 -16 -71q-3 -25 -3 -49q0 -44 21 -70t59 -26q32 0 56.5 20t39.5 55q12 33 16 70zM296 576q14 27 38 49q12 13 17 20.5t6 20.5q1 10 -6 17t-18 7q-13 0 -22.5 -6
t-24.5 -24q-4 -5 -9 -6t-9 3l-30 25q-4 3 -4 8t4 9q24 32 48 45.5t59 13.5q40 0 63 -20.5t23 -57.5q0 -29 -11.5 -47.5t-34.5 -39.5q-22 -20 -30 -32q-7 -10 -16 -8l-36 8q-13 3 -7 15z" />
    <glyph glyph-name="uni1EE1" unicode="&#x1ee1;" horiz-adv-x="533" 
d="M518 303q0 -22 -3 -43q-6 -50 -26 -101q-31 -78 -94 -122.5t-145 -44.5q-81 0 -134 44t-65 120q-4 21 -4 52q0 25 3 50q8 63 27 106q32 74 95 116t144 42q27 0 60 -7q1 -1 5 -1q26 4 48 21t30 55q0 6 3.5 9t9.5 3h60q12 0 10 -12q-15 -80 -77 -118q-4 -3 -1 -7
q35 -35 48 -100q6 -28 6 -62zM377 258q3 24 3 45q0 46 -21 72t-60 26q-32 0 -56.5 -19t-38.5 -53q-11 -24 -16 -71q-3 -25 -3 -49q0 -44 21 -70t59 -26q32 0 56.5 20t39.5 55q12 33 16 70zM316.5 586.5q-13.5 4.5 -29.5 13.5q-19 10 -28 13.5t-19 3.5q-31 0 -55 -22
q-5 -5 -9 -5t-7 4l-34 44q-4 6 -4 9q0 4 3 8q20 28 49 45t62 17q18 0 31.5 -5t24.5 -10.5t14 -7.5q17 -10 26 -14t20 -4q29 0 50 24q4 5 9 5q4 0 7 -4l31 -45q5 -8 1 -14q-16 -27 -45 -43.5t-64 -16.5q-20 0 -33.5 4.5z" />
    <glyph glyph-name="ohungarumlaut" unicode="&#x151;" horiz-adv-x="533" 
d="M116 36q-53 44 -65 120q-4 21 -4 52q0 25 3 50q8 63 27 106q32 74 95 116t144 42q80 0 131 -41.5t65 -115.5q6 -28 6 -62q0 -22 -3 -43q-6 -50 -26 -101q-31 -78 -94 -122.5t-145 -44.5q-81 0 -134 44zM321.5 133q24.5 20 39.5 55q12 33 16 70q3 24 3 45q0 46 -21 72
t-60 26q-32 0 -56.5 -19t-38.5 -53q-11 -24 -16 -71q-3 -25 -3 -49q0 -44 21 -70t59 -26q32 0 56.5 20zM181 580q-3 4 1 10l58 101q5 9 15 9h100q7 0 9 -4t-2 -10l-64 -101q-6 -9 -16 -9h-92q-6 0 -9 4zM354 580q-2 4 2 10l64 101q2 4 6.5 6.5t8.5 2.5h94q6 0 7.5 -4
t-1.5 -10l-64 -101q-6 -9 -16 -9h-92q-7 0 -9 4z" />
    <glyph glyph-name="omacron" unicode="&#x14d;" horiz-adv-x="533" 
d="M116 36q-53 44 -65 120q-4 21 -4 52q0 25 3 50q8 63 27 106q32 74 95 116t144 42q80 0 131 -41.5t65 -115.5q6 -28 6 -62q0 -22 -3 -43q-6 -50 -26 -101q-31 -78 -94 -122.5t-145 -44.5q-81 0 -134 44zM321.5 133q24.5 20 39.5 55q12 33 16 70q3 24 3 45q0 46 -21 72
t-60 26q-32 0 -56.5 -19t-38.5 -53q-11 -24 -16 -71q-3 -25 -3 -49q0 -44 21 -70t59 -26q32 0 56.5 20zM179 581.5q-3 3.5 -2 8.5l9 71q1 5 4.5 8.5t8.5 3.5h262q5 0 8 -3.5t2 -8.5l-9 -71q-1 -5 -4.5 -8.5t-8.5 -3.5h-262q-5 0 -8 3.5z" />
    <glyph glyph-name="oslash" unicode="&#xf8;" horiz-adv-x="534" 
d="M499 417q10 -21 16 -52q5 -24 5 -61q0 -29 -2 -44q-8 -55 -26 -101q-31 -78 -94 -122.5t-145 -44.5q-48 0 -87 15q-5 2 -7 -2l-43 -54q-3 -5 -9 -5q-3 0 -8 3l-70 65q-4 4 -4 8q0 3 4 9l44 56q2 3 0 6q-13 27 -19 63q-4 21 -4 52q0 25 3 50q8 63 27 106q32 74 95 116
t144 42q52 0 88 -16q5 -2 7 2l46 57q4 5 8.5 5.5t8.5 -3.5l71 -65q3 -3 3 -7q0 -6 -4 -10l-48 -61q-1 -3 0 -7zM380 258q3 24 3 45q0 46 -21 72t-60 26q-32 0 -56.5 -19t-38.5 -53q-11 -24 -16 -71q-3 -25 -3 -49q0 -44 21 -70t59 -26q32 0 56.5 20t39.5 55q12 33 16 70z
" />
    <glyph glyph-name="oslashacute" unicode="&#x1ff;" horiz-adv-x="518" 
d="M499 417q10 -21 16 -52q5 -24 5 -61q0 -29 -2 -44q-8 -55 -26 -101q-31 -78 -94 -122.5t-145 -44.5q-48 0 -87 15q-5 2 -7 -2l-43 -54q-3 -5 -9 -5q-3 0 -8 3l-70 65q-4 4 -4 8q0 3 4 9l44 56q2 3 0 6q-13 27 -19 63q-4 21 -4 52q0 25 3 50q8 63 27 106q32 74 95 116
t144 42q52 0 88 -16q5 -2 7 2l46 57q4 5 8.5 5.5t8.5 -3.5l71 -65q3 -3 3 -7q0 -6 -4 -10l-48 -61q-1 -3 0 -7zM380 258q3 24 3 45q0 46 -21 72t-60 26q-32 0 -56.5 -19t-38.5 -53q-11 -24 -16 -71q-3 -25 -3 -49q0 -44 21 -70t59 -26q32 0 56.5 20t39.5 55q12 33 16 70z
M248 582q0 4 3 8l64 101q4 9 15 9h98q9 0 9 -7q0 -3 -3 -8l-81 -101q-6 -8 -15 -8h-81q-9 0 -9 6z" />
    <glyph glyph-name="otilde" unicode="&#xf5;" horiz-adv-x="533" 
d="M116 36q-53 44 -65 120q-4 21 -4 52q0 25 3 50q8 63 27 106q32 74 95 116t144 42q80 0 131 -41.5t65 -115.5q6 -28 6 -62q0 -22 -3 -43q-6 -50 -26 -101q-31 -78 -94 -122.5t-145 -44.5q-81 0 -134 44zM321.5 133q24.5 20 39.5 55q12 33 16 70q3 24 3 45q0 46 -21 72
t-60 26q-32 0 -56.5 -19t-38.5 -53q-11 -24 -16 -71q-3 -25 -3 -49q0 -44 21 -70t59 -26q32 0 56.5 20zM345.5 577.5q-13.5 4.5 -29.5 13.5q-19 10 -28 13.5t-19 3.5q-31 0 -55 -22q-5 -5 -9 -5t-7 4l-34 44q-4 6 -4 9q0 4 3 8q20 28 49 45t62 17q18 0 31.5 -5t24.5 -10.5
t14 -7.5q17 -10 26 -14t20 -4q29 0 50 24q4 5 9 5q4 0 7 -4l31 -45q5 -8 1 -14q-16 -27 -45 -43.5t-64 -16.5q-20 0 -33.5 4.5z" />
    <glyph glyph-name="oe" unicode="&#x153;" horiz-adv-x="846" 
d="M655 122.5q26 12.5 45 33.5q10 12 17 3l60 -59q3 -4 3 -9q0 -3 -3 -8q-38 -44 -89.5 -67.5t-113.5 -23.5q-51 0 -91.5 19t-67.5 54q-1 5 -6 0q-35 -34 -77.5 -53.5t-89.5 -19.5q-74 0 -125 40t-66 109q-5 30 -5 56q0 18 4 62q9 68 30 117q31 67 92 106.5t136 39.5
q45 0 83 -19t65 -53q3 -4 7 0q35 34 77.5 53t88.5 19q76 0 128.5 -41t65.5 -107q5 -22 5 -51q0 -34 -8 -103q-1 -12 -13 -12h-296q-5 0 -5 -4q0 -16 3 -28q5 -32 29.5 -49t67.5 -17q23 0 49 12.5zM363 259q3 23 3 41q0 19 -4 39q-5 29 -23 45.5t-46 16.5t-50.5 -16.5
t-35.5 -45.5q-13 -26 -19 -80q-3 -27 -3 -47q0 -21 3 -36q5 -29 23 -46t46 -17t50.5 17t34.5 46q13 28 21 83zM563.5 384q-22.5 -17 -35.5 -46l-9 -29q-2 -5 3 -5h164q5 0 5 5v9q0 36 -20 59.5t-55 23.5q-30 0 -52.5 -17z" />
    <glyph glyph-name="p" unicode="p" horiz-adv-x="551" 
d="M529 313q0 -19 -4 -57q-8 -70 -34 -125q-30 -64 -82.5 -101.5t-123.5 -37.5q-70 0 -102 50q-2 3 -4 2t-2 -4l-27 -214q-1 -5 -4.5 -8.5t-8.5 -3.5h-113q-5 0 -8 3.5t-2 8.5l83 676q0 5 4 8.5t9 3.5h113q5 0 8 -3.5t2 -8.5l-4 -33q0 -3 2 -3.5t4 1.5q47 55 119 55
q67 0 111 -38.5t57 -107.5q7 -28 7 -63zM384 258q2 13 2 37q0 39 -10 63q-17 43 -67 43q-44 0 -72 -43q-25 -36 -33 -101q-3 -22 -3 -41q0 -37 12 -63q17 -40 61 -40q43 0 73 39q28 39 37 106z" />
    <glyph glyph-name="thorn" unicode="&#xfe;" horiz-adv-x="534" 
d="M514 324q0 -28 -5 -66q-8 -66 -27 -116q-27 -69 -82 -109.5t-120 -40.5q-68 0 -102 47q-1 2 -3 1t-3 -4l-27 -224q-1 -5 -4.5 -8.5t-8.5 -3.5h-114q-5 0 -8 3.5t-2 8.5l108 876q0 5 4 8.5t9 3.5h113q5 0 8 -3.5t2 -8.5l-25 -205q0 -6 6 -2q41 41 108 41t110 -37.5
t56 -98.5q7 -28 7 -62zM356.5 205.5q4.5 18.5 8.5 51.5q5 38 5 53q0 18 -5 33q-5 26 -24 42t-48 16q-27 0 -47.5 -14t-33.5 -37q-2 -4 -2 -6l-21 -172q0 -1 -0.5 -2.5t0.5 -3.5q7 -24 24 -38.5t44 -14.5q29 0 52 16t35 43q8 15 12.5 33.5z" />
    <glyph glyph-name="q" unicode="q" horiz-adv-x="551" 
d="M406.5 510.5q3.5 3.5 8.5 3.5h114q5 0 8 -3.5t2 -8.5l-83 -676q-1 -5 -4.5 -8.5t-8.5 -3.5h-114q-5 0 -8 3.5t-2 8.5l26 214q1 3 -1 4t-4 -2q-45 -50 -115 -50t-114 37.5t-58 101.5q-6 30 -6 64q0 33 4 61q8 67 31 120q29 69 83 107.5t122 38.5q71 0 105 -55q2 -2 4 -1.5
t2 3.5l4 33q1 5 4.5 8.5zM371 257q3 23 3 41q0 37 -10 60q-18 43 -63 43q-48 0 -77 -43q-25 -41 -32 -100q-3 -19 -3 -36q0 -42 14 -70q19 -39 64 -39q42 0 70 40q26 37 34 104z" />
    <glyph glyph-name="r" unicode="r" horiz-adv-x="372" 
d="M397 507q8 -4 4 -15l-34 -114q-3 -12 -15 -7q-13 5 -34 5q-7 0 -21 -2q-35 -3 -62.5 -27t-31.5 -62l-34 -273q-1 -5 -4.5 -8.5t-8.5 -3.5h-113q-5 0 -8 3.5t-2 8.5l60 490q1 5 4.5 8.5t8.5 3.5h113q5 0 8 -3.5t2 -8.5l-4 -38q-1 -3 1 -4t4 1q45 60 113 60q35 0 54 -14z
" />
    <glyph glyph-name="racute" unicode="&#x155;" horiz-adv-x="372" 
d="M397 507q8 -4 4 -15l-34 -114q-3 -12 -15 -7q-13 5 -34 5q-7 0 -21 -2q-35 -3 -62.5 -27t-31.5 -62l-34 -273q-1 -5 -4.5 -8.5t-8.5 -3.5h-113q-5 0 -8 3.5t-2 8.5l60 490q1 5 4.5 8.5t8.5 3.5h113q5 0 8 -3.5t2 -8.5l-4 -38q-1 -3 1 -4t4 1q45 60 113 60q35 0 54 -14z
M196 582q0 4 3 8l64 101q4 9 15 9h98q9 0 9 -7q0 -3 -3 -8l-81 -101q-6 -8 -15 -8h-81q-9 0 -9 6z" />
    <glyph glyph-name="rcaron" unicode="&#x159;" horiz-adv-x="372" 
d="M397 507q8 -4 4 -15l-34 -114q-3 -12 -15 -7q-13 5 -34 5q-7 0 -21 -2q-35 -3 -62.5 -27t-31.5 -62l-34 -273q-1 -5 -4.5 -8.5t-8.5 -3.5h-113q-5 0 -8 3.5t-2 8.5l60 490q1 5 4.5 8.5t8.5 3.5h113q5 0 8 -3.5t2 -8.5l-4 -38q-1 -3 1 -4t4 1q45 60 113 60q35 0 54 -14z
M127 691q0 4 3 6.5t8 2.5h88q9 0 12 -8l32 -61q2 -7 5 0l47 61q5 8 14 8h88q9 0 9 -7q0 -3 -3 -8l-87 -106q-6 -7 -15 -7h-129q-9 0 -12 8l-58 105q-2 4 -2 6z" />
    <glyph glyph-name="s" unicode="s" horiz-adv-x="487" 
d="M84 29.5q-53 36.5 -53 96.5q0 10 1 16l1 10q1 5 4.5 8.5t8.5 3.5h108q5 0 8 -3.5t2 -8.5v-1q-3 -22 19 -37.5t58 -15.5q34 0 56.5 14.5t22.5 36.5q0 16 -17 24.5t-52 17.5q-44 13 -69 23q-54 20 -86 48t-32 79q0 54 29 95t80 63t115 22q87 0 137.5 -39.5t50.5 -103.5
q0 -13 -1 -19q-1 -5 -4.5 -8.5t-8.5 -3.5h-104q-5 0 -8 3.5t-2 8.5q2 22 -17.5 37t-55.5 15q-34 0 -56.5 -13t-22.5 -36q0 -18 19 -27.5t62 -20.5q36 -9 51 -14q61 -19 96 -48.5t35 -82.5q0 -12 -1 -19q-10 -74 -72 -115.5t-157 -41.5q-92 0 -145 36.5z" />
    <glyph glyph-name="sacute" unicode="&#x15b;" horiz-adv-x="489" 
d="M84 29.5q-53 36.5 -53 96.5q0 10 1 16l1 10q1 5 4.5 8.5t8.5 3.5h108q5 0 8 -3.5t2 -8.5v-1q-3 -22 19 -37.5t58 -15.5q34 0 56.5 14.5t22.5 36.5q0 16 -17 24.5t-52 17.5q-44 13 -69 23q-54 20 -86 48t-32 79q0 54 29 95t80 63t115 22q87 0 137.5 -39.5t50.5 -103.5
q0 -13 -1 -19q-1 -5 -4.5 -8.5t-8.5 -3.5h-104q-5 0 -8 3.5t-2 8.5q2 22 -17.5 37t-55.5 15q-34 0 -56.5 -13t-22.5 -36q0 -18 19 -27.5t62 -20.5q36 -9 51 -14q61 -19 96 -48.5t35 -82.5q0 -12 -1 -19q-10 -74 -72 -115.5t-157 -41.5q-92 0 -145 36.5zM232 582q0 4 3 8
l64 101q4 9 15 9h98q9 0 9 -7q0 -3 -3 -8l-81 -101q-6 -8 -15 -8h-81q-9 0 -9 6z" />
    <glyph glyph-name="scaron" unicode="&#x161;" horiz-adv-x="489" 
d="M84 29.5q-53 36.5 -53 96.5q0 10 1 16l1 10q1 5 4.5 8.5t8.5 3.5h108q5 0 8 -3.5t2 -8.5v-1q-3 -22 19 -37.5t58 -15.5q34 0 56.5 14.5t22.5 36.5q0 16 -17 24.5t-52 17.5q-44 13 -69 23q-54 20 -86 48t-32 79q0 54 29 95t80 63t115 22q87 0 137.5 -39.5t50.5 -103.5
q0 -13 -1 -19q-1 -5 -4.5 -8.5t-8.5 -3.5h-104q-5 0 -8 3.5t-2 8.5q2 22 -17.5 37t-55.5 15q-34 0 -56.5 -13t-22.5 -36q0 -18 19 -27.5t62 -20.5q36 -9 51 -14q61 -19 96 -48.5t35 -82.5q0 -12 -1 -19q-10 -74 -72 -115.5t-157 -41.5q-92 0 -145 36.5zM163 691q0 4 3 6.5
t8 2.5h88q9 0 12 -8l32 -61q2 -7 5 0l47 61q5 8 14 8h88q9 0 9 -7q0 -3 -3 -8l-87 -106q-6 -7 -15 -7h-129q-9 0 -12 8l-58 105q-2 4 -2 6z" />
    <glyph glyph-name="scedilla" unicode="&#x15f;" horiz-adv-x="489" 
d="M405 47.5q-45 -39.5 -118 -50.5q-6 -2 -3 -6q33 -38 33 -76q0 -15 -7 -36q-13 -34 -40 -49t-60 -15q-30 0 -58 11q-10 3 -7 14l13 50q3 13 16 8q9 -3 17 -3q25 0 36 23q2 4 2 13q0 29 -36 62q-4 2 -6 2q-74 8 -115 43.5t-41 88.5q0 10 1 15l1 10q1 5 4.5 8.5t8.5 3.5h108
q5 0 8 -3.5t2 -8.5v-1q-3 -22 19 -37.5t58 -15.5q34 0 56.5 14.5t22.5 36.5q0 16 -17 24.5t-52 17.5q-44 13 -69 23q-54 20 -86 48t-32 79q0 54 29 95t80 63t115 22q87 0 137.5 -39.5t50.5 -103.5q0 -13 -1 -19q-1 -5 -4.5 -8.5t-8.5 -3.5h-104q-5 0 -8 3.5t-2 8.5
q2 22 -17.5 37t-55.5 15q-34 0 -56.5 -13t-22.5 -36q0 -18 19 -27.5t62 -20.5q36 -9 51 -14q61 -19 96 -48.5t35 -82.5q0 -12 -1 -19q-8 -63 -53 -102.5z" />
    <glyph glyph-name="scircumflex" unicode="&#x15d;" horiz-adv-x="489" 
d="M84 29.5q-53 36.5 -53 96.5q0 10 1 16l1 10q1 5 4.5 8.5t8.5 3.5h108q5 0 8 -3.5t2 -8.5v-1q-3 -22 19 -37.5t58 -15.5q34 0 56.5 14.5t22.5 36.5q0 16 -17 24.5t-52 17.5q-44 13 -69 23q-54 20 -86 48t-32 79q0 54 29 95t80 63t115 22q87 0 137.5 -39.5t50.5 -103.5
q0 -13 -1 -19q-1 -5 -4.5 -8.5t-8.5 -3.5h-104q-5 0 -8 3.5t-2 8.5q2 22 -17.5 37t-55.5 15q-34 0 -56.5 -13t-22.5 -36q0 -18 19 -27.5t62 -20.5q36 -9 51 -14q61 -19 96 -48.5t35 -82.5q0 -12 -1 -19q-10 -74 -72 -115.5t-157 -41.5q-92 0 -145 36.5zM144 579q0 4 3 8
l84 105q5 8 14 8h129q9 0 13 -8l61 -105q2 -4 2 -6q0 -4 -3.5 -6.5t-8.5 -2.5h-87q-10 0 -13 8l-31 61q-3 6 -6 0l-46 -61q-6 -8 -15 -8h-87q-9 0 -9 7z" />
    <glyph glyph-name="germandbls" unicode="&#xdf;" horiz-adv-x="557" 
d="M37 4.5q-3 3.5 -2 8.5l57 471q14 106 80 165t173 59q95 0 152 -45t57 -123q0 -8 -2 -26q-10 -90 -86 -131q-4 -3 -1 -6q30 -19 46.5 -55t16.5 -83q0 -9 -2 -33q-12 -98 -83 -152t-189 -54h-32q-5 0 -8 3.5t-2 8.5l12 96q1 5 4.5 8.5t8.5 3.5h45q47 0 78.5 32t31.5 86
q0 39 -22 61t-57 22h-43q-5 0 -8 3.5t-2 8.5l11 87q1 5 4.5 8.5t8.5 3.5h41q38 0 64 25.5t26 62.5q0 30 -18.5 49t-56.5 19q-42 0 -73 -24t-36 -67l-60 -485q-1 -5 -4.5 -8.5t-8.5 -3.5l-113 1q-5 0 -8 3.5z" />
    <glyph glyph-name="t" unicode="t" horiz-adv-x="369" 
d="M363.5 404.5q-3.5 -3.5 -8.5 -3.5h-93q-4 0 -6 -5l-26 -212q-1 -6 -1 -16q0 -49 48 -49h32q5 0 8.5 -3.5t2.5 -8.5l-12 -95q-2 -12 -13 -13q-40 -2 -59 -2q-74 0 -110.5 22.5t-36.5 82.5q0 8 2 26l33 268q2 5 -4 5h-55q-5 0 -8 3.5t-2 8.5l11 89q0 5 4 8.5t9 3.5h55
q5 0 5 5l15 119q1 5 4.5 8.5t8.5 3.5h109q5 0 8 -3.5t2 -8.5l-15 -119q0 -5 5 -5h93q5 0 8 -3.5t2 -8.5l-11 -89q-1 -5 -4.5 -8.5z" />
    <glyph glyph-name="tbar" unicode="&#x167;" horiz-adv-x="369" 
d="M363.5 404.5q-3.5 -3.5 -8.5 -3.5h-93q-4 0 -6 -5l-5 -45q-2 -5 4 -5h90q5 0 8 -3.5t2 -8.5l-7 -61q-1 -5 -4.5 -8.5t-8.5 -3.5h-91q-2 0 -3.5 -1.5t-1.5 -3.5l-9 -72q-1 -6 -1 -16q0 -49 48 -49h32q5 0 8.5 -3.5t2.5 -8.5l-12 -95q-2 -12 -13 -13q-40 -2 -59 -2
q-74 0 -110.5 22.5t-36.5 82.5q0 8 2 26l16 128q0 5 -4 5h-53q-5 0 -8.5 3.5t-2.5 8.5l8 61q1 5 4.5 8.5t8.5 3.5h53q4 0 6 5l5 45q2 5 -4 5h-55q-5 0 -8 3.5t-2 8.5l11 89q0 5 4 8.5t9 3.5h55q5 0 5 5l15 119q1 5 4.5 8.5t8.5 3.5h109q5 0 8 -3.5t2 -8.5l-15 -119
q0 -5 5 -5h93q5 0 8 -3.5t2 -8.5l-11 -89q-1 -5 -4.5 -8.5z" />
    <glyph glyph-name="tcaron" unicode="&#x165;" horiz-adv-x="369" 
d="M363.5 404.5q-3.5 -3.5 -8.5 -3.5h-93q-4 0 -6 -5l-26 -212q-1 -6 -1 -16q0 -49 48 -49h32q5 0 8.5 -3.5t2.5 -8.5l-12 -95q-2 -12 -13 -13q-40 -2 -59 -2q-74 0 -110.5 22.5t-36.5 82.5q0 8 2 26l33 268q2 5 -4 5h-55q-5 0 -8 3.5t-2 8.5l11 89q0 5 4 8.5t9 3.5h55
q5 0 5 5l15 119q1 5 4.5 8.5t8.5 3.5h109q5 0 8 -3.5t2 -8.5l-15 -119q0 -5 5 -5h93q5 0 8 -3.5t2 -8.5l-11 -89q-1 -5 -4.5 -8.5zM305 582q0 4 3 8l64 101q4 9 15 9h98q9 0 9 -7q0 -3 -3 -8l-81 -101q-6 -8 -15 -8h-81q-9 0 -9 6z" />
    <glyph glyph-name="u" unicode="u" horiz-adv-x="528" 
d="M388.5 510.5q3.5 3.5 8.5 3.5h113q5 0 8 -3.5t2 -8.5l-60 -490q-1 -5 -4.5 -8.5t-8.5 -3.5h-113q-5 0 -8 3.5t-2 8.5l4 34q0 3 -2 3.5t-4 -2.5q-46 -54 -127 -54q-67 0 -108 38t-41 108q0 9 2 29l41 334q1 5 4.5 8.5t8.5 3.5h112q11 0 11 -12l-37 -299q-1 -6 -1 -17
q0 -34 18 -53.5t50 -19.5q33 0 57.5 20.5t32.5 53.5l39 315q1 5 4.5 8.5z" />
    <glyph glyph-name="uacute" unicode="&#xfa;" 
d="M388.5 510.5q3.5 3.5 8.5 3.5h113q5 0 8 -3.5t2 -8.5l-60 -490q-1 -5 -4.5 -8.5t-8.5 -3.5h-113q-5 0 -8 3.5t-2 8.5l4 34q0 3 -2 3.5t-4 -2.5q-46 -54 -127 -54q-67 0 -108 38t-41 108q0 9 2 29l41 334q1 5 4.5 8.5t8.5 3.5h112q11 0 11 -12l-37 -299q-1 -6 -1 -17
q0 -34 18 -53.5t50 -19.5q33 0 57.5 20.5t32.5 53.5l39 315q1 5 4.5 8.5zM252 582q0 4 3 8l64 101q4 9 15 9h98q9 0 9 -7q0 -3 -3 -8l-81 -101q-6 -8 -15 -8h-81q-9 0 -9 6z" />
    <glyph glyph-name="ubreve" unicode="&#x16d;" 
d="M388.5 510.5q3.5 3.5 8.5 3.5h113q5 0 8 -3.5t2 -8.5l-60 -490q-1 -5 -4.5 -8.5t-8.5 -3.5h-113q-5 0 -8 3.5t-2 8.5l4 34q0 3 -2 3.5t-4 -2.5q-46 -54 -127 -54q-67 0 -108 38t-41 108q0 9 2 29l41 334q1 5 4.5 8.5t8.5 3.5h112q11 0 11 -12l-37 -299q-1 -6 -1 -17
q0 -34 18 -53.5t50 -19.5q33 0 57.5 20.5t32.5 53.5l39 315q1 5 4.5 8.5zM213.5 597.5q-38.5 31.5 -38.5 80.5q0 14 12 14l58 -1q9 0 11 -11q1 -21 19.5 -34t46.5 -13t50 13t29 35q3 11 13 11h56q6 0 9 -2.5t1 -7.5q-10 -50 -57 -83t-110 -33q-61 0 -99.5 31.5z" />
    <glyph glyph-name="uni01D4" unicode="&#x1d4;" 
d="M388.5 510.5q3.5 3.5 8.5 3.5h113q5 0 8 -3.5t2 -8.5l-60 -490q-1 -5 -4.5 -8.5t-8.5 -3.5h-113q-5 0 -8 3.5t-2 8.5l4 34q0 3 -2 3.5t-4 -2.5q-46 -54 -127 -54q-67 0 -108 38t-41 108q0 9 2 29l41 334q1 5 4.5 8.5t8.5 3.5h112q11 0 11 -12l-37 -299q-1 -6 -1 -17
q0 -34 18 -53.5t50 -19.5q33 0 57.5 20.5t32.5 53.5l39 315q1 5 4.5 8.5zM183 690q0 4 3 6.5t8 2.5h88q9 0 12 -8l32 -61q2 -7 5 0l47 61q5 8 14 8h88q9 0 9 -7q0 -3 -3 -8l-87 -106q-6 -7 -15 -7h-129q-9 0 -12 8l-58 105q-2 4 -2 6z" />
    <glyph glyph-name="ucircumflex" unicode="&#xfb;" 
d="M388.5 510.5q3.5 3.5 8.5 3.5h113q5 0 8 -3.5t2 -8.5l-60 -490q-1 -5 -4.5 -8.5t-8.5 -3.5h-113q-5 0 -8 3.5t-2 8.5l4 34q0 3 -2 3.5t-4 -2.5q-46 -54 -127 -54q-67 0 -108 38t-41 108q0 9 2 29l41 334q1 5 4.5 8.5t8.5 3.5h112q11 0 11 -12l-37 -299q-1 -6 -1 -17
q0 -34 18 -53.5t50 -19.5q33 0 57.5 20.5t32.5 53.5l39 315q1 5 4.5 8.5zM164 579q0 4 3 8l84 105q5 8 14 8h129q9 0 13 -8l61 -105q2 -4 2 -6q0 -4 -3.5 -6.5t-8.5 -2.5h-87q-10 0 -13 8l-31 61q-3 6 -6 0l-46 -61q-6 -8 -15 -8h-87q-9 0 -9 7z" />
    <glyph glyph-name="udieresis" unicode="&#xfc;" 
d="M388.5 510.5q3.5 3.5 8.5 3.5h113q5 0 8 -3.5t2 -8.5l-60 -490q-1 -5 -4.5 -8.5t-8.5 -3.5h-113q-5 0 -8 3.5t-2 8.5l4 34q0 3 -2 3.5t-4 -2.5q-46 -54 -127 -54q-67 0 -108 38t-41 108q0 9 2 29l41 334q1 5 4.5 8.5t8.5 3.5h112q11 0 11 -12l-37 -299q-1 -6 -1 -17
q0 -34 18 -53.5t50 -19.5q33 0 57.5 20.5t32.5 53.5l39 315q1 5 4.5 8.5zM363 597.5q-19 19.5 -19 49.5q0 38 25.5 63.5t62.5 25.5q31 0 49.5 -18.5t18.5 -49.5q0 -38 -26 -64t-62 -26q-30 0 -49 19.5zM170 597.5q-19 19.5 -19 49.5q0 38 25.5 63.5t62.5 25.5
q31 0 49.5 -18.5t18.5 -49.5q0 -38 -26 -64t-62 -26q-30 0 -49 19.5z" />
    <glyph glyph-name="uni1EE5" unicode="&#x1ee5;" 
d="M388.5 510.5q3.5 3.5 8.5 3.5h113q5 0 8 -3.5t2 -8.5l-60 -490q-1 -5 -4.5 -8.5t-8.5 -3.5h-113q-5 0 -8 3.5t-2 8.5l4 34q0 3 -2 3.5t-4 -2.5q-46 -54 -127 -54q-67 0 -108 38t-41 108q0 9 2 29l41 334q1 5 4.5 8.5t8.5 3.5h112q11 0 11 -12l-37 -299q-1 -6 -1 -17
q0 -34 18 -53.5t50 -19.5q33 0 57.5 20.5t32.5 53.5l39 315q1 5 4.5 8.5zM169 -198.5q-18 17.5 -18 45.5q0 39 23.5 63t59.5 24q29 0 46.5 -17.5t17.5 -45.5q0 -37 -24 -62t-59 -25q-28 0 -46 17.5z" />
    <glyph glyph-name="ugrave" unicode="&#xf9;" 
d="M388.5 510.5q3.5 3.5 8.5 3.5h113q5 0 8 -3.5t2 -8.5l-60 -490q-1 -5 -4.5 -8.5t-8.5 -3.5h-113q-5 0 -8 3.5t-2 8.5l4 34q0 3 -2 3.5t-4 -2.5q-46 -54 -127 -54q-67 0 -108 38t-41 108q0 9 2 29l41 334q1 5 4.5 8.5t8.5 3.5h112q11 0 11 -12l-37 -299q-1 -6 -1 -17
q0 -34 18 -53.5t50 -19.5q33 0 57.5 20.5t32.5 53.5l39 315q1 5 4.5 8.5zM368 585q0 -4 -3 -6.5t-7 -2.5h-82q-9 0 -12 8l-57 101q-2 4 -2 6q0 4 3.5 6.5t8.5 2.5h98q10 0 13 -9l39 -101q1 -2 1 -5z" />
    <glyph glyph-name="uni1EE7" unicode="&#x1ee7;" 
d="M388.5 510.5q3.5 3.5 8.5 3.5h113q5 0 8 -3.5t2 -8.5l-60 -490q-1 -5 -4.5 -8.5t-8.5 -3.5h-113q-5 0 -8 3.5t-2 8.5l4 34q0 3 -2 3.5t-4 -2.5q-46 -54 -127 -54q-67 0 -108 38t-41 108q0 9 2 29l41 334q1 5 4.5 8.5t8.5 3.5h112q11 0 11 -12l-37 -299q-1 -6 -1 -17
q0 -34 18 -53.5t50 -19.5q33 0 57.5 20.5t32.5 53.5l39 315q1 5 4.5 8.5zM294 576q14 27 38 49q12 13 17 20.5t6 20.5q1 10 -6 17t-18 7q-13 0 -22.5 -6t-24.5 -24q-4 -5 -9 -6t-9 3l-30 25q-4 3 -4 8t4 9q24 32 48 45.5t59 13.5q40 0 63 -20.5t23 -57.5q0 -29 -11.5 -47.5
t-34.5 -39.5q-22 -20 -30 -32q-7 -10 -16 -8l-36 8q-13 3 -7 15z" />
    <glyph glyph-name="uhorn" unicode="&#x1b0;" 
d="M634 590q-10 -54 -41.5 -87.5t-74.5 -48.5q-4 -1 -4 -5l-54 -437q-1 -5 -4.5 -8.5t-8.5 -3.5h-113q-5 0 -8 3.5t-2 8.5l4 34q0 3 -2 3.5t-4 -2.5q-46 -54 -127 -54q-67 0 -108 38t-41 108q0 9 2 29l41 334q1 5 4.5 8.5t8.5 3.5h112q11 0 11 -12l-37 -299q-1 -6 -1 -17
q0 -34 18 -53.5t50 -19.5q33 0 57.5 20.5t32.5 53.5l39 315q1 5 4.5 8.5t8.5 3.5h64q28 0 54.5 16.5t35.5 59.5q2 12 13 12h60q12 0 10 -12z" />
    <glyph glyph-name="uni1EE9" unicode="&#x1ee9;" 
d="M634 590q-10 -54 -41.5 -87.5t-74.5 -48.5q-4 -1 -4 -5l-54 -437q-1 -5 -4.5 -8.5t-8.5 -3.5h-113q-5 0 -8 3.5t-2 8.5l4 34q0 3 -2 3.5t-4 -2.5q-46 -54 -127 -54q-67 0 -108 38t-41 108q0 9 2 29l41 334q1 5 4.5 8.5t8.5 3.5h112q11 0 11 -12l-37 -299q-1 -6 -1 -17
q0 -34 18 -53.5t50 -19.5q33 0 57.5 20.5t32.5 53.5l39 315q1 5 4.5 8.5t8.5 3.5h64q28 0 54.5 16.5t35.5 59.5q2 12 13 12h60q12 0 10 -12zM252 582q0 4 3 8l64 101q4 9 15 9h98q9 0 9 -7q0 -3 -3 -8l-81 -101q-6 -8 -15 -8h-81q-9 0 -9 6z" />
    <glyph glyph-name="uni1EF1" unicode="&#x1ef1;" 
d="M634 590q-10 -54 -41.5 -87.5t-74.5 -48.5q-4 -1 -4 -5l-54 -437q-1 -5 -4.5 -8.5t-8.5 -3.5h-113q-5 0 -8 3.5t-2 8.5l4 34q0 3 -2 3.5t-4 -2.5q-46 -54 -127 -54q-67 0 -108 38t-41 108q0 9 2 29l41 334q1 5 4.5 8.5t8.5 3.5h112q11 0 11 -12l-37 -299q-1 -6 -1 -17
q0 -34 18 -53.5t50 -19.5q33 0 57.5 20.5t32.5 53.5l39 315q1 5 4.5 8.5t8.5 3.5h64q28 0 54.5 16.5t35.5 59.5q2 12 13 12h60q12 0 10 -12zM169 -198.5q-18 17.5 -18 45.5q0 39 23.5 63t59.5 24q29 0 46.5 -17.5t17.5 -45.5q0 -37 -24 -62t-59 -25q-28 0 -46 17.5z" />
    <glyph glyph-name="uni1EEB" unicode="&#x1eeb;" 
d="M634 590q-10 -54 -41.5 -87.5t-74.5 -48.5q-4 -1 -4 -5l-54 -437q-1 -5 -4.5 -8.5t-8.5 -3.5h-113q-5 0 -8 3.5t-2 8.5l4 34q0 3 -2 3.5t-4 -2.5q-46 -54 -127 -54q-67 0 -108 38t-41 108q0 9 2 29l41 334q1 5 4.5 8.5t8.5 3.5h112q11 0 11 -12l-37 -299q-1 -6 -1 -17
q0 -34 18 -53.5t50 -19.5q33 0 57.5 20.5t32.5 53.5l39 315q1 5 4.5 8.5t8.5 3.5h64q28 0 54.5 16.5t35.5 59.5q2 12 13 12h60q12 0 10 -12zM368 585q0 -4 -3 -6.5t-7 -2.5h-82q-9 0 -12 8l-57 101q-2 4 -2 6q0 4 3.5 6.5t8.5 2.5h98q10 0 13 -9l39 -101q1 -2 1 -5z" />
    <glyph glyph-name="uni1EED" unicode="&#x1eed;" 
d="M634 590q-10 -54 -41.5 -87.5t-74.5 -48.5q-4 -1 -4 -5l-54 -437q-1 -5 -4.5 -8.5t-8.5 -3.5h-113q-5 0 -8 3.5t-2 8.5l4 34q0 3 -2 3.5t-4 -2.5q-46 -54 -127 -54q-67 0 -108 38t-41 108q0 9 2 29l41 334q1 5 4.5 8.5t8.5 3.5h112q11 0 11 -12l-37 -299q-1 -6 -1 -17
q0 -34 18 -53.5t50 -19.5q33 0 57.5 20.5t32.5 53.5l39 315q1 5 4.5 8.5t8.5 3.5h64q28 0 54.5 16.5t35.5 59.5q2 12 13 12h60q12 0 10 -12zM294 576q14 27 38 49q12 13 17 20.5t6 20.5q1 10 -6 17t-18 7q-13 0 -22.5 -6t-24.5 -24q-4 -5 -9 -6t-9 3l-30 25q-4 3 -4 8t4 9
q24 32 48 45.5t59 13.5q40 0 63 -20.5t23 -57.5q0 -29 -11.5 -47.5t-34.5 -39.5q-22 -20 -30 -32q-7 -10 -16 -8l-36 8q-13 3 -7 15z" />
    <glyph glyph-name="uni1EEF" unicode="&#x1eef;" 
d="M634 590q-10 -54 -41.5 -87.5t-74.5 -48.5q-4 -1 -4 -5l-54 -437q-1 -5 -4.5 -8.5t-8.5 -3.5h-113q-5 0 -8 3.5t-2 8.5l4 34q0 3 -2 3.5t-4 -2.5q-46 -54 -127 -54q-67 0 -108 38t-41 108q0 9 2 29l41 334q1 5 4.5 8.5t8.5 3.5h112q11 0 11 -12l-37 -299q-1 -6 -1 -17
q0 -34 18 -53.5t50 -19.5q33 0 57.5 20.5t32.5 53.5l39 315q1 5 4.5 8.5t8.5 3.5h64q28 0 54.5 16.5t35.5 59.5q2 12 13 12h60q12 0 10 -12zM343.5 577.5q-13.5 4.5 -29.5 13.5q-19 10 -28 13.5t-19 3.5q-31 0 -55 -22q-5 -5 -9 -5t-7 4l-34 44q-4 6 -4 9q0 4 3 8
q20 28 49 45t62 17q18 0 31.5 -5t24.5 -10.5t14 -7.5q17 -10 26 -14t20 -4q29 0 50 24q4 5 9 5q4 0 7 -4l31 -45q5 -8 1 -14q-16 -27 -45 -43.5t-64 -16.5q-20 0 -33.5 4.5z" />
    <glyph glyph-name="uhungarumlaut" unicode="&#x171;" 
d="M388.5 510.5q3.5 3.5 8.5 3.5h113q5 0 8 -3.5t2 -8.5l-60 -490q-1 -5 -4.5 -8.5t-8.5 -3.5h-113q-5 0 -8 3.5t-2 8.5l4 34q0 3 -2 3.5t-4 -2.5q-46 -54 -127 -54q-67 0 -108 38t-41 108q0 9 2 29l41 334q1 5 4.5 8.5t8.5 3.5h112q11 0 11 -12l-37 -299q-1 -6 -1 -17
q0 -34 18 -53.5t50 -19.5q33 0 57.5 20.5t32.5 53.5l39 315q1 5 4.5 8.5zM178 580q-3 4 1 10l58 101q5 9 15 9h100q7 0 9 -4t-2 -10l-64 -101q-6 -9 -16 -9h-92q-6 0 -9 4zM351 580q-2 4 2 10l64 101q2 4 6.5 6.5t8.5 2.5h94q6 0 7.5 -4t-1.5 -10l-64 -101q-6 -9 -16 -9h-92
q-7 0 -9 4z" />
    <glyph glyph-name="umacron" unicode="&#x16b;" 
d="M388.5 510.5q3.5 3.5 8.5 3.5h113q5 0 8 -3.5t2 -8.5l-60 -490q-1 -5 -4.5 -8.5t-8.5 -3.5h-113q-5 0 -8 3.5t-2 8.5l4 34q0 3 -2 3.5t-4 -2.5q-46 -54 -127 -54q-67 0 -108 38t-41 108q0 9 2 29l41 334q1 5 4.5 8.5t8.5 3.5h112q11 0 11 -12l-37 -299q-1 -6 -1 -17
q0 -34 18 -53.5t50 -19.5q33 0 57.5 20.5t32.5 53.5l39 315q1 5 4.5 8.5zM177 581.5q-3 3.5 -2 8.5l9 71q1 5 4.5 8.5t8.5 3.5h262q5 0 8 -3.5t2 -8.5l-9 -71q-1 -5 -4.5 -8.5t-8.5 -3.5h-262q-5 0 -8 3.5z" />
    <glyph glyph-name="uni0123" unicode="&#x123;" horiz-adv-x="539" 
d="M448.5 684q1.5 -4 -1.5 -10l-64 -100q-6 -9 -16 -9h-98q-10 0 -10 7q0 4 4 8l83 101q5 7 14 7h80q7 0 8.5 -4zM401.5 510.5q3.5 3.5 8.5 3.5h114q5 0 8 -3.5t2 -8.5l-56 -456q-17 -131 -97 -187t-194 -56q-34 0 -76 5q-10 2 -8 13l17 103q1 13 14 11q35 -6 64 -6
q63 0 99.5 28t43.5 90q1 3 -1 3.5t-4 -1.5q-43 -41 -113 -41q-63 0 -112 31.5t-63 101.5q-4 21 -4 51q0 26 4 68q11 80 33 127q28 61 81 98t117 37q76 0 109 -46q2 -2 4 -1.5t2 3.5l3 24q1 5 4.5 8.5zM368 261q4 29 4 49q0 18 -3 31q-5 27 -23.5 43.5t-48.5 16.5
q-29 0 -51.5 -16.5t-35.5 -43.5q-17 -29 -24 -81q-3 -25 -3 -44q0 -21 5 -36q5 -27 25 -43.5t50 -16.5q31 0 53.5 16.5t33.5 42.5q11 29 18 82z" />
    <glyph glyph-name="uni0137" unicode="&#x137;" horiz-adv-x="517" 
d="M35 3.5q-3 3.5 -2 8.5l83 676q0 5 4 8.5t9 3.5h113q5 0 8 -3.5t2 -8.5l-41 -337q-1 -3 1 -3.5t4 1.5l152 158q7 7 15 7h129q9 0 9 -6q0 -5 -4 -9l-143 -161q-2 -4 -2 -7l106 -317q1 -2 1 -5q0 -9 -11 -9h-120q-9 0 -12 9l-68 234q0 2 -2.5 2.5t-3.5 -1.5l-72 -80
q-1 -1 -2 -2.5t-1 -3.5l-18 -146q-1 -5 -4.5 -8.5t-8.5 -3.5h-113q-5 0 -8 3.5zM123 -168q0 4 3 8l64 101q4 9 15 9h98q9 0 9 -7q0 -3 -3 -8l-81 -101q-6 -8 -15 -8h-81q-9 0 -9 6z" />
    <glyph glyph-name="uni0146" unicode="&#x146;" 
d="M466 482q41 -40 41 -111q0 -9 -2 -31l-40 -328q-1 -5 -4.5 -8.5t-8.5 -3.5h-113q-11 0 -11 12l37 299q1 5 1 16q0 33 -19 53.5t-50 20.5q-36 0 -61 -24.5t-30 -65.5l-37 -299q-1 -5 -4.5 -8.5t-8.5 -3.5h-113q-5 0 -8 3.5t-2 8.5l60 490q1 5 4.5 8.5t8.5 3.5h113
q5 0 8 -3.5t2 -8.5l-4 -35q0 -3 1.5 -4t3.5 1q45 58 125 58q70 0 111 -40zM126 -168q0 4 3 8l64 101q4 9 15 9h98q9 0 9 -7q0 -3 -3 -8l-81 -101q-6 -8 -15 -8h-81q-9 0 -9 6z" />
    <glyph glyph-name="uni0157" unicode="&#x157;" horiz-adv-x="372" 
d="M397 507q8 -4 4 -15l-34 -114q-3 -12 -15 -7q-13 5 -34 5q-7 0 -21 -2q-35 -3 -62.5 -27t-31.5 -62l-34 -273q-1 -5 -4.5 -8.5t-8.5 -3.5h-113q-5 0 -8 3.5t-2 8.5l60 490q1 5 4.5 8.5t8.5 3.5h113q5 0 8 -3.5t2 -8.5l-4 -38q-1 -3 1 -4t4 1q45 60 113 60q35 0 54 -14z
M-50 -168q0 4 3 8l64 101q4 9 15 9h98q9 0 9 -7q0 -3 -3 -8l-81 -101q-6 -8 -15 -8h-81q-9 0 -9 6z" />
    <glyph glyph-name="uni0163" unicode="&#x163;" horiz-adv-x="369" 
d="M363.5 404.5q-3.5 -3.5 -8.5 -3.5h-93q-4 0 -6 -5l-26 -212q-1 -6 -1 -16q0 -49 48 -49h32q5 0 8.5 -3.5t2.5 -8.5l-12 -95q-2 -11 -10 -12h-6q-3 -1 -8 -1q-6 0 -3 -7q25 -32 25 -68q0 -18 -6 -34q-13 -34 -40 -49t-60 -15q-31 0 -59 11q-9 3 -6 14l13 49q3 12 15 9
q9 -3 18 -3q26 0 35 23q3 6 3 14q0 25 -30 55q-4 2 -6 2q-46 7 -69.5 31t-23.5 72q0 16 1 25l33 268q2 5 -4 5h-55q-5 0 -8 3.5t-2 8.5l11 89q0 5 4 8.5t9 3.5h55q5 0 5 5l15 119q1 5 4.5 8.5t8.5 3.5h109q5 0 8 -3.5t2 -8.5l-15 -119q0 -5 5 -5h93q5 0 8 -3.5t2 -8.5
l-11 -89q-1 -5 -4.5 -8.5z" />
    <glyph glyph-name="uni0219" unicode="&#x219;" horiz-adv-x="489" 
d="M84 29.5q-53 36.5 -53 96.5q0 10 1 16l1 10q1 5 4.5 8.5t8.5 3.5h108q5 0 8 -3.5t2 -8.5v-1q-3 -22 19 -37.5t58 -15.5q34 0 56.5 14.5t22.5 36.5q0 16 -17 24.5t-52 17.5q-44 13 -69 23q-54 20 -86 48t-32 79q0 54 29 95t80 63t115 22q87 0 137.5 -39.5t50.5 -103.5
q0 -13 -1 -19q-1 -5 -4.5 -8.5t-8.5 -3.5h-104q-5 0 -8 3.5t-2 8.5q2 22 -17.5 37t-55.5 15q-34 0 -56.5 -13t-22.5 -36q0 -18 19 -27.5t62 -20.5q36 -9 51 -14q61 -19 96 -48.5t35 -82.5q0 -12 -1 -19q-10 -74 -72 -115.5t-157 -41.5q-92 0 -145 36.5zM105 -175q0 4 3 8
l64 101q4 9 15 9h98q9 0 9 -7q0 -3 -3 -8l-81 -101q-6 -8 -15 -8h-81q-9 0 -9 6z" />
    <glyph glyph-name="uni021B" unicode="&#x21b;" horiz-adv-x="369" 
d="M363.5 404.5q-3.5 -3.5 -8.5 -3.5h-93q-4 0 -6 -5l-26 -212q-1 -6 -1 -16q0 -49 48 -49h32q5 0 8.5 -3.5t2.5 -8.5l-12 -95q-2 -12 -13 -13q-40 -2 -59 -2q-74 0 -110.5 22.5t-36.5 82.5q0 8 2 26l33 268q2 5 -4 5h-55q-5 0 -8 3.5t-2 8.5l11 89q0 5 4 8.5t9 3.5h55
q5 0 5 5l15 119q1 5 4.5 8.5t8.5 3.5h109q5 0 8 -3.5t2 -8.5l-15 -119q0 -5 5 -5h93q5 0 8 -3.5t2 -8.5l-11 -89q-1 -5 -4.5 -8.5zM94 -167q0 4 3 8l64 101q4 9 15 9h98q9 0 9 -7q0 -3 -3 -8l-81 -101q-6 -8 -15 -8h-81q-9 0 -9 6z" />
    <glyph glyph-name="uogonek" unicode="&#x173;" 
d="M440 -109q7 0 7 -9l1 -49q0 -12 -9 -15q-31 -11 -62 -11q-36 0 -60 18t-24 60q0 58 66 109q3 2 2.5 4t-3.5 2h-24q-5 0 -8 3.5t-2 8.5l4 34q0 3 -2 3.5t-4 -2.5q-46 -54 -127 -54q-67 0 -108 38t-41 108q0 9 2 29l41 334q1 5 4.5 8.5t8.5 3.5h112q11 0 11 -12l-37 -299
q-1 -6 -1 -17q0 -34 18 -53.5t50 -19.5q33 0 57.5 20.5t32.5 53.5l39 315q1 5 4.5 8.5t8.5 3.5h113q5 0 8 -3.5t2 -8.5l-61 -498q0 -5 -3 -6q-5 -5 -16 -13q-59 -42 -53 -75q1 -11 9 -17t20 -6q9 0 18 3z" />
    <glyph glyph-name="uring" unicode="&#x16f;" 
d="M388.5 510.5q3.5 3.5 8.5 3.5h113q5 0 8 -3.5t2 -8.5l-60 -490q-1 -5 -4.5 -8.5t-8.5 -3.5h-113q-5 0 -8 3.5t-2 8.5l4 34q0 3 -2 3.5t-4 -2.5q-46 -54 -127 -54q-67 0 -108 38t-41 108q0 9 2 29l41 334q1 5 4.5 8.5t8.5 3.5h112q11 0 11 -12l-37 -299q-1 -6 -1 -17
q0 -34 18 -53.5t50 -19.5q33 0 57.5 20.5t32.5 53.5l39 315q1 5 4.5 8.5zM236 593.5q-30 30.5 -30 77.5q0 38 19 70t50.5 51t68.5 19q46 0 76 -30t30 -77q0 -38 -18.5 -70.5t-50.5 -51.5t-68 -19q-47 0 -77 30.5zM361 654q17 17 17 40q0 19 -12.5 31.5t-30.5 12.5
q-22 0 -39 -16.5t-17 -40.5q0 -19 12.5 -31.5t31.5 -12.5q21 0 38 17z" />
    <glyph glyph-name="utilde" unicode="&#x169;" 
d="M388.5 510.5q3.5 3.5 8.5 3.5h113q5 0 8 -3.5t2 -8.5l-60 -490q-1 -5 -4.5 -8.5t-8.5 -3.5h-113q-5 0 -8 3.5t-2 8.5l4 34q0 3 -2 3.5t-4 -2.5q-46 -54 -127 -54q-67 0 -108 38t-41 108q0 9 2 29l41 334q1 5 4.5 8.5t8.5 3.5h112q11 0 11 -12l-37 -299q-1 -6 -1 -17
q0 -34 18 -53.5t50 -19.5q33 0 57.5 20.5t32.5 53.5l39 315q1 5 4.5 8.5zM343.5 577.5q-13.5 4.5 -29.5 13.5q-19 10 -28 13.5t-19 3.5q-31 0 -55 -22q-5 -5 -9 -5t-7 4l-34 44q-4 6 -4 9q0 4 3 8q20 28 49 45t62 17q18 0 31.5 -5t24.5 -10.5t14 -7.5q17 -10 26 -14t20 -4
q29 0 50 24q4 5 9 5q4 0 7 -4l31 -45q5 -8 1 -14q-16 -27 -45 -43.5t-64 -16.5q-20 0 -33.5 4.5z" />
    <glyph glyph-name="v" unicode="v" horiz-adv-x="504" 
d="M158 10l-95 491v2q0 12 12 12h125q11 0 12 -10l43 -303q0 -3 2.5 -3t3.5 3l116 303q4 10 15 10l125 -2q6 0 8.5 -3.5t-0.5 -10.5l-214 -489q-5 -10 -14 -10h-127q-9 0 -12 10z" />
    <glyph glyph-name="w" unicode="w" horiz-adv-x="760" 
d="M143 10l-80 491v2q0 5 3.5 8.5t8.5 3.5h117q12 0 13 -10l32 -302q1 -3 3 -3t3 3l110 302q4 10 15 10h102q11 0 12 -10l39 -303q1 -3 3 -3t3 3l113 303q4 10 15 10l116 -2q6 0 8 -3.5t0 -9.5l-202 -490q-3 -10 -13 -10h-118q-10 0 -12 10l-42 268q0 3 -2 3t-4 -3l-99 -268
q-3 -10 -14 -10h-118q-10 0 -12 10z" />
    <glyph glyph-name="wacute" unicode="&#x1e83;" horiz-adv-x="760" 
d="M143 10l-80 491v2q0 5 3.5 8.5t8.5 3.5h117q12 0 13 -10l32 -302q1 -3 3 -3t3 3l110 302q4 10 15 10h102q11 0 12 -10l39 -303q1 -3 3 -3t3 3l113 303q4 10 15 10l116 -2q6 0 8 -3.5t0 -9.5l-202 -490q-3 -10 -13 -10h-118q-10 0 -12 10l-42 268q0 3 -2 3t-4 -3l-99 -268
q-3 -10 -14 -10h-118q-10 0 -12 10zM363 582q0 4 3 8l64 101q4 9 15 9h98q9 0 9 -7q0 -3 -3 -8l-81 -101q-6 -8 -15 -8h-81q-9 0 -9 6z" />
    <glyph glyph-name="wcircumflex" unicode="&#x175;" horiz-adv-x="760" 
d="M143 10l-80 491v2q0 5 3.5 8.5t8.5 3.5h117q12 0 13 -10l32 -302q1 -3 3 -3t3 3l110 302q4 10 15 10h102q11 0 12 -10l39 -303q1 -3 3 -3t3 3l113 303q4 10 15 10l116 -2q6 0 8 -3.5t0 -9.5l-202 -490q-3 -10 -13 -10h-118q-10 0 -12 10l-42 268q0 3 -2 3t-4 -3l-99 -268
q-3 -10 -14 -10h-118q-10 0 -12 10zM274 579q0 4 3 8l84 105q5 8 14 8h129q9 0 13 -8l61 -105q2 -4 2 -6q0 -4 -3.5 -6.5t-8.5 -2.5h-87q-10 0 -13 8l-31 61q-3 6 -6 0l-46 -61q-6 -8 -15 -8h-87q-9 0 -9 7z" />
    <glyph glyph-name="wdieresis" unicode="&#x1e85;" horiz-adv-x="760" 
d="M143 10l-80 491v2q0 5 3.5 8.5t8.5 3.5h117q12 0 13 -10l32 -302q1 -3 3 -3t3 3l110 302q4 10 15 10h102q11 0 12 -10l39 -303q1 -3 3 -3t3 3l113 303q4 10 15 10l116 -2q6 0 8 -3.5t0 -9.5l-202 -490q-3 -10 -13 -10h-118q-10 0 -12 10l-42 268q0 3 -2 3t-4 -3l-99 -268
q-3 -10 -14 -10h-118q-10 0 -12 10zM473 597.5q-19 19.5 -19 49.5q0 38 25.5 63.5t62.5 25.5q31 0 49.5 -18.5t18.5 -49.5q0 -38 -26 -64t-62 -26q-30 0 -49 19.5zM280 597.5q-19 19.5 -19 49.5q0 38 25.5 63.5t62.5 25.5q31 0 49.5 -18.5t18.5 -49.5q0 -38 -26 -64t-62 -26
q-30 0 -49 19.5z" />
    <glyph glyph-name="wgrave" unicode="&#x1e81;" horiz-adv-x="760" 
d="M143 10l-80 491v2q0 5 3.5 8.5t8.5 3.5h117q12 0 13 -10l32 -302q1 -3 3 -3t3 3l110 302q4 10 15 10h102q11 0 12 -10l39 -303q1 -3 3 -3t3 3l113 303q4 10 15 10l116 -2q6 0 8 -3.5t0 -9.5l-202 -490q-3 -10 -13 -10h-118q-10 0 -12 10l-42 268q0 3 -2 3t-4 -3l-99 -268
q-3 -10 -14 -10h-118q-10 0 -12 10zM478 585q0 -4 -3 -6.5t-7 -2.5h-82q-9 0 -12 8l-57 101q-2 4 -2 6q0 4 3.5 6.5t8.5 2.5h98q10 0 13 -9l39 -101q1 -2 1 -5z" />
    <glyph glyph-name="x" unicode="x" horiz-adv-x="521" 
d="M3 7q0 4 3 8l185 239q2 4 1 6l-127 239q-1 2 -1 5q0 10 11 10h121q8 0 13 -8l70 -137q3 -5 7 0l104 137q6 8 15 8h130q7 0 7 -6q0 -4 -3 -9l-184 -239q-2 -4 -1 -6l126 -239q2 -4 2 -6q0 -4 -3 -6.5t-8 -2.5h-122q-9 0 -12 8l-71 137q-1 6 -6 0l-104 -137q-5 -8 -14 -8
h-130q-9 0 -9 7z" />
    <glyph glyph-name="y" unicode="y" horiz-adv-x="489" 
d="M-2 -187l12 92q1 5 4.5 8.5t8.5 3.5q60 1 88.5 16.5t45.5 63.5q1 2 1 6l-98 498v4q0 10 11 10h121q12 0 13 -10l41 -324q1 -3 3 -3t3 3l121 324q4 10 15 10h119q6 0 8 -4t-1 -10l-232 -520q-33 -73 -63 -109.5t-77.5 -53.5t-131.5 -17h-6q-6 0 -6 12z" />
    <glyph glyph-name="yacute" unicode="&#xfd;" horiz-adv-x="489" 
d="M-2 -187l12 92q1 5 4.5 8.5t8.5 3.5q60 1 88.5 16.5t45.5 63.5q1 2 1 6l-98 498v4q0 10 11 10h121q12 0 13 -10l41 -324q1 -3 3 -3t3 3l121 324q4 10 15 10h119q6 0 8 -4t-1 -10l-232 -520q-33 -73 -63 -109.5t-77.5 -53.5t-131.5 -17h-6q-6 0 -6 12zM234 591q0 4 3 8
l64 101q4 9 15 9h98q9 0 9 -7q0 -3 -3 -8l-81 -101q-6 -8 -15 -8h-81q-9 0 -9 6z" />
    <glyph glyph-name="ycircumflex" unicode="&#x177;" horiz-adv-x="489" 
d="M-2 -187l12 92q1 5 4.5 8.5t8.5 3.5q60 1 88.5 16.5t45.5 63.5q1 2 1 6l-98 498v4q0 10 11 10h121q12 0 13 -10l41 -324q1 -3 3 -3t3 3l121 324q4 10 15 10h119q6 0 8 -4t-1 -10l-232 -520q-33 -73 -63 -109.5t-77.5 -53.5t-131.5 -17h-6q-6 0 -6 12zM145 588q0 4 3 8
l84 105q5 8 14 8h129q9 0 13 -8l61 -105q2 -4 2 -6q0 -4 -3.5 -6.5t-8.5 -2.5h-87q-10 0 -13 8l-31 61q-3 6 -6 0l-46 -61q-6 -8 -15 -8h-87q-9 0 -9 7z" />
    <glyph glyph-name="ydieresis" unicode="&#xff;" horiz-adv-x="489" 
d="M-2 -187l12 92q1 5 4.5 8.5t8.5 3.5q60 1 88.5 16.5t45.5 63.5q1 2 1 6l-98 498v4q0 10 11 10h121q12 0 13 -10l41 -324q1 -3 3 -3t3 3l121 324q4 10 15 10h119q6 0 8 -4t-1 -10l-232 -520q-33 -73 -63 -109.5t-77.5 -53.5t-131.5 -17h-6q-6 0 -6 12zM344 606.5
q-19 19.5 -19 49.5q0 38 25.5 63.5t62.5 25.5q31 0 49.5 -18.5t18.5 -49.5q0 -38 -26 -64t-62 -26q-30 0 -49 19.5zM151 606.5q-19 19.5 -19 49.5q0 38 25.5 63.5t62.5 25.5q31 0 49.5 -18.5t18.5 -49.5q0 -38 -26 -64t-62 -26q-30 0 -49 19.5z" />
    <glyph glyph-name="uni1EF5" unicode="&#x1ef5;" horiz-adv-x="489" 
d="M-2 -187l12 92q1 5 4.5 8.5t8.5 3.5q60 1 88.5 16.5t45.5 63.5q1 2 1 6l-98 498v4q0 10 11 10h121q12 0 13 -10l41 -324q1 -3 3 -3t3 3l121 324q4 10 15 10h119q6 0 8 -4t-1 -10l-232 -520q-33 -73 -63 -109.5t-77.5 -53.5t-131.5 -17h-6q-6 0 -6 12zM291 -198.5
q-18 17.5 -18 45.5q0 39 23.5 63t59.5 24q29 0 46.5 -17.5t17.5 -45.5q0 -37 -24 -62t-59 -25q-28 0 -46 17.5z" />
    <glyph glyph-name="ygrave" unicode="&#x1ef3;" horiz-adv-x="489" 
d="M-2 -187l12 92q1 5 4.5 8.5t8.5 3.5q60 1 88.5 16.5t45.5 63.5q1 2 1 6l-98 498v4q0 10 11 10h121q12 0 13 -10l41 -324q1 -3 3 -3t3 3l121 324q4 10 15 10h119q6 0 8 -4t-1 -10l-232 -520q-33 -73 -63 -109.5t-77.5 -53.5t-131.5 -17h-6q-6 0 -6 12zM349 594
q0 -4 -3 -6.5t-7 -2.5h-82q-9 0 -12 8l-57 101q-2 4 -2 6q0 4 3.5 6.5t8.5 2.5h98q10 0 13 -9l39 -101q1 -2 1 -5z" />
    <glyph glyph-name="uni1EF7" unicode="&#x1ef7;" horiz-adv-x="489" 
d="M-2 -187l12 92q1 5 4.5 8.5t8.5 3.5q60 1 88.5 16.5t45.5 63.5q1 2 1 6l-98 498v4q0 10 11 10h121q12 0 13 -10l41 -324q1 -3 3 -3t3 3l121 324q4 10 15 10h119q6 0 8 -4t-1 -10l-232 -520q-33 -73 -63 -109.5t-77.5 -53.5t-131.5 -17h-6q-6 0 -6 12zM275 585
q14 27 38 49q12 13 17 20.5t6 20.5q1 10 -6 17t-18 7q-13 0 -22.5 -6t-24.5 -24q-4 -5 -9 -6t-9 3l-30 25q-4 3 -4 8t4 9q24 32 48 45.5t59 13.5q40 0 63 -20.5t23 -57.5q0 -29 -11.5 -47.5t-34.5 -39.5q-22 -20 -30 -32q-7 -10 -16 -8l-36 8q-13 3 -7 15z" />
    <glyph glyph-name="uni1EF9" unicode="&#x1ef9;" horiz-adv-x="489" 
d="M-2 -187l12 92q1 5 4.5 8.5t8.5 3.5q60 1 88.5 16.5t45.5 63.5q1 2 1 6l-98 498v4q0 10 11 10h121q12 0 13 -10l41 -324q1 -3 3 -3t3 3l121 324q4 10 15 10h119q6 0 8 -4t-1 -10l-232 -520q-33 -73 -63 -109.5t-77.5 -53.5t-131.5 -17h-6q-6 0 -6 12zM324.5 586.5
q-13.5 4.5 -29.5 13.5q-19 10 -28 13.5t-19 3.5q-31 0 -55 -22q-5 -5 -9 -5t-7 4l-34 44q-4 6 -4 9q0 4 3 8q20 28 49 45t62 17q18 0 31.5 -5t24.5 -10.5t14 -7.5q17 -10 26 -14t20 -4q29 0 50 24q4 5 9 5q4 0 7 -4l31 -45q5 -8 1 -14q-16 -27 -45 -43.5t-64 -16.5
q-20 0 -33.5 4.5z" />
    <glyph glyph-name="z" unicode="z" horiz-adv-x="446" 
d="M7.5 3.5q-3.5 3.5 -2.5 8.5l13 107q1 6 8 15l249 247q5 6 -1 6h-205q-5 0 -8 3.5t-2 8.5l12 103q1 5 4.5 8.5t8.5 3.5h363q5 0 8 -3.5t2 -8.5l-13 -106q0 -6 -7 -15l-256 -247q-4 -6 2 -6h222q5 0 8 -3.5t2 -8.5l-13 -104q-1 -5 -4.5 -8.5t-8.5 -3.5h-373q-5 0 -8.5 3.5z
" />
    <glyph glyph-name="zacute" unicode="&#x17a;" horiz-adv-x="446" 
d="M7.5 3.5q-3.5 3.5 -2.5 8.5l13 107q1 6 8 15l249 247q5 6 -1 6h-205q-5 0 -8 3.5t-2 8.5l12 103q1 5 4.5 8.5t8.5 3.5h363q5 0 8 -3.5t2 -8.5l-13 -106q0 -6 -7 -15l-256 -247q-4 -6 2 -6h222q5 0 8 -3.5t2 -8.5l-13 -104q-1 -5 -4.5 -8.5t-8.5 -3.5h-373q-5 0 -8.5 3.5z
M209 582q0 4 3 8l64 101q4 9 15 9h98q9 0 9 -7q0 -3 -3 -8l-81 -101q-6 -8 -15 -8h-81q-9 0 -9 6z" />
    <glyph glyph-name="zcaron" unicode="&#x17e;" horiz-adv-x="446" 
d="M7.5 3.5q-3.5 3.5 -2.5 8.5l13 107q1 6 8 15l249 247q5 6 -1 6h-205q-5 0 -8 3.5t-2 8.5l12 103q1 5 4.5 8.5t8.5 3.5h363q5 0 8 -3.5t2 -8.5l-13 -106q0 -6 -7 -15l-256 -247q-4 -6 2 -6h222q5 0 8 -3.5t2 -8.5l-13 -104q-1 -5 -4.5 -8.5t-8.5 -3.5h-373q-5 0 -8.5 3.5z
M139 691q0 4 3 6.5t8 2.5h88q9 0 12 -8l32 -61q2 -7 5 0l47 61q5 8 14 8h88q9 0 9 -7q0 -3 -3 -8l-87 -106q-6 -7 -15 -7h-129q-9 0 -12 8l-58 105q-2 4 -2 6z" />
    <glyph glyph-name="zdotaccent" unicode="&#x17c;" horiz-adv-x="446" 
d="M7.5 3.5q-3.5 3.5 -2.5 8.5l13 107q1 6 8 15l249 247q5 6 -1 6h-205q-5 0 -8 3.5t-2 8.5l12 103q1 5 4.5 8.5t8.5 3.5h363q5 0 8 -3.5t2 -8.5l-13 -106q0 -6 -7 -15l-256 -247q-4 -6 2 -6h222q5 0 8 -3.5t2 -8.5l-13 -104q-1 -5 -4.5 -8.5t-8.5 -3.5h-373q-5 0 -8.5 3.5z
M222 591.5q-19 19.5 -19 49.5q0 38 25.5 63.5t62.5 25.5q31 0 49.5 -18.5t18.5 -49.5q0 -38 -26 -64t-62 -26q-30 0 -49 19.5z" />
    <glyph glyph-name="a.sc" horiz-adv-x="556" 
d="M380 10l-10 69q-2 4 -5 4h-193q-3 0 -5 -4l-28 -69q-5 -10 -15 -10h-112q-6 0 -8.5 3.5t0.5 10.5l244 553q5 10 14 10h134q9 0 11 -10l109 -553v-4q0 -10 -11 -10h-112q-10 0 -13 10zM219 192h127q6 0 4 6l-36 230q0 3 -2 3t-3 -3l-94 -230q-1 -6 4 -6z" />
    <glyph glyph-name="aacute.sc" horiz-adv-x="556" 
d="M380 10l-10 69q-2 4 -5 4h-193q-3 0 -5 -4l-28 -69q-5 -10 -15 -10h-112q-6 0 -8.5 3.5t0.5 10.5l244 553q5 10 14 10h134q9 0 11 -10l109 -553v-4q0 -10 -11 -10h-112q-10 0 -13 10zM219 192h127q6 0 4 6l-36 230q0 3 -2 3t-3 -3l-94 -230q-1 -6 4 -6zM273 645q0 4 3 8
l64 101q4 9 15 9h98q9 0 9 -7q0 -3 -3 -8l-81 -101q-6 -8 -15 -8h-81q-9 0 -9 6z" />
    </font>
</defs>
</svg>
